<svg width="694" height="522" viewBox="0 0 694 522" fill="none" xmlns="http://www.w3.org/2000/svg">
<g clip-path="url(#clip0_704_1931)">
<path opacity="0.28" d="M684.799 333.52H9.19922C4.19922 333.52 0.199219 329.352 0.199219 324.143C0.199219 318.933 4.19922 314.766 9.19922 314.766H684.899C689.899 314.766 693.899 318.933 693.899 324.143C693.799 329.352 689.799 333.52 684.799 333.52Z" fill="#3B3B3B"/>
<path d="M655.498 237.244C655.498 198.485 627.298 166.602 590.798 162.955V154.203H568.898V321.639H590.798V311.532C627.198 307.886 655.498 276.003 655.498 237.244ZM590.698 287.464V187.128C614.098 190.67 632.498 211.821 632.498 237.348C632.498 262.771 614.098 283.922 590.698 287.464Z" fill="#F9F9F9"/>
<path opacity="0.29" d="M590.699 162.955V154.203H568.799V321.639H590.699V311.532C627.199 307.886 655.399 276.107 655.399 237.244C655.499 198.485 627.199 166.602 590.699 162.955ZM590.699 303.822V312.47H570.199V161.809H590.699V170.665C622.799 173.895 648.699 202.444 648.699 237.244C648.799 272.044 622.899 300.592 590.699 303.822Z" fill="#444E59"/>
<path d="M655.498 237.244C655.498 198.485 627.298 166.602 590.798 162.955V154.203H568.898V321.639H590.798V311.532C627.198 307.886 655.498 276.003 655.498 237.244ZM590.698 287.464V187.128C614.098 190.67 632.498 211.821 632.498 237.348C632.498 262.771 614.098 283.922 590.698 287.464Z" stroke="#444E59" stroke-width="4" stroke-miterlimit="10" stroke-linecap="round" stroke-linejoin="round"/>
<path d="M577.599 304.867H568.799" stroke="#444E59" stroke-width="3" stroke-miterlimit="10" stroke-linecap="round" stroke-linejoin="round"/>
<path d="M577.599 288.195H568.799" stroke="#444E59" stroke-width="3" stroke-miterlimit="10" stroke-linecap="round" stroke-linejoin="round"/>
<path d="M577.599 271.418H568.799" stroke="#444E59" stroke-width="3" stroke-miterlimit="10" stroke-linecap="round" stroke-linejoin="round"/>
<path d="M577.599 254.648H568.799" stroke="#444E59" stroke-width="3" stroke-miterlimit="10" stroke-linecap="round" stroke-linejoin="round"/>
<path d="M577.599 237.977H568.799" stroke="#444E59" stroke-width="3" stroke-miterlimit="10" stroke-linecap="round" stroke-linejoin="round"/>
<path d="M577.599 221.199H568.799" stroke="#444E59" stroke-width="3" stroke-miterlimit="10" stroke-linecap="round" stroke-linejoin="round"/>
<path d="M577.599 204.426H568.799" stroke="#444E59" stroke-width="3" stroke-miterlimit="10" stroke-linecap="round" stroke-linejoin="round"/>
<path d="M577.599 187.652H568.799" stroke="#444E59" stroke-width="3" stroke-miterlimit="10" stroke-linecap="round" stroke-linejoin="round"/>
<path d="M577.599 170.98H568.799" stroke="#444E59" stroke-width="3" stroke-miterlimit="10" stroke-linecap="round" stroke-linejoin="round"/>
<path d="M553.399 69.4961H520.299V321.223H553.399V69.4961Z" fill="#F09F54"/>
<path d="M553.399 69.4961H520.299V321.223H553.399V69.4961Z" fill="#F9F9F9"/>
<path opacity="0.29" d="M553.398 69.4961H538.998V321.223H553.398V69.4961Z" fill="#444E59"/>
<path d="M553.399 69.4961H520.299V321.223H553.399V69.4961Z" stroke="#444E59" stroke-width="4" stroke-miterlimit="10" stroke-linecap="round" stroke-linejoin="round"/>
<path d="M531.799 295.801H520.299" stroke="#444E59" stroke-width="3" stroke-miterlimit="10" stroke-linecap="round" stroke-linejoin="round"/>
<path d="M527.399 307.781H520.299" stroke="#444E59" stroke-width="3" stroke-miterlimit="10" stroke-linecap="round" stroke-linejoin="round"/>
<path d="M531.799 271.84H520.299" stroke="#444E59" stroke-width="3" stroke-miterlimit="10" stroke-linecap="round" stroke-linejoin="round"/>
<path d="M527.399 283.82H520.299" stroke="#444E59" stroke-width="3" stroke-miterlimit="10" stroke-linecap="round" stroke-linejoin="round"/>
<path d="M531.799 247.875H520.299" stroke="#444E59" stroke-width="3" stroke-miterlimit="10" stroke-linecap="round" stroke-linejoin="round"/>
<path d="M527.399 259.855H520.299" stroke="#444E59" stroke-width="3" stroke-miterlimit="10" stroke-linecap="round" stroke-linejoin="round"/>
<path d="M531.799 223.805H520.299" stroke="#444E59" stroke-width="3" stroke-miterlimit="10" stroke-linecap="round" stroke-linejoin="round"/>
<path d="M527.399 235.785H520.299" stroke="#444E59" stroke-width="3" stroke-miterlimit="10" stroke-linecap="round" stroke-linejoin="round"/>
<path d="M531.799 199.84H520.299" stroke="#444E59" stroke-width="3" stroke-miterlimit="10" stroke-linecap="round" stroke-linejoin="round"/>
<path d="M527.399 211.82H520.299" stroke="#444E59" stroke-width="3" stroke-miterlimit="10" stroke-linecap="round" stroke-linejoin="round"/>
<path d="M531.799 175.875H520.299" stroke="#444E59" stroke-width="3" stroke-miterlimit="10" stroke-linecap="round" stroke-linejoin="round"/>
<path d="M527.399 187.855H520.299" stroke="#444E59" stroke-width="3" stroke-miterlimit="10" stroke-linecap="round" stroke-linejoin="round"/>
<path d="M531.799 151.91H520.299" stroke="#444E59" stroke-width="3" stroke-miterlimit="10" stroke-linecap="round" stroke-linejoin="round"/>
<path d="M527.399 163.891H520.299" stroke="#444E59" stroke-width="3" stroke-miterlimit="10" stroke-linecap="round" stroke-linejoin="round"/>
<path d="M531.799 127.949H520.299" stroke="#444E59" stroke-width="3" stroke-miterlimit="10" stroke-linecap="round" stroke-linejoin="round"/>
<path d="M527.399 139.93H520.299" stroke="#444E59" stroke-width="3" stroke-miterlimit="10" stroke-linecap="round" stroke-linejoin="round"/>
<path d="M531.799 103.984H520.299" stroke="#444E59" stroke-width="3" stroke-miterlimit="10" stroke-linecap="round" stroke-linejoin="round"/>
<path d="M527.399 115.965H520.299" stroke="#444E59" stroke-width="3" stroke-miterlimit="10" stroke-linecap="round" stroke-linejoin="round"/>
<path d="M531.799 80.0195H520.299" stroke="#444E59" stroke-width="3" stroke-miterlimit="10" stroke-linecap="round" stroke-linejoin="round"/>
<path d="M527.399 92H520.299" stroke="#444E59" stroke-width="3" stroke-miterlimit="10" stroke-linecap="round" stroke-linejoin="round"/>
<path d="M472 130.348H459.1V165.877H472V130.348Z" fill="#848484"/>
<path opacity="0.25" d="M463.9 130.348H459.1V165.877H463.9V130.348Z" fill="#848484"/>
<path d="M472 130.348H459.1V165.877H472V130.348Z" stroke="#444E59" stroke-width="4" stroke-miterlimit="10" stroke-linecap="round" stroke-linejoin="round"/>
<path d="M468.5 165.98H462.6V183.172H468.5V165.98Z" fill="white"/>
<path d="M468.5 165.98H462.6V183.172H468.5V165.98Z" stroke="#444E59" stroke-width="4" stroke-miterlimit="10" stroke-linecap="round" stroke-linejoin="round"/>
<path d="M455.6 198.488L425.6 321.122L471.2 200.155L455.6 198.488Z" fill="white"/>
<path d="M455.6 198.488L425.6 321.122L471.2 200.155L455.6 198.488Z" stroke="#444E59" stroke-width="4" stroke-miterlimit="10" stroke-linecap="round" stroke-linejoin="round"/>
<path d="M475.6 198.488L505.6 321.122L460.1 200.155L475.6 198.488Z" fill="white"/>
<path d="M475.6 198.488L505.6 321.122L460.1 200.155L475.6 198.488Z" stroke="#444E59" stroke-width="4" stroke-miterlimit="10" stroke-linecap="round" stroke-linejoin="round"/>
<path d="M465.6 222.556C476.645 222.556 485.6 213.226 485.6 201.717C485.6 190.209 476.645 180.879 465.6 180.879C454.554 180.879 445.6 190.209 445.6 201.717C445.6 213.226 454.554 222.556 465.6 222.556Z" fill="#F9F9F9"/>
<path opacity="0.4" d="M451.2 201.717C451.2 191.194 458.7 182.546 468.4 181.087C467.5 180.983 466.6 180.879 465.6 180.879C454.6 180.879 445.6 190.256 445.6 201.717C445.6 213.178 454.6 222.556 465.6 222.556C466.5 222.556 467.5 222.451 468.4 222.347C458.7 220.888 451.2 212.241 451.2 201.717Z" fill="#71A850"/>
<path d="M465.6 222.556C476.645 222.556 485.6 213.226 485.6 201.717C485.6 190.209 476.645 180.879 465.6 180.879C454.554 180.879 445.6 190.209 445.6 201.717C445.6 213.226 454.554 222.556 465.6 222.556Z" stroke="#444E59" stroke-width="4" stroke-miterlimit="10" stroke-linecap="round" stroke-linejoin="round"/>
<path d="M465.599 208.803C469.354 208.803 472.399 205.631 472.399 201.718C472.399 197.805 469.354 194.633 465.599 194.633C461.843 194.633 458.799 197.805 458.799 201.718C458.799 205.631 461.843 208.803 465.599 208.803Z" fill="#444E59"/>
<path d="M465.599 208.803C469.354 208.803 472.399 205.631 472.399 201.718C472.399 197.805 469.354 194.633 465.599 194.633C461.843 194.633 458.799 197.805 458.799 201.718C458.799 205.631 461.843 208.803 465.599 208.803Z" stroke="#444E59" stroke-width="4" stroke-miterlimit="10" stroke-linecap="round" stroke-linejoin="round"/>
<path d="M393.398 320.911H261.398C253.698 320.911 247.398 314.347 247.398 306.324V22.9228C247.398 14.9 253.698 8.33594 261.398 8.33594H393.398C401.098 8.33594 407.398 14.9 407.398 22.9228V306.324C407.398 314.347 401.098 320.911 393.398 320.911Z" fill="#848484"/>
<path opacity="0.28" d="M393.4 8.33594H385C392.7 8.33594 399 14.9 399 22.9228V306.324C399 314.347 392.7 320.911 385 320.911H393.5C401.2 320.911 407.5 314.347 407.5 306.324V22.9228C407.4 14.7958 401.1 8.33594 393.4 8.33594Z" fill="#848484"/>
<path opacity="0.48" d="M255.698 306.324V22.9228C255.698 14.9 261.998 8.33594 269.698 8.33594H261.398C253.698 8.33594 247.398 14.9 247.398 22.9228V306.324C247.398 314.347 253.698 320.911 261.398 320.911H269.698C261.998 320.911 255.698 314.347 255.698 306.324Z" fill="#848484"/>
<path d="M393.398 320.911H261.398C253.698 320.911 247.398 314.347 247.398 306.324V22.9228C247.398 14.9 253.698 8.33594 261.398 8.33594H393.398C401.098 8.33594 407.398 14.9 407.398 22.9228V306.324C407.398 314.347 401.098 320.911 393.398 320.911Z" stroke="#2B2B2B" stroke-width="4" stroke-miterlimit="10" stroke-linecap="round" stroke-linejoin="round"/>
<path d="M407.418 280.784L407.418 47.3945L247.418 47.3945L247.418 280.784H407.418Z" fill="#F9F9F9"/>
<path d="M406.599 122.636H394.099C387.299 122.636 381.799 116.906 381.799 109.821V78.0422C381.799 70.9571 387.299 65.2266 394.099 65.2266H406.599V122.636Z" fill="#C9C9C9"/>
<path d="M256.598 251.414H247.398V150.035H256.598C263.498 150.035 269.098 155.87 269.098 163.059V238.39C268.998 245.579 263.498 251.414 256.598 251.414Z" fill="#C9C9C9"/>
<path d="M407.418 280.784L407.418 47.3945L247.418 47.3945L247.418 280.784H407.418Z" stroke="#2B2B2B" stroke-width="4" stroke-miterlimit="10" stroke-linecap="round" stroke-linejoin="round"/>
<path d="M349.398 29.1758H356.398" stroke="#444E59" stroke-width="5" stroke-miterlimit="10" stroke-linecap="round" stroke-linejoin="round"/>
<path d="M298.398 29.1758H338.398" stroke="#444E59" stroke-width="5" stroke-miterlimit="10" stroke-linecap="round" stroke-linejoin="round"/>
<path opacity="0.29" d="M327.398 309.864C333.474 309.864 338.398 304.732 338.398 298.402C338.398 292.073 333.474 286.941 327.398 286.941C321.323 286.941 316.398 292.073 316.398 298.402C316.398 304.732 321.323 309.864 327.398 309.864Z" fill="#848484"/>
<path d="M327.398 307.157C332.037 307.157 335.798 303.238 335.798 298.404C335.798 293.571 332.037 289.652 327.398 289.652C322.759 289.652 318.998 293.571 318.998 298.404C318.998 303.238 322.759 307.157 327.398 307.157Z" fill="#444E59"/>
<g opacity="0.3">
<path d="M290.898 252.873H274.898C270.498 252.873 266.898 249.122 266.898 244.537V227.867C266.898 223.282 270.498 219.531 274.898 219.531H290.898C295.298 219.531 298.898 223.282 298.898 227.867V244.537C298.898 249.122 295.298 252.873 290.898 252.873Z" stroke="#444E59" stroke-width="2" stroke-linecap="round" stroke-linejoin="round" stroke-dasharray="4.08 4.08"/>
<path d="M379.398 252.873H363.398C358.998 252.873 355.398 249.122 355.398 244.537V227.867C355.398 223.282 358.998 219.531 363.398 219.531H379.398C383.798 219.531 387.398 223.282 387.398 227.867V244.537C387.398 249.122 383.798 252.873 379.398 252.873Z" stroke="#444E59" stroke-width="2" stroke-linecap="round" stroke-linejoin="round" stroke-dasharray="4.08 4.08"/>
<path d="M335.398 252.873H319.398C314.998 252.873 311.398 249.122 311.398 244.537V227.867C311.398 223.282 314.998 219.531 319.398 219.531H335.398C339.798 219.531 343.398 223.282 343.398 227.867V244.537C343.398 249.122 339.798 252.873 335.398 252.873Z" stroke="#444E59" stroke-width="2" stroke-linecap="round" stroke-linejoin="round" stroke-dasharray="4.08 4.08"/>
<path d="M290.898 202.861H274.898C270.498 202.861 266.898 199.11 266.898 194.526V177.855C266.898 173.27 270.498 169.52 274.898 169.52H290.898C295.298 169.52 298.898 173.27 298.898 177.855V194.526C298.898 199.11 295.298 202.861 290.898 202.861Z" stroke="#444E59" stroke-width="2" stroke-linecap="round" stroke-linejoin="round" stroke-dasharray="4.08 4.08"/>
<path d="M379.398 202.861H363.398C358.998 202.861 355.398 199.11 355.398 194.526V177.855C355.398 173.27 358.998 169.52 363.398 169.52H379.398C383.798 169.52 387.398 173.27 387.398 177.855V194.526C387.398 199.11 383.798 202.861 379.398 202.861Z" stroke="#444E59" stroke-width="2" stroke-linecap="round" stroke-linejoin="round" stroke-dasharray="4.08 4.08"/>
<path d="M335.398 202.861H319.398C314.998 202.861 311.398 199.11 311.398 194.526V177.855C311.398 173.27 314.998 169.52 319.398 169.52H335.398C339.798 169.52 343.398 173.27 343.398 177.855V194.526C343.398 199.11 339.798 202.861 335.398 202.861Z" stroke="#444E59" stroke-width="2" stroke-linecap="round" stroke-linejoin="round" stroke-dasharray="4.08 4.08"/>
<path d="M290.898 152.849H274.898C270.498 152.849 266.898 149.098 266.898 144.514V127.843C266.898 123.259 270.498 119.508 274.898 119.508H290.898C295.298 119.508 298.898 123.259 298.898 127.843V144.514C298.898 149.098 295.298 152.849 290.898 152.849Z" stroke="#444E59" stroke-width="2" stroke-linecap="round" stroke-linejoin="round" stroke-dasharray="4.08 4.08"/>
<path d="M379.398 152.849H363.398C358.998 152.849 355.398 149.098 355.398 144.514V127.843C355.398 123.259 358.998 119.508 363.398 119.508H379.398C383.798 119.508 387.398 123.259 387.398 127.843V144.514C387.398 149.098 383.798 152.849 379.398 152.849Z" stroke="#444E59" stroke-width="2" stroke-linecap="round" stroke-linejoin="round" stroke-dasharray="4.08 4.08"/>
<path d="M335.398 152.849H319.398C314.998 152.849 311.398 149.098 311.398 144.514V127.843C311.398 123.259 314.998 119.508 319.398 119.508H335.398C339.798 119.508 343.398 123.259 343.398 127.843V144.514C343.398 149.098 339.798 152.849 335.398 152.849Z" stroke="#444E59" stroke-width="2" stroke-linecap="round" stroke-linejoin="round" stroke-dasharray="4.08 4.08"/>
<path d="M290.898 102.837H274.898C270.498 102.837 266.898 99.0865 266.898 94.5021V77.8314C266.898 73.247 270.498 69.4961 274.898 69.4961H290.898C295.298 69.4961 298.898 73.247 298.898 77.8314V94.5021C298.898 99.0865 295.298 102.837 290.898 102.837Z" stroke="#444E59" stroke-width="2" stroke-linecap="round" stroke-linejoin="round" stroke-dasharray="4.08 4.08"/>
<path d="M379.398 102.837H363.398C358.998 102.837 355.398 99.0865 355.398 94.5021V77.8314C355.398 73.247 358.998 69.4961 363.398 69.4961H379.398C383.798 69.4961 387.398 73.247 387.398 77.8314V94.5021C387.398 99.0865 383.798 102.837 379.398 102.837Z" stroke="#444E59" stroke-width="2" stroke-linecap="round" stroke-linejoin="round" stroke-dasharray="4.08 4.08"/>
<path d="M335.398 102.837H319.398C314.998 102.837 311.398 99.0865 311.398 94.5021V77.8314C311.398 73.247 314.998 69.4961 319.398 69.4961H335.398C339.798 69.4961 343.398 73.247 343.398 77.8314V94.5021C343.398 99.0865 339.798 102.837 335.398 102.837Z" stroke="#444E59" stroke-width="2" stroke-linecap="round" stroke-linejoin="round" stroke-dasharray="4.08 4.08"/>
</g>
<path d="M290.898 252.873H274.898C270.498 252.873 266.898 249.122 266.898 244.537V227.867C266.898 223.282 270.498 219.531 274.898 219.531H290.898C295.298 219.531 298.898 223.282 298.898 227.867V244.537C298.898 249.122 295.298 252.873 290.898 252.873Z" fill="#BDBDBD"/>
<path opacity="0.52" d="M290.899 219.531H274.899C271.699 219.531 268.899 221.511 267.699 224.324L298.899 230.159V227.867C298.899 223.282 295.299 219.531 290.899 219.531Z" fill="#F9F9F9"/>
<path d="M290.898 252.873H274.898C270.498 252.873 266.898 249.122 266.898 244.537V227.867C266.898 223.282 270.498 219.531 274.898 219.531H290.898C295.298 219.531 298.898 223.282 298.898 227.867V244.537C298.898 249.122 295.298 252.873 290.898 252.873Z" stroke="#444E59" stroke-width="4" stroke-miterlimit="10" stroke-linecap="round" stroke-linejoin="round"/>
<path d="M335.398 252.873H319.398C314.998 252.873 311.398 249.122 311.398 244.537V227.867C311.398 223.282 314.998 219.531 319.398 219.531H335.398C339.798 219.531 343.398 223.282 343.398 227.867V244.537C343.398 249.122 339.798 252.873 335.398 252.873Z" fill="#BDBDBD"/>
<path opacity="0.52" d="M335.399 219.531H319.399C316.199 219.531 313.399 221.511 312.199 224.324L343.399 230.159V227.867C343.399 223.282 339.799 219.531 335.399 219.531Z" fill="#F9F9F9"/>
<path d="M335.398 252.873H319.398C314.998 252.873 311.398 249.122 311.398 244.537V227.867C311.398 223.282 314.998 219.531 319.398 219.531H335.398C339.798 219.531 343.398 223.282 343.398 227.867V244.537C343.398 249.122 339.798 252.873 335.398 252.873Z" stroke="#444E59" stroke-width="4" stroke-miterlimit="10" stroke-linecap="round" stroke-linejoin="round"/>
<path d="M379.398 202.861H363.398C358.998 202.861 355.398 199.11 355.398 194.526V177.855C355.398 173.27 358.998 169.52 363.398 169.52H379.398C383.798 169.52 387.398 173.27 387.398 177.855V194.526C387.398 199.11 383.798 202.861 379.398 202.861Z" fill="#BDBDBD"/>
<path opacity="0.52" d="M379.399 169.52H363.399C360.199 169.52 357.399 171.499 356.199 174.312L387.399 180.147V177.855C387.399 173.27 383.799 169.52 379.399 169.52Z" fill="#F9F9F9"/>
<path d="M379.398 202.861H363.398C358.998 202.861 355.398 199.11 355.398 194.526V177.855C355.398 173.27 358.998 169.52 363.398 169.52H379.398C383.798 169.52 387.398 173.27 387.398 177.855V194.526C387.398 199.11 383.798 202.861 379.398 202.861Z" stroke="#444E59" stroke-width="4" stroke-miterlimit="10" stroke-linecap="round" stroke-linejoin="round"/>
<path d="M335.398 152.849H319.398C314.998 152.849 311.398 149.098 311.398 144.514V127.843C311.398 123.259 314.998 119.508 319.398 119.508H335.398C339.798 119.508 343.398 123.259 343.398 127.843V144.514C343.398 149.098 339.798 152.849 335.398 152.849Z" fill="#BDBDBD"/>
<path opacity="0.52" d="M335.399 119.508H319.399C316.199 119.508 313.399 121.487 312.199 124.301L343.399 130.135V127.843C343.399 123.259 339.799 119.508 335.399 119.508Z" fill="#F9F9F9"/>
<path d="M335.398 152.849H319.398C314.998 152.849 311.398 149.098 311.398 144.514V127.843C311.398 123.259 314.998 119.508 319.398 119.508H335.398C339.798 119.508 343.398 123.259 343.398 127.843V144.514C343.398 149.098 339.798 152.849 335.398 152.849Z" stroke="#444E59" stroke-width="4" stroke-miterlimit="10" stroke-linecap="round" stroke-linejoin="round"/>
<path d="M368.799 178.9L377.999 184.422C379.299 185.256 379.299 187.236 377.999 187.965L368.799 193.487C367.499 194.321 365.799 193.279 365.799 191.716V180.672C365.799 179.109 367.499 178.067 368.799 178.9Z" fill="white"/>
<path d="M331.6 229.742H323.2C321.4 229.742 320 231.305 320 233.076V239.536C320 241.412 321.5 242.87 323.2 242.87H323.5L322.8 245.788C322.7 245.996 323 246.204 323.2 245.996L327.5 242.87H331.8C333.6 242.87 335 241.307 335 239.536V233.076C334.9 231.201 333.4 229.742 331.6 229.742Z" fill="white"/>
<path d="M276.699 236.203L280.399 240.058C280.899 240.579 281.699 240.579 282.199 240.058L290.499 231.41" stroke="white" stroke-width="4" stroke-miterlimit="10" stroke-linecap="round" stroke-linejoin="round"/>
<path d="M327.398 143.992C331.541 143.992 334.898 140.493 334.898 136.178C334.898 131.862 331.541 128.363 327.398 128.363C323.256 128.363 319.898 131.862 319.898 136.178C319.898 140.493 323.256 143.992 327.398 143.992Z" stroke="white" stroke-width="4" stroke-miterlimit="10" stroke-linecap="round" stroke-linejoin="round"/>
<path d="M267 95.5471L266.8 79.9184L256.8 80.0226C256.2 78.0429 255.5 76.2717 254.5 74.5004L261.5 66.9986L250.8 56.0585L243.8 63.5603C242.1 62.6226 240.3 61.8932 238.4 61.3723L238.3 50.9531L223.3 51.1615L223.4 61.5807C221.5 62.2058 219.8 62.9352 218.1 63.9771L210.9 56.6837L200.4 67.8321L207.6 75.1256C206.7 76.8968 206 78.7723 205.5 80.7519L195.5 80.8561L195.7 96.4848L205.7 96.3807C206.3 98.3603 207 100.132 208 101.903L201 109.405L211.7 120.345L218.7 112.843C220.4 113.781 222.2 114.51 224.1 115.031L224.2 125.45L239.2 125.242L239.1 114.823C241 114.197 242.7 113.468 244.4 112.426L251.6 119.72L262.1 108.571L254.9 101.278C255.8 99.5064 256.5 97.631 257 95.6513L267 95.5471ZM231.5 100.34C225 100.444 219.8 95.0262 219.7 88.2537C219.6 81.4813 224.8 76.0633 231.3 75.9591C237.8 75.8549 243 81.2729 243.1 88.0453C243.1 94.8178 237.9 100.236 231.5 100.34Z" fill="white"/>
<path d="M267 95.5471L266.8 79.9184L256.8 80.0226C256.2 78.0429 255.5 76.2717 254.5 74.5004L261.5 66.9986L250.8 56.0585L243.8 63.5603C242.1 62.6226 240.3 61.8932 238.4 61.3723L238.3 50.9531L223.3 51.1615L223.4 61.5807C221.5 62.2058 219.8 62.9352 218.1 63.9771L210.9 56.6837L200.4 67.8321L207.6 75.1256C206.7 76.8968 206 78.7723 205.5 80.7519L195.5 80.8561L195.7 96.4848L205.7 96.3807C206.3 98.3603 207 100.132 208 101.903L201 109.405L211.7 120.345L218.7 112.843C220.4 113.781 222.2 114.51 224.1 115.031L224.2 125.45L239.2 125.242L239.1 114.823C241 114.197 242.7 113.468 244.4 112.426L251.6 119.72L262.1 108.571L254.9 101.278C255.8 99.5064 256.5 97.631 257 95.6513L267 95.5471ZM231.5 100.34C225 100.444 219.8 95.0262 219.7 88.2537C219.6 81.4813 224.8 76.0633 231.3 75.9591C237.8 75.8549 243 81.2729 243.1 88.0453C243.1 94.8178 237.9 100.236 231.5 100.34Z" fill="#F09F54"/>
<path d="M267 95.5471L266.8 79.9184L256.8 80.0226C256.2 78.0429 255.5 76.2717 254.5 74.5004L261.5 66.9986L250.8 56.0585L243.8 63.5603C242.1 62.6226 240.3 61.8932 238.4 61.3723L238.3 50.9531L223.3 51.1615L223.4 61.5807C221.5 62.2058 219.8 62.9352 218.1 63.9771L210.9 56.6837L200.4 67.8321L207.6 75.1256C206.7 76.8968 206 78.7723 205.5 80.7519L195.5 80.8561L195.7 96.4848L205.7 96.3807C206.3 98.3603 207 100.132 208 101.903L201 109.405L211.7 120.345L218.7 112.843C220.4 113.781 222.2 114.51 224.1 115.031L224.2 125.45L239.2 125.242L239.1 114.823C241 114.197 242.7 113.468 244.4 112.426L251.6 119.72L262.1 108.571L254.9 101.278C255.8 99.5064 256.5 97.631 257 95.6513L267 95.5471ZM231.5 100.34C225 100.444 219.8 95.0262 219.7 88.2537C219.6 81.4813 224.8 76.0633 231.3 75.9591C237.8 75.8549 243 81.2729 243.1 88.0453C243.1 94.8178 237.9 100.236 231.5 100.34Z" fill="#F9F9F9"/>
<g opacity="0.29">
<path d="M263.199 80.0183C263.199 80.0183 263.199 80.1225 263.199 80.0183H266.899V79.9141L263.199 80.0183Z" fill="#F09F54"/>
<path d="M250.199 63.6658L254.099 59.4982L250.899 56.1641L245.699 61.6862C247.299 62.2072 248.799 62.8323 250.199 63.6658Z" fill="#F09F54"/>
<path d="M237.5 75.9609C236.4 75.9609 235.4 76.1693 234.5 76.3777C239.4 77.8364 243 82.4208 243 87.943C243.1 93.5693 239.4 98.3621 234.5 99.8208C235.5 100.133 236.7 100.342 237.8 100.238C244.3 100.133 249.4 94.6112 249.4 87.943C249.4 81.2747 244 75.9609 237.5 75.9609Z" fill="#2B2B2B"/>
<path d="M222.6 61.892L224.6 63.8716C226.3 62.9339 228 62.1004 229.9 61.4752L229.8 51.0561L238.4 50.9519V50.8477L223.4 51.0561L223.5 61.4752C223.3 61.6836 222.9 61.7878 222.6 61.892Z" fill="#2B2B2B"/>
<path d="M230.399 114.922C228.499 114.401 226.699 113.672 224.999 112.734L223.199 114.714C223.499 114.818 223.799 114.922 224.099 115.027L224.199 125.446L230.499 125.342L230.399 114.922Z" fill="#2B2B2B"/>
<path d="M201.999 80.7506L211.999 80.6464C212.499 78.6668 213.199 76.7913 214.099 75.0201L206.899 67.7266L214.299 59.9123L211.099 56.5781L200.599 67.7266L207.799 75.0201C206.899 76.7913 206.199 78.6668 205.699 80.6464L195.699 80.7506L195.899 96.3793L202.199 96.2751L201.999 80.7506Z" fill="#2B2B2B"/>
<path d="M250.7 112.426C249.3 113.259 247.9 113.884 246.4 114.405L251.6 119.719L254.7 116.385L250.7 112.426Z" fill="#F09F54"/>
<path d="M207.4 109.196L214.4 101.694C213.5 99.9228 212.7 98.1515 212.1 96.1719L205.8 96.2761C206.4 98.1515 207.1 100.027 208 101.694L201 109.196L211.7 120.136L214.8 116.802L207.4 109.196Z" fill="#2B2B2B"/>
</g>
<path d="M267 95.5471L266.8 79.9184L256.8 80.0226C256.2 78.0429 255.5 76.2717 254.5 74.5004L261.5 66.9986L250.8 56.0585L243.8 63.5603C242.1 62.6226 240.3 61.8932 238.4 61.3723L238.3 50.9531L223.3 51.1615L223.4 61.5807C221.5 62.2058 219.8 62.9352 218.1 63.9771L210.9 56.6837L200.4 67.8321L207.6 75.1256C206.7 76.8968 206 78.7723 205.5 80.7519L195.5 80.8561L195.7 96.4848L205.7 96.3807C206.3 98.3603 207 100.132 208 101.903L201 109.405L211.7 120.345L218.7 112.843C220.4 113.781 222.2 114.51 224.1 115.031L224.2 125.45L239.2 125.242L239.1 114.823C241 114.197 242.7 113.468 244.4 112.426L251.6 119.72L262.1 108.571L254.9 101.278C255.8 99.5064 256.5 97.631 257 95.6513L267 95.5471ZM231.5 100.34C225 100.444 219.8 95.0262 219.7 88.2537C219.6 81.4813 224.8 76.0633 231.3 75.9591C237.8 75.8549 243 81.2729 243.1 88.0453C243.1 94.8178 237.9 100.236 231.5 100.34Z" stroke="#444E59" stroke-width="4" stroke-miterlimit="10" stroke-linecap="round" stroke-linejoin="round"/>
<path d="M204.498 320.914H80.7984C76.6984 320.914 73.3984 317.476 73.3984 313.204V225.058C73.3984 220.786 76.6984 217.348 80.7984 217.348H204.598C208.698 217.348 211.998 220.786 211.998 225.058V313.204C211.898 317.476 208.598 320.914 204.498 320.914Z" fill="#2B2B2B"/>
<path d="M211.898 234.123H73.3984V225.058C73.3984 220.786 76.6984 217.348 80.7984 217.348H204.598C208.698 217.348 211.998 220.786 211.998 225.058V234.123H211.898Z" fill="#BCBCBC"/>
<path d="M204.498 320.914H80.7984C76.6984 320.914 73.3984 317.476 73.3984 313.204V225.058C73.3984 220.786 76.6984 217.348 80.7984 217.348H204.598C208.698 217.348 211.998 220.786 211.998 225.058V313.204C211.898 317.476 208.598 320.914 204.498 320.914Z" stroke="#444E59" stroke-width="4" stroke-miterlimit="10" stroke-linecap="round" stroke-linejoin="round"/>
<path d="M204.498 320.914H80.7984C76.6984 320.914 73.3984 317.476 73.3984 313.204V225.058C73.3984 220.786 76.6984 217.348 80.7984 217.348H204.598C208.698 217.348 211.998 220.786 211.998 225.058V313.204C211.898 317.476 208.598 320.914 204.498 320.914Z" stroke="#444E59" stroke-width="4" stroke-miterlimit="10" stroke-linecap="round" stroke-linejoin="round"/>
<path d="M211.898 234.123H73.3984V225.058C73.3984 220.786 76.6984 217.348 80.7984 217.348H204.598C208.698 217.348 211.998 220.786 211.998 225.058V234.123H211.898Z" stroke="#444E59" stroke-width="4" stroke-miterlimit="10" stroke-linecap="round" stroke-linejoin="round"/>
<path d="M92.498 307.68H108.098" stroke="white" stroke-width="4" stroke-miterlimit="10" stroke-linecap="round" stroke-linejoin="round"/>
<path d="M81.498 307.68H82.5981" stroke="white" stroke-width="4" stroke-miterlimit="10" stroke-linecap="round" stroke-linejoin="round"/>
<path d="M92.498 298.723H131.998" stroke="white" stroke-width="4" stroke-miterlimit="10" stroke-linecap="round" stroke-linejoin="round"/>
<path d="M81.498 298.723H82.5981" stroke="white" stroke-width="4" stroke-miterlimit="10" stroke-linecap="round" stroke-linejoin="round"/>
<path d="M150.799 289.66H161.599" stroke="#FEFEFE" stroke-width="4" stroke-miterlimit="10" stroke-linecap="round" stroke-linejoin="round"/>
<path d="M121.398 289.66H141.398" stroke="white" stroke-width="4" stroke-miterlimit="10" stroke-linecap="round" stroke-linejoin="round"/>
<path d="M92.498 289.66H112.298" stroke="white" stroke-width="4" stroke-miterlimit="10" stroke-linecap="round" stroke-linejoin="round"/>
<path d="M81.498 289.66H82.5981" stroke="white" stroke-width="4" stroke-miterlimit="10" stroke-linecap="round" stroke-linejoin="round"/>
<path d="M125.799 280.695H173.999" stroke="white" stroke-width="4" stroke-miterlimit="10" stroke-linecap="round" stroke-linejoin="round"/>
<path d="M92.498 280.695H117.698" stroke="#FEFEFE" stroke-width="4" stroke-miterlimit="10" stroke-linecap="round" stroke-linejoin="round"/>
<path d="M81.498 280.695H82.5981" stroke="white" stroke-width="4" stroke-miterlimit="10" stroke-linecap="round" stroke-linejoin="round"/>
<path d="M125.799 271.734H143.799" stroke="white" stroke-width="4" stroke-miterlimit="10" stroke-linecap="round" stroke-linejoin="round"/>
<path d="M92.498 271.734H117.698" stroke="#FEFEFE" stroke-width="4" stroke-miterlimit="10" stroke-linecap="round" stroke-linejoin="round"/>
<path d="M81.498 271.734H82.5981" stroke="white" stroke-width="4" stroke-miterlimit="10" stroke-linecap="round" stroke-linejoin="round"/>
<path d="M129.299 262.777H134.199" stroke="#FEFEFE" stroke-width="4" stroke-miterlimit="10" stroke-linecap="round" stroke-linejoin="round"/>
<path d="M110.299 262.777H121.399" stroke="white" stroke-width="4" stroke-miterlimit="10" stroke-linecap="round" stroke-linejoin="round"/>
<path d="M92.498 262.777H101.698" stroke="#FEFEFE" stroke-width="4" stroke-miterlimit="10" stroke-linecap="round" stroke-linejoin="round"/>
<path d="M81.498 262.777H82.5981" stroke="white" stroke-width="4" stroke-miterlimit="10" stroke-linecap="round" stroke-linejoin="round"/>
<path d="M165.299 253.711H173.999" stroke="#FEFEFE" stroke-width="4" stroke-miterlimit="10" stroke-linecap="round" stroke-linejoin="round"/>
<path d="M120.197 253.711H154.297" stroke="white" stroke-width="4" stroke-miterlimit="10" stroke-linecap="round" stroke-linejoin="round"/>
<path d="M92.498 253.711H112.798" stroke="#FEFEFE" stroke-width="4" stroke-miterlimit="10" stroke-linecap="round" stroke-linejoin="round"/>
<path d="M81.498 253.711H82.5981" stroke="white" stroke-width="4" stroke-miterlimit="10" stroke-linecap="round" stroke-linejoin="round"/>
<path d="M143.799 244.75H161.599" stroke="#FEFEFE" stroke-width="4" stroke-miterlimit="10" stroke-linecap="round" stroke-linejoin="round"/>
<path d="M121.398 244.75H135.198" stroke="white" stroke-width="4" stroke-miterlimit="10" stroke-linecap="round" stroke-linejoin="round"/>
<path d="M106.398 244.75H114.198" stroke="#FEFEFE" stroke-width="4" stroke-miterlimit="10" stroke-linecap="round" stroke-linejoin="round"/>
<path d="M92.498 244.75H98.898" stroke="white" stroke-width="4" stroke-miterlimit="10" stroke-linecap="round" stroke-linejoin="round"/>
<path d="M81.498 244.75H82.5981" stroke="white" stroke-width="4" stroke-miterlimit="10" stroke-linecap="round" stroke-linejoin="round"/>
<path d="M87.0977 228.393C88.4784 228.393 89.5977 227.227 89.5977 225.788C89.5977 224.35 88.4784 223.184 87.0977 223.184C85.7169 223.184 84.5977 224.35 84.5977 225.788C84.5977 227.227 85.7169 228.393 87.0977 228.393Z" fill="#444E59"/>
<path d="M96.0977 228.393C97.4784 228.393 98.5977 227.227 98.5977 225.788C98.5977 224.35 97.4784 223.184 96.0977 223.184C94.7169 223.184 93.5977 224.35 93.5977 225.788C93.5977 227.227 94.7169 228.393 96.0977 228.393Z" fill="#444E59"/>
<path d="M105.197 228.393C106.578 228.393 107.697 227.227 107.697 225.788C107.697 224.35 106.578 223.184 105.197 223.184C103.817 223.184 102.697 224.35 102.697 225.788C102.697 227.227 103.817 228.393 105.197 228.393Z" fill="#444E59"/>
<path d="M253.799 243.29H164.199C159.799 243.29 156.199 239.539 156.199 234.954V150.663C156.199 146.079 159.799 142.328 164.199 142.328H253.799C258.199 142.328 261.799 146.079 261.799 150.663V234.954C261.799 239.539 258.199 243.29 253.799 243.29Z" fill="white"/>
<path d="M253.799 243.29H164.199C159.799 243.29 156.199 239.539 156.199 234.954V150.663C156.199 146.079 159.799 142.328 164.199 142.328H253.799C258.199 142.328 261.799 146.079 261.799 150.663V234.954C261.799 239.539 258.199 243.29 253.799 243.29Z" fill="white"/>
<path d="M253.799 243.29H164.199C159.799 243.29 156.199 239.539 156.199 234.954V150.663C156.199 146.079 159.799 142.328 164.199 142.328H253.799C258.199 142.328 261.799 146.079 261.799 150.663V234.954C261.799 239.539 258.199 243.29 253.799 243.29Z" stroke="#2B2B2B" stroke-width="4" stroke-miterlimit="10" stroke-linecap="round" stroke-linejoin="round"/>
<path d="M252.099 150.871H165.299V210.99H252.099V150.871Z" fill="#F9F9F9"/>
<path d="M252.099 150.871H165.299V210.99H252.099V150.871Z" stroke="#2B2B2B" stroke-width="4" stroke-miterlimit="10" stroke-linecap="round" stroke-linejoin="round"/>
<path d="M165.299 220.574H220.099" stroke="#2B2B2B" stroke-width="4" stroke-miterlimit="10" stroke-linecap="round" stroke-linejoin="round"/>
<path d="M165.299 230.16H197.699" stroke="#2B2B2B" stroke-width="4" stroke-miterlimit="10" stroke-linecap="round" stroke-linejoin="round"/>
<path d="M174 200.256L192.7 180.98L210.1 199.11" stroke="#2B2B2B" stroke-width="4" stroke-miterlimit="10" stroke-linecap="round" stroke-linejoin="round"/>
<path d="M242.7 200.256L220.1 169.52L202 190.566" stroke="#2B2B2B" stroke-width="4" stroke-miterlimit="10" stroke-linecap="round" stroke-linejoin="round"/>
<path d="M242.5 230.055C245.206 230.055 247.4 227.769 247.4 224.949C247.4 222.129 245.206 219.844 242.5 219.844C239.793 219.844 237.6 222.129 237.6 224.949C237.6 227.769 239.793 230.055 242.5 230.055Z" stroke="#444E59" stroke-width="4" stroke-miterlimit="10" stroke-linecap="round" stroke-linejoin="round"/>
<path d="M198.2 175.978C201.624 175.978 204.4 173.086 204.4 169.518C204.4 165.951 201.624 163.059 198.2 163.059C194.776 163.059 192 165.951 192 169.518C192 173.086 194.776 175.978 198.2 175.978Z" fill="#BDBDBD"/>
<path d="M198.2 175.978C201.624 175.978 204.4 173.086 204.4 169.518C204.4 165.951 201.624 163.059 198.2 163.059C194.776 163.059 192 165.951 192 169.518C192 173.086 194.776 175.978 198.2 175.978Z" stroke="#444E59" stroke-width="4" stroke-miterlimit="10" stroke-linecap="round" stroke-linejoin="round"/>
<path d="M154.5 112.629H181.3" stroke="#444E59" stroke-width="4" stroke-miterlimit="10" stroke-linecap="round" stroke-linejoin="round"/>
<path d="M140.199 112.629H147.299" stroke="#444E59" stroke-width="4" stroke-miterlimit="10" stroke-linecap="round" stroke-linejoin="round"/>
<path d="M167.898 99.7109H181.298" stroke="#444E59" stroke-width="4" stroke-miterlimit="10" stroke-linecap="round" stroke-linejoin="round"/>
<path d="M157.1 99.7109H161.1" stroke="#444E59" stroke-width="4" stroke-miterlimit="10" stroke-linecap="round" stroke-linejoin="round"/>
<path d="M125.498 194.316H146.398" stroke="#444E59" stroke-width="4" stroke-miterlimit="10" stroke-linecap="round" stroke-linejoin="round"/>
<path d="M114.398 194.316H119.898" stroke="#444E59" stroke-width="4" stroke-miterlimit="10" stroke-linecap="round" stroke-linejoin="round"/>
<path d="M137.898 181.398H146.398" stroke="#444E59" stroke-width="4" stroke-miterlimit="10" stroke-linecap="round" stroke-linejoin="round"/>
<path d="M127.498 181.398H130.698" stroke="#444E59" stroke-width="4" stroke-miterlimit="10" stroke-linecap="round" stroke-linejoin="round"/>
<path d="M458.799 43.1328H478.599" stroke="#444E59" stroke-width="4" stroke-miterlimit="10" stroke-linecap="round" stroke-linejoin="round"/>
<path d="M446.6 43.1328H452.2" stroke="#444E59" stroke-width="4" stroke-miterlimit="10" stroke-linecap="round" stroke-linejoin="round"/>
<path d="M470.1 30.2148H478.6" stroke="#444E59" stroke-width="4" stroke-miterlimit="10" stroke-linecap="round" stroke-linejoin="round"/>
<path d="M459.799 30.2148H462.899" stroke="#444E59" stroke-width="4" stroke-miterlimit="10" stroke-linecap="round" stroke-linejoin="round"/>
<path d="M474.198 115.964H395.998C391.198 115.964 387.398 111.901 387.398 107.004V67.5152C387.398 62.514 391.298 58.5547 395.998 58.5547H474.198C478.998 58.5547 482.798 62.6182 482.798 67.5152V106.9C482.798 111.901 478.998 115.964 474.198 115.964Z" fill="#F9F9F9"/>
<path d="M474.198 115.964H395.998C391.198 115.964 387.398 111.901 387.398 107.004V67.5152C387.398 62.514 391.298 58.5547 395.998 58.5547H474.198C478.998 58.5547 482.798 62.6182 482.798 67.5152V106.9C482.798 111.901 478.998 115.964 474.198 115.964Z" stroke="#444E59" stroke-width="3" stroke-miterlimit="10" stroke-linecap="round" stroke-linejoin="round"/>
<path d="M435.1 73.9766H468.9" stroke="#2B2B2B" stroke-width="3" stroke-miterlimit="10" stroke-linecap="round" stroke-linejoin="round"/>
<path d="M435.1 85.332H457.5" stroke="#2B2B2B" stroke-width="3" stroke-miterlimit="10" stroke-linecap="round" stroke-linejoin="round"/>
<path d="M435.1 96.793H449.5" stroke="#2B2B2B" stroke-width="3" stroke-miterlimit="10" stroke-linecap="round" stroke-linejoin="round"/>
<path d="M421 102.838H403.1C400.5 102.838 398.5 100.65 398.5 98.0454V76.2694C398.5 73.5604 400.6 71.4766 403.1 71.4766H421C423.6 71.4766 425.6 73.6646 425.6 76.2694V98.0454C425.6 100.65 423.6 102.838 421 102.838Z" stroke="#2B2B2B" stroke-width="3" stroke-miterlimit="10" stroke-linecap="round" stroke-linejoin="round"/>
<path d="M412.101 88.5649C414.752 88.5649 416.901 86.3258 416.901 83.5637C416.901 80.8016 414.752 78.5625 412.101 78.5625C409.45 78.5625 407.301 80.8016 407.301 83.5637C407.301 86.3258 409.45 88.5649 412.101 88.5649Z" stroke="#2B2B2B" stroke-width="3" stroke-miterlimit="10" stroke-linecap="round" stroke-linejoin="round"/>
<path d="M403 102.317C403 97.1078 407.1 92.8359 412.1 92.8359C417.1 92.8359 421.2 97.1078 421.2 102.317" stroke="#2B2B2B" stroke-width="3" stroke-miterlimit="10" stroke-linecap="round" stroke-linejoin="round"/>
<path d="M72.24 523C71.9413 523 71.68 522.888 71.456 522.664C71.232 522.44 71.12 522.179 71.12 521.88C71.12 521.693 71.1387 521.488 71.176 521.264L85.064 485.032C85.2133 484.659 85.4187 484.36 85.68 484.136C85.9413 483.912 86.3333 483.8 86.856 483.8H90.664C91.1493 483.8 91.5227 483.912 91.784 484.136C92.0827 484.36 92.3067 484.659 92.456 485.032L106.288 521.264C106.363 521.488 106.4 521.693 106.4 521.88C106.4 522.179 106.288 522.44 106.064 522.664C105.84 522.888 105.579 523 105.28 523H102.424C101.976 523 101.64 522.888 101.416 522.664C101.229 522.44 101.099 522.235 101.024 522.048L97.944 514.096H79.576L76.496 522.048C76.4587 522.235 76.328 522.44 76.104 522.664C75.88 522.888 75.544 523 75.096 523H72.24ZM81.2 509.28H96.32L88.76 489.4L81.2 509.28ZM113.676 523C113.265 523 112.948 522.888 112.724 522.664C112.5 522.403 112.388 522.085 112.388 521.712V485.144C112.388 484.733 112.5 484.416 112.724 484.192C112.948 483.931 113.265 483.8 113.676 483.8H127.9C130.662 483.8 133.052 484.248 135.068 485.144C137.121 486.04 138.708 487.384 139.828 489.176C140.948 490.931 141.508 493.133 141.508 495.784C141.508 498.435 140.948 500.637 139.828 502.392C138.708 504.147 137.121 505.472 135.068 506.368C133.052 507.264 130.662 507.712 127.9 507.712H117.988V521.712C117.988 522.085 117.857 522.403 117.596 522.664C117.372 522.888 117.054 523 116.644 523H113.676ZM117.932 503.008H127.62C130.382 503.008 132.454 502.392 133.836 501.16C135.217 499.928 135.908 498.136 135.908 495.784C135.908 493.469 135.236 491.677 133.892 490.408C132.548 489.139 130.457 488.504 127.62 488.504H117.932V503.008ZM149.605 523C149.195 523 148.877 522.888 148.653 522.664C148.429 522.403 148.317 522.085 148.317 521.712V485.144C148.317 484.733 148.429 484.416 148.653 484.192C148.877 483.931 149.195 483.8 149.605 483.8H163.829C166.592 483.8 168.981 484.248 170.997 485.144C173.051 486.04 174.637 487.384 175.757 489.176C176.877 490.931 177.437 493.133 177.437 495.784C177.437 498.435 176.877 500.637 175.757 502.392C174.637 504.147 173.051 505.472 170.997 506.368C168.981 507.264 166.592 507.712 163.829 507.712H153.917V521.712C153.917 522.085 153.787 522.403 153.525 522.664C153.301 522.888 152.984 523 152.573 523H149.605ZM153.861 503.008H163.549C166.312 503.008 168.384 502.392 169.765 501.16C171.147 499.928 171.837 498.136 171.837 495.784C171.837 493.469 171.165 491.677 169.821 490.408C168.477 489.139 166.387 488.504 163.549 488.504H153.861V503.008ZM198.004 523C197.593 523 197.276 522.888 197.052 522.664C196.828 522.403 196.716 522.085 196.716 521.712V485.144C196.716 484.733 196.828 484.416 197.052 484.192C197.276 483.931 197.593 483.8 198.004 483.8H210.716C214.561 483.8 217.66 484.379 220.012 485.536C222.364 486.693 224.081 488.411 225.164 490.688C226.246 492.928 226.806 495.691 226.844 498.976C226.881 500.656 226.9 502.131 226.9 503.4C226.9 504.669 226.881 506.125 226.844 507.768C226.769 511.203 226.19 514.059 225.108 516.336C224.062 518.576 222.382 520.256 220.068 521.376C217.79 522.459 214.766 523 210.996 523H198.004ZM202.204 518.24H210.716C213.292 518.24 215.345 517.885 216.876 517.176C218.406 516.467 219.508 515.328 220.18 513.76C220.889 512.192 221.262 510.12 221.3 507.544C221.374 506.424 221.412 505.453 221.412 504.632C221.412 503.773 221.412 502.933 221.412 502.112C221.412 501.253 221.374 500.283 221.3 499.2C221.225 495.579 220.366 492.909 218.724 491.192C217.081 489.437 214.318 488.56 210.436 488.56H202.204V518.24ZM236.613 523C236.202 523 235.885 522.888 235.661 522.664C235.437 522.403 235.325 522.085 235.325 521.712V485.144C235.325 484.733 235.437 484.416 235.661 484.192C235.885 483.931 236.202 483.8 236.613 483.8H259.741C260.152 483.8 260.469 483.931 260.693 484.192C260.917 484.416 261.029 484.733 261.029 485.144V487.272C261.029 487.683 260.917 488 260.693 488.224C260.469 488.448 260.152 488.56 259.741 488.56H240.701V500.824H258.509C258.92 500.824 259.237 500.955 259.461 501.216C259.685 501.44 259.797 501.757 259.797 502.168V504.24C259.797 504.613 259.685 504.931 259.461 505.192C259.237 505.416 258.92 505.528 258.509 505.528H240.701V518.24H260.189C260.6 518.24 260.917 518.352 261.141 518.576C261.365 518.8 261.477 519.117 261.477 519.528V521.712C261.477 522.085 261.365 522.403 261.141 522.664C260.917 522.888 260.6 523 260.189 523H236.613ZM280.497 523C279.937 523 279.489 522.869 279.153 522.608C278.854 522.347 278.611 521.992 278.425 521.544L265.937 485.536C265.862 485.312 265.825 485.107 265.825 484.92C265.825 484.621 265.937 484.36 266.161 484.136C266.385 483.912 266.646 483.8 266.945 483.8H269.857C270.305 483.8 270.641 483.931 270.865 484.192C271.126 484.416 271.275 484.621 271.313 484.808L282.289 516.56L293.265 484.808C293.339 484.621 293.489 484.416 293.713 484.192C293.937 483.931 294.273 483.8 294.721 483.8H297.633C297.931 483.8 298.193 483.912 298.417 484.136C298.678 484.36 298.809 484.621 298.809 484.92C298.809 485.107 298.771 485.312 298.697 485.536L286.153 521.544C286.003 521.992 285.761 522.347 285.425 522.608C285.126 522.869 284.697 523 284.137 523H280.497ZM306.777 523C306.367 523 306.049 522.888 305.825 522.664C305.601 522.403 305.489 522.085 305.489 521.712V485.144C305.489 484.733 305.601 484.416 305.825 484.192C306.049 483.931 306.367 483.8 306.777 483.8H329.905C330.316 483.8 330.633 483.931 330.857 484.192C331.081 484.416 331.193 484.733 331.193 485.144V487.272C331.193 487.683 331.081 488 330.857 488.224C330.633 488.448 330.316 488.56 329.905 488.56H310.865V500.824H328.673C329.084 500.824 329.401 500.955 329.625 501.216C329.849 501.44 329.961 501.757 329.961 502.168V504.24C329.961 504.613 329.849 504.931 329.625 505.192C329.401 505.416 329.084 505.528 328.673 505.528H310.865V518.24H330.353C330.764 518.24 331.081 518.352 331.305 518.576C331.529 518.8 331.641 519.117 331.641 519.528V521.712C331.641 522.085 331.529 522.403 331.305 522.664C331.081 522.888 330.764 523 330.353 523H306.777ZM340.738 523C340.327 523 340.01 522.888 339.786 522.664C339.562 522.403 339.45 522.085 339.45 521.712V485.088C339.45 484.715 339.562 484.416 339.786 484.192C340.01 483.931 340.327 483.8 340.738 483.8H343.706C344.079 483.8 344.378 483.931 344.602 484.192C344.826 484.416 344.938 484.715 344.938 485.088V518.128H363.586C363.997 518.128 364.314 518.259 364.538 518.52C364.762 518.744 364.874 519.061 364.874 519.472V521.712C364.874 522.085 364.762 522.403 364.538 522.664C364.314 522.888 363.997 523 363.586 523H340.738ZM384.514 523.56C381.341 523.56 378.615 523.019 376.338 521.936C374.061 520.816 372.306 519.117 371.074 516.84C369.842 514.525 369.151 511.632 369.002 508.16C368.965 506.517 368.946 504.949 368.946 503.456C368.946 501.925 368.965 500.339 369.002 498.696C369.151 495.261 369.861 492.405 371.13 490.128C372.437 487.813 374.229 486.096 376.506 484.976C378.821 483.819 381.49 483.24 384.514 483.24C387.575 483.24 390.245 483.819 392.522 484.976C394.837 486.096 396.647 487.813 397.954 490.128C399.261 492.405 399.97 495.261 400.082 498.696C400.157 500.339 400.194 501.925 400.194 503.456C400.194 504.949 400.157 506.517 400.082 508.16C399.97 511.632 399.279 514.525 398.01 516.84C396.778 519.117 395.023 520.816 392.746 521.936C390.469 523.019 387.725 523.56 384.514 523.56ZM384.514 518.8C387.389 518.8 389.722 517.941 391.514 516.224C393.343 514.507 394.333 511.725 394.482 507.88C394.557 506.2 394.594 504.707 394.594 503.4C394.594 502.056 394.557 500.563 394.482 498.92C394.407 496.344 393.922 494.253 393.026 492.648C392.167 491.043 391.01 489.867 389.554 489.12C388.098 488.373 386.418 488 384.514 488C382.685 488 381.042 488.373 379.586 489.12C378.13 489.867 376.954 491.043 376.058 492.648C375.199 494.253 374.714 496.344 374.602 498.92C374.565 500.563 374.546 502.056 374.546 503.4C374.546 504.707 374.565 506.2 374.602 507.88C374.751 511.725 375.741 514.507 377.57 516.224C379.399 517.941 381.714 518.8 384.514 518.8ZM409.644 523C409.234 523 408.916 522.888 408.692 522.664C408.468 522.403 408.356 522.085 408.356 521.712V485.144C408.356 484.733 408.468 484.416 408.692 484.192C408.916 483.931 409.234 483.8 409.644 483.8H423.868C426.631 483.8 429.02 484.248 431.036 485.144C433.09 486.04 434.676 487.384 435.796 489.176C436.916 490.931 437.476 493.133 437.476 495.784C437.476 498.435 436.916 500.637 435.796 502.392C434.676 504.147 433.09 505.472 431.036 506.368C429.02 507.264 426.631 507.712 423.868 507.712H413.956V521.712C413.956 522.085 413.826 522.403 413.564 522.664C413.34 522.888 413.023 523 412.612 523H409.644ZM413.9 503.008H423.588C426.351 503.008 428.423 502.392 429.804 501.16C431.186 499.928 431.876 498.136 431.876 495.784C431.876 493.469 431.204 491.677 429.86 490.408C428.516 489.139 426.426 488.504 423.588 488.504H413.9V503.008ZM445.574 523C445.163 523 444.846 522.888 444.622 522.664C444.398 522.403 444.286 522.085 444.286 521.712V485.144C444.286 484.733 444.398 484.416 444.622 484.192C444.846 483.931 445.163 483.8 445.574 483.8H468.702C469.113 483.8 469.43 483.931 469.654 484.192C469.878 484.416 469.99 484.733 469.99 485.144V487.272C469.99 487.683 469.878 488 469.654 488.224C469.43 488.448 469.113 488.56 468.702 488.56H449.662V500.824H467.47C467.881 500.824 468.198 500.955 468.422 501.216C468.646 501.44 468.758 501.757 468.758 502.168V504.24C468.758 504.613 468.646 504.931 468.422 505.192C468.198 505.416 467.881 505.528 467.47 505.528H449.662V518.24H469.15C469.561 518.24 469.878 518.352 470.102 518.576C470.326 518.8 470.438 519.117 470.438 519.528V521.712C470.438 522.085 470.326 522.403 470.102 522.664C469.878 522.888 469.561 523 469.15 523H445.574ZM479.535 523C479.162 523 478.844 522.888 478.583 522.664C478.359 522.403 478.247 522.085 478.247 521.712V485.144C478.247 484.733 478.359 484.416 478.583 484.192C478.844 483.931 479.162 483.8 479.535 483.8H482.335C482.783 483.8 483.119 483.912 483.343 484.136C483.567 484.36 483.698 484.547 483.735 484.696L495.607 507.32L507.535 484.696C507.61 484.547 507.74 484.36 507.927 484.136C508.151 483.912 508.487 483.8 508.935 483.8H511.679C512.09 483.8 512.407 483.931 512.631 484.192C512.892 484.416 513.023 484.733 513.023 485.144V521.712C513.023 522.085 512.892 522.403 512.631 522.664C512.407 522.888 512.09 523 511.679 523H508.935C508.562 523 508.244 522.888 507.983 522.664C507.759 522.403 507.647 522.085 507.647 521.712V494.16L498.295 512.416C498.146 512.789 497.922 513.088 497.623 513.312C497.324 513.499 496.951 513.592 496.503 513.592H494.767C494.282 513.592 493.89 513.499 493.591 513.312C493.33 513.088 493.106 512.789 492.919 512.416L483.567 494.16V521.712C483.567 522.085 483.436 522.403 483.175 522.664C482.951 522.888 482.652 523 482.279 523H479.535ZM523.996 523C523.585 523 523.268 522.888 523.044 522.664C522.82 522.403 522.708 522.085 522.708 521.712V485.144C522.708 484.733 522.82 484.416 523.044 484.192C523.268 483.931 523.585 483.8 523.996 483.8H547.124C547.535 483.8 547.852 483.931 548.076 484.192C548.3 484.416 548.412 484.733 548.412 485.144V487.272C548.412 487.683 548.3 488 548.076 488.224C547.852 488.448 547.535 488.56 547.124 488.56H528.084V500.824H545.892C546.303 500.824 546.62 500.955 546.844 501.216C547.068 501.44 547.18 501.757 547.18 502.168V504.24C547.18 504.613 547.068 504.931 546.844 505.192C546.62 505.416 546.303 505.528 545.892 505.528H528.084V518.24H547.572C547.983 518.24 548.3 518.352 548.524 518.576C548.748 518.8 548.86 519.117 548.86 519.528V521.712C548.86 522.085 548.748 522.403 548.524 522.664C548.3 522.888 547.983 523 547.572 523H523.996ZM557.957 523C557.546 523 557.229 522.888 557.005 522.664C556.781 522.403 556.669 522.085 556.669 521.712V485.144C556.669 484.733 556.781 484.416 557.005 484.192C557.229 483.931 557.546 483.8 557.957 483.8H560.533C560.981 483.8 561.317 483.912 561.541 484.136C561.765 484.323 561.896 484.472 561.933 484.584L580.525 513.144V485.144C580.525 484.733 580.637 484.416 580.861 484.192C581.085 483.931 581.402 483.8 581.813 483.8H584.501C584.912 483.8 585.229 483.931 585.453 484.192C585.714 484.416 585.845 484.733 585.845 485.144V521.656C585.845 522.029 585.714 522.347 585.453 522.608C585.229 522.869 584.93 523 584.557 523H581.869C581.458 523 581.141 522.888 580.917 522.664C580.73 522.44 580.6 522.291 580.525 522.216L561.989 493.936V521.712C561.989 522.085 561.858 522.403 561.597 522.664C561.373 522.888 561.056 523 560.645 523H557.957ZM605.408 523C605.034 523 604.717 522.888 604.456 522.664C604.232 522.403 604.12 522.085 604.12 521.712V488.784H593.368C592.994 488.784 592.677 488.672 592.416 488.448C592.192 488.187 592.08 487.869 592.08 487.496V485.144C592.08 484.733 592.192 484.416 592.416 484.192C592.677 483.931 592.994 483.8 593.368 483.8H620.36C620.77 483.8 621.088 483.931 621.312 484.192C621.573 484.416 621.704 484.733 621.704 485.144V487.496C621.704 487.869 621.573 488.187 621.312 488.448C621.088 488.672 620.77 488.784 620.36 488.784H609.664V521.712C609.664 522.085 609.533 522.403 609.272 522.664C609.048 522.888 608.73 523 608.32 523H605.408Z" fill="#2B2B2B"/>
</g>
<defs>
<clipPath id="clip0_704_1931">
<rect width="694" height="522" fill="white"/>
</clipPath>
</defs>
</svg>
