<svg xmlns="http://www.w3.org/2000/svg" version="1.1" xmlns:xlink="http://www.w3.org/1999/xlink" xmlns:svgjs="http://svgjs.com/svgjs" width="1440" height="560" preserveAspectRatio="none" viewBox="0 0 1440 560"><g mask="url(&quot;#SvgjsMask1011&quot;)" fill="none"><path d="M186.98 593.32C356.88 590.13 489.84 375.31 828.73 369.38 1167.62 363.45 1301.47 159.33 1470.48 156.58" stroke="rgba(0, 0, 0, 0.22)" stroke-width="2"></path><path d="M358.4 569.38C553.32 536.26 645 61.09 960.54 56.68 1276.08 52.27 1408.44 190.27 1562.68 191.08" stroke="rgba(0, 0, 0, 0.22)" stroke-width="2"></path><path d="M332.28 645.07C511.31 643.59 663.16 469.08 1025.3 464.46 1387.43 459.84 1534.93 227.06 1718.31 223.66" stroke="rgba(0, 0, 0, 0.22)" stroke-width="2"></path><path d="M399.8 574.98C503.43 569.93 474.99 395.89 771.17 389.73 1067.35 383.57 1320.38 173.58 1513.91 171.33" stroke="rgba(0, 0, 0, 0.22)" stroke-width="2"></path><path d="M527.89 656.82C702.56 631.17 793.25 220.51 1080.73 217.42 1368.21 214.33 1491.97 339.88 1633.57 340.62" stroke="rgba(0, 0, 0, 0.22)" stroke-width="2"></path></g><defs><mask id="SvgjsMask1011"><rect width="1440" height="560" fill="#ffffff"></rect></mask></defs></svg>