<svg width="145" height="50" viewBox="0 0 145 50" fill="none" xmlns="http://www.w3.org/2000/svg">
<path fill-rule="evenodd" clip-rule="evenodd" d="M10.8815 24.4809C10.8575 29.0351 14.1969 31.7501 19.5259 30.5157V18.4462C14.1296 16.8028 10.904 20.1276 10.8815 24.4809ZM19.6889 0.994141H27.0285V35.7349C19.9933 36.8851 13.2553 37.6146 8.43494 34.9193C2.22835 31.4492 1.72939 20.4217 6.64068 15.5103C9.13078 13.0204 14.1438 11.2674 19.5259 12.4113V1.48356C19.5119 1.25196 19.4988 1.0214 19.6889 0.994141Z" fill="#BFBFBF"/>
<path fill-rule="evenodd" clip-rule="evenodd" d="M38.9353 8.65994H31.5957V0.994141H38.9353V8.65994Z" fill="#BFBFBF"/>
<path fill-rule="evenodd" clip-rule="evenodd" d="M127.01 30.8424C135.012 33.9518 135.897 16.5209 127.826 18.1204C122.814 19.1138 122.975 29.2742 127.01 30.8424ZM127.337 12.0857C133.447 11.4324 138.057 14.1287 139.896 18.2836C143.034 25.3727 139.723 33.507 134.676 35.8987C132.061 37.1383 129.322 37.2563 126.847 37.0404C119.199 36.3733 114.376 28.5789 117.061 19.9145C117.482 18.5584 117.954 17.7289 118.203 17.3049C119.866 14.4782 122.672 12.5845 127.337 12.0857Z" fill="#BFBFBF"/>
<path fill-rule="evenodd" clip-rule="evenodd" d="M49.0477 28.0688C47.0177 31.4805 52.1182 32.2978 55.4085 31.331V26.2747C52.8804 26.6277 50.0028 26.4635 49.0477 28.0688ZM61.9326 36.0609C55.8698 36.4096 46.6559 38.4749 43.3391 34.4299C41.3905 32.0532 41.6 27.52 43.3391 25.2961C45.5865 22.4225 50.4924 21.7957 54.9193 21.3817C55.3212 20.3921 55.0502 18.782 54.5931 18.1194C50.5438 17.0879 46.5205 18.6862 43.6655 19.9135V14.2051C47.9776 12.2239 57.9658 10.1378 60.9542 14.6944C62.5236 17.0876 61.9326 21.2614 61.9326 24.9697V36.0609Z" fill="#BFBFBF"/>
<path fill-rule="evenodd" clip-rule="evenodd" d="M87.7025 36.3871H80.3629V26.927C80.3629 23.8123 80.8668 19.8628 79.2209 18.6088C77.932 17.6262 74.8742 18.1192 73.0234 18.6088V36.3871H65.6836V13.7158C73.1865 11.7668 86.7298 9.67721 87.7025 19.098C88.1822 23.7428 87.3471 30.7114 87.7025 36.3871Z" fill="#BFBFBF"/>
<path fill-rule="evenodd" clip-rule="evenodd" d="M98.6302 28.5585C99.8653 30.5567 103.21 31.306 105.97 30.0264C105.818 26.2092 105.765 22.2934 105.807 18.2829C99.4636 16.6071 95.6834 23.7918 98.6302 28.5585ZM117.061 13.0639C116.407 15.0203 115.451 16.6736 114.614 18.4463C113.858 18.6158 113.202 18.1456 112.82 18.4463C112.653 26.3968 114.513 37.175 111.352 42.9114C109.449 46.3652 105.945 48.581 100.587 48.9463C96.6847 49.2125 93.6558 48.5748 90.8012 47.4784V40.6281C94.1493 42.583 102.61 44.1767 104.991 40.1387C105.692 38.9507 105.647 37.7227 105.97 35.8981C104.436 35.9786 102.948 36.6887 101.077 36.7137C93.3846 36.8158 88.6257 30.6909 90.475 22.1974C91.1903 18.9119 93.1153 16.2666 95.6945 14.6948C101.051 11.43 109.285 11.6779 117.061 13.0639Z" fill="#BFBFBF"/>
<path fill-rule="evenodd" clip-rule="evenodd" d="M38.935 12.541C38.9267 17.9457 38.9279 21.8294 38.9274 28.3954C38.6156 34.848 38.6882 39.9863 36.3255 43.0738C35.8595 43.6827 34.8699 44.5709 34.042 45.1943C33.3467 45.7178 32.0215 46.7792 31.2692 46.8254C30.5109 46.872 28.5626 45.7726 27.6809 45.3573C26.523 44.812 25.4527 44.0879 24.2559 43.7264C27.0477 41.9964 29.6979 40.6994 30.7798 37.2023C31.7208 34.161 31.5954 29.7539 31.5954 25.4589C31.5954 21.2179 31.6144 16.2874 31.6144 12.5429L38.935 12.5413V12.541Z" fill="#BFBFBF"/>
</svg>
