<svg width="36" height="50" viewBox="0 0 36 50" fill="none" xmlns="http://www.w3.org/2000/svg">
<g clip-path="url(#clip0_271_611)">
<path d="M7.52679 2.22917V0H9.76509V6.74419H7.52679V4.48669H5.47853V6.74419H3.24023V0H5.47853V2.22917H7.52679Z" fill="#BFBFBF"/>
<path d="M10.7363 2.23628V0H16.9198V2.23628H14.949V6.74419H12.7107V2.23628H10.7363Z" fill="#BFBFBF"/>
<path d="M23.1039 0L21.6715 2.37094L20.2356 0H17.9023V6.74419H20.0913V3.40224L21.6328 5.80146H21.6715L23.213 3.40224V6.74419H25.4408V0H23.1039Z" fill="#BFBFBF"/>
<path d="M26.5566 6.74419V0H28.795V4.51502H31.9448V6.74419H26.5566Z" fill="#BFBFBF"/>
<path fill-rule="evenodd" clip-rule="evenodd" d="M17.5715 50.0001L31.9798 45.9737L35.1852 9.76758H0L3.20185 45.9774L17.5715 50.0001ZM7.67752 30.499L6.48148 17.2094H28.7037L28.3069 21.6042H11.3222L11.7256 26.1042H27.9065L26.6878 39.5938L17.5926 42.0931V42.0896L17.5784 42.0931L8.49493 39.5974L7.87567 32.6964H12.3237L12.6386 36.2031L17.5784 37.5229L17.5926 37.5194V37.5229L22.5457 36.1996L23.0596 30.499H7.67752Z" fill="#BFBFBF"/>
</g>
<defs>
<clipPath id="clip0_271_611">
<rect width="35.1852" height="50" fill="white"/>
</clipPath>
</defs>
</svg>
