<svg width="25" height="25" viewBox="0 0 20 20" fill="none" xmlns="http://www.w3.org/2000/svg">
<g clip-path="url(#clip0_486_6)">
<path d="M9.9964 20.0049C7.26459 20.0049 6.94254 19.9905 5.87647 19.9439C5.04512 19.9166 4.22453 19.7479 3.45004 19.4449C2.78727 19.1873 2.18538 18.795 1.6826 18.2927C1.17981 17.7905 0.78711 17.1893 0.529438 16.5274C0.237718 15.7512 0.0803738 14.9311 0.0641408 14.1022C0.00195312 13.0399 0.00195312 12.6917 0.00195312 9.98492C0.00195312 7.24928 0.0163895 6.92992 0.0641408 5.87093C0.080729 5.04316 0.238068 4.22423 0.529438 3.44911C0.786814 2.78636 1.17978 2.1845 1.68323 1.68196C2.18669 1.17942 2.78957 0.787252 3.45337 0.530498C4.22921 0.237975 5.04953 0.0804475 5.87869 0.0647629C6.93921 0.0048827 7.28791 0.00488281 9.9964 0.00488281C12.7504 0.00488281 13.0669 0.0192983 14.1163 0.0647629C14.947 0.0802875 15.771 0.23775 16.5483 0.530498C17.2119 0.787549 17.8147 1.17982 18.3181 1.68232C18.8215 2.18483 19.2146 2.78653 19.4722 3.44911C19.7687 4.23642 19.9275 5.06809 19.9398 5.90752C20.002 6.96984 20.002 7.31693 20.002 10.0226C20.002 12.7283 19.9864 13.0832 19.9398 14.1333C19.9232 14.963 19.7655 15.7838 19.4734 16.5607C19.215 17.223 18.8216 17.8245 18.3181 18.327C17.8145 18.8294 17.2118 19.2218 16.5483 19.4793C15.771 19.7698 14.9503 19.9273 14.1208 19.9439C13.0603 20.0049 12.7127 20.0049 9.9964 20.0049V20.0049ZM9.95865 1.76026C7.24238 1.76026 6.96031 1.77357 5.89979 1.82125C5.26642 1.82952 4.63916 1.94616 4.04526 2.16612C3.61209 2.33191 3.21852 2.58651 2.88992 2.91349C2.56132 3.24047 2.30498 3.63258 2.13743 4.06454C1.91533 4.66334 1.79873 5.29652 1.79207 5.93524C1.73321 7.00976 1.73321 7.29142 1.73321 9.98492C1.73321 12.6463 1.74321 12.969 1.79207 14.0368C1.80206 14.6689 1.91867 15.2954 2.13743 15.8887C2.47724 16.7614 3.17019 17.4511 4.04637 17.786C4.6395 18.0073 5.26664 18.124 5.89979 18.1309C6.97475 18.193 7.25792 18.193 9.95865 18.193C12.6827 18.193 12.9648 18.1796 14.0164 18.1309C14.6498 18.1232 15.2772 18.0065 15.8709 17.786C16.3018 17.6189 16.6931 17.3642 17.02 17.0379C17.3469 16.7116 17.6023 16.321 17.7699 15.8909C17.992 15.2921 18.1086 14.6578 18.1152 14.0191H18.1274C18.1752 12.959 18.1752 12.6762 18.1752 9.96718C18.1752 7.25815 18.163 6.97317 18.1152 5.91418C18.1052 5.28261 17.9884 4.65728 17.7699 4.06454C17.6027 3.63379 17.3475 3.24252 17.0206 2.91567C16.6936 2.58882 16.3021 2.33355 15.8709 2.16612C15.2773 1.94509 14.6499 1.82841 14.0164 1.82125C12.9425 1.76026 12.6616 1.76026 9.95865 1.76026V1.76026ZM9.9964 15.1069C8.98093 15.1076 7.98808 14.8075 7.14342 14.2446C6.29875 13.6818 5.64022 12.8815 5.25111 11.9448C4.862 11.0082 4.75979 9.97744 4.95741 8.98282C5.15504 7.98821 5.64361 7.07445 6.36134 6.35714C7.07908 5.63982 7.99373 5.15116 8.98961 4.95296C9.98549 4.75476 11.0179 4.85593 11.9562 5.24366C12.8945 5.6314 13.6965 6.28829 14.2609 7.13125C14.8253 7.97421 15.1267 8.96538 15.1269 9.97938C15.1251 11.338 14.5842 12.6405 13.6225 13.6016C12.6609 14.5627 11.357 15.104 9.9964 15.1069V15.1069ZM9.9964 6.65048C9.3375 6.65048 8.69339 6.84559 8.14553 7.21113C7.59767 7.57667 7.17066 8.09622 6.91851 8.7041C6.66636 9.31197 6.60039 9.98085 6.72893 10.6262C6.85748 11.2715 7.17477 11.8642 7.64069 12.3295C8.1066 12.7947 8.70022 13.1116 9.34646 13.2399C9.99271 13.3683 10.6626 13.3024 11.2713 13.0506C11.8801 12.7988 12.4004 12.3724 12.7664 11.8254C13.1325 11.2783 13.3279 10.6351 13.3279 9.97716C13.3258 9.0955 12.9742 8.25054 12.3498 7.62711C11.7255 7.00368 10.8793 6.65253 9.9964 6.65048ZM15.3268 5.85984C15.1696 5.85926 15.014 5.82776 14.869 5.76715C14.724 5.70654 14.5923 5.618 14.4816 5.50658C14.2579 5.28157 14.1329 4.97705 14.1341 4.66002C14.1353 4.34298 14.2625 4.0394 14.4879 3.81605C14.7132 3.5927 15.0182 3.46789 15.3357 3.46907C15.6532 3.47024 15.9572 3.59731 16.1808 3.82232C16.4045 4.04733 16.5295 4.35185 16.5283 4.66889C16.5272 4.98592 16.3999 5.28951 16.1746 5.51286C15.9492 5.7362 15.6443 5.86102 15.3268 5.85984Z" fill="black"/>
</g>
<defs>
<clipPath id="clip0_486_6">
<rect width="20" height="20" fill="white"/>
</clipPath>
</defs>
</svg>
