<svg width="45" height="50" viewBox="0 0 45 50" fill="none" xmlns="http://www.w3.org/2000/svg">
<g clip-path="url(#clip0_271_607)">
<path d="M22.5 49.5798C21.8013 49.5798 21.149 49.3976 20.5435 49.0786L14.3478 45.4804C13.4162 44.9792 13.882 44.7972 14.1615 44.706C15.4192 44.296 15.6522 44.205 16.9565 43.4762C17.0963 43.385 17.2826 43.4306 17.4224 43.5218L22.174 46.3002C22.3603 46.3914 22.5931 46.3914 22.733 46.3002L41.3198 35.7784C41.5062 35.6874 41.5994 35.5052 41.5994 35.2774V14.2795C41.5994 14.0518 41.5062 13.8696 41.3198 13.7785L22.733 3.30228C22.5466 3.21118 22.3137 3.21118 22.174 3.30228L3.58695 13.7785C3.40063 13.8696 3.30746 14.0973 3.30746 14.2795V35.2774C3.30746 35.4596 3.40063 35.6874 3.58695 35.7784L8.66459 38.648C11.413 40.0144 13.1366 38.4202 13.1366 36.826V16.1014C13.1366 15.8282 13.3696 15.5549 13.6956 15.5549H16.0714C16.3509 15.5549 16.6304 15.7826 16.6304 16.1014V36.826C16.6304 40.4244 14.6273 42.5196 11.1335 42.5196C10.0621 42.5196 9.22361 42.5196 6.84783 41.381L1.95652 38.648C0.745341 37.9648 0 36.6894 0 35.323V14.3251C0 12.9586 0.745341 11.6832 1.95652 11L20.5435 0.47826C21.708 -0.15942 23.292 -0.15942 24.4565 0.47826L43.0435 11C44.2546 11.6832 45 12.9586 45 14.3251V35.323C45 36.6894 44.2546 37.9648 43.0435 38.648L24.4565 49.1698C23.851 49.443 23.1521 49.5798 22.5 49.5798ZM28.2297 35.1408C20.0776 35.1408 18.4006 31.4968 18.4006 28.3996C18.4006 28.1262 18.6335 27.853 18.9596 27.853H21.382C21.6616 27.853 21.8943 28.0352 21.8943 28.3084C22.267 30.7226 23.3384 31.9068 28.2764 31.9068C32.1895 31.9068 33.8664 31.0414 33.8664 28.9918C33.8664 27.8074 33.4006 26.942 27.2982 26.3498C22.2206 25.8488 19.0528 24.7556 19.0528 20.793C19.0528 17.1035 22.2206 14.9172 27.531 14.9172C33.4937 14.9172 36.4285 16.9213 36.8012 21.294C36.8012 21.4306 36.7546 21.5672 36.6615 21.704C36.5682 21.795 36.4285 21.8862 36.2888 21.8862H33.8664C33.6336 21.8862 33.4006 21.704 33.354 21.4762C32.795 18.971 31.3509 18.1511 27.531 18.1511C23.2454 18.1511 22.733 19.6087 22.733 20.7018C22.733 22.0228 23.3384 22.4328 29.115 23.1614C34.8447 23.8902 37.5466 24.9378 37.5466 28.855C37.4999 32.8634 34.146 35.1408 28.2297 35.1408Z" fill="#BFBFBF"/>
</g>
<defs>
<clipPath id="clip0_271_607">
<rect width="45" height="50" fill="white"/>
</clipPath>
</defs>
</svg>
