<svg width="400" height="400" viewBox="0 0 400 400" fill="none" xmlns="http://www.w3.org/2000/svg">
<path d="M400 305.92H0V306.12H400V305.92Z" fill="#E0E0E0"/>
<path d="M302.129 314.393H274.609V314.593H302.129V314.393Z" fill="#E0E0E0"/>
<path d="M88.8318 314.488H73.3438V314.688H88.8318V314.488Z" fill="#E0E0E0"/>
<path d="M200.8 314.023H169.408V314.223H200.8V314.023Z" fill="#E0E0E0"/>
<path d="M168.608 311.176H154.576V311.376H168.608V311.176Z" fill="#E0E0E0"/>
<path d="M339.648 311.279H297.256V311.479H339.648V311.279Z" fill="#E0E0E0"/>
<path d="M351.447 205.784C341.607 190.8 350.591 174.696 349.095 158.024C347.599 141.352 331.759 137.72 334.759 123.624C338.231 107.24 328.975 91.5195 318.487 91.5195C307.999 91.5195 298.751 107.2 302.223 123.6C305.223 137.72 289.423 141.36 287.887 158C286.351 174.64 295.375 190.8 285.527 205.76C275.679 220.72 278.271 240.584 283.815 250.432C285.29 253.045 287.068 255.475 289.111 257.672C292.869 261.705 297.416 264.922 302.471 267.121C307.525 269.321 312.979 270.456 318.491 270.456C324.004 270.456 329.457 269.321 334.512 267.121C339.566 264.922 344.114 261.705 347.871 257.672C349.91 255.472 351.685 253.043 353.159 250.432C358.711 240.608 361.295 220.8 351.447 205.784Z" fill="#E0E0E0"/>
<path d="M318.488 217.152C319.141 217.152 319.788 217.281 320.392 217.531C320.996 217.781 321.544 218.148 322.006 218.61C322.468 219.072 322.835 219.62 323.085 220.224C323.335 220.828 323.464 221.475 323.464 222.128V305.92H313.512V222.128C313.512 221.475 313.64 220.828 313.89 220.224C314.141 219.62 314.507 219.072 314.969 218.61C315.431 218.148 315.98 217.781 316.583 217.531C317.187 217.281 317.834 217.152 318.488 217.152V217.152Z" fill="#F0F0F0"/>
<path d="M255.928 305.919H242.4V222.135C242.405 220.34 243.12 218.619 244.39 217.349C245.66 216.079 247.381 215.364 249.176 215.359V215.359C250.972 215.364 252.693 216.079 253.963 217.349C255.233 218.619 255.948 220.34 255.952 222.135L255.928 305.919Z" fill="#E0E0E0"/>
<path d="M249.152 283.32C272.202 283.32 290.888 264.634 290.888 241.584C290.888 218.534 272.202 199.848 249.152 199.848C226.102 199.848 207.416 218.534 207.416 241.584C207.416 264.634 226.102 283.32 249.152 283.32Z" fill="#F0F0F0"/>
<path d="M298.196 229.059C300.386 220.243 295.014 211.321 286.198 209.131C277.382 206.941 268.46 212.313 266.27 221.129C264.08 229.945 269.452 238.867 278.268 241.057C287.084 243.247 296.006 237.875 298.196 229.059Z" fill="#F0F0F0"/>
<path d="M225.001 216.919C225.865 211.612 222.263 206.609 216.956 205.745C211.649 204.88 206.646 208.482 205.782 213.789C204.917 219.096 208.519 224.099 213.826 224.963C219.133 225.828 224.136 222.226 225.001 216.919Z" fill="#F0F0F0"/>
<path d="M225.984 217.152C229.758 217.152 232.816 214.093 232.816 210.32C232.816 206.547 229.758 203.488 225.984 203.488C222.211 203.488 219.152 206.547 219.152 210.32C219.152 214.093 222.211 217.152 225.984 217.152Z" fill="#F0F0F0"/>
<path d="M163.2 255.912C156.71 256.878 150.508 259.245 145.024 262.848C144.976 256.512 143.816 250.504 140.84 245.648C136.312 250.056 132.64 255.768 129.64 261.912C128.544 250.4 125.512 239.2 118.8 232.104C108.744 238.432 103.56 248.976 101.096 260.144C97.0254 252.613 91.117 246.234 83.9201 241.6C77.7681 248.08 75.8001 257.04 75.9681 266.224C68.9761 258.08 61.2161 251.728 53.6481 250.984C51.7841 263.856 55.7521 276 60.8001 285.6C64.0774 291.759 68.9735 296.907 74.9607 300.489C80.9479 304.071 87.7992 305.952 94.7761 305.928H127.648C141.656 305.928 154.792 298.456 161.36 286.08C165.512 278.24 167.496 268.152 163.2 255.912Z" fill="#E0E0E0"/>
<path d="M153.807 89.7117C157.863 77.8157 154.607 69.3438 144.711 69.3438C138.487 69.3438 130.767 72.6797 123.247 78.1037C122.399 75.0077 120.007 73.1597 116.159 73.1597C109.383 73.1597 100.047 78.8877 92.7274 86.9677C90.6665 85.0097 87.9381 83.9086 85.0954 83.8878C78.6074 83.5198 70.7594 86.8157 63.9354 92.1677C63.5935 91.6892 63.142 91.2993 62.6188 91.0307C62.0955 90.7621 61.5156 90.6226 60.9274 90.6237C57.1914 90.4157 52.1274 93.7437 49.6234 98.0477C49.4714 98.3117 49.3354 98.5757 49.1914 98.8477H155.775C156.095 95.0877 155.431 91.9517 153.807 89.7117Z" fill="#F0F0F0"/>
<path d="M154.136 161.944C156.12 156.136 154.544 152 149.696 152C146.648 152 142.88 153.6 139.208 156.28C139.011 155.533 138.553 154.882 137.919 154.442C137.284 154.002 136.513 153.803 135.744 153.88C132.44 153.88 127.88 156.68 124.296 160.632C123.292 159.672 121.958 159.134 120.568 159.128C117.368 158.944 113.568 160.552 110.232 163.168C110.071 162.937 109.857 162.747 109.608 162.613C109.359 162.48 109.083 162.407 108.8 162.4C106.976 162.296 104.504 163.92 103.28 166.024L103.064 166.408H155.128C155.346 164.849 154.994 163.264 154.136 161.944V161.944Z" fill="#F0F0F0"/>
<path d="M274.215 117.992C273.804 117.934 273.39 117.905 272.975 117.904C273.359 112.104 271.143 108.392 266.399 108.392C262.983 108.392 258.783 110.328 254.511 113.6C255.735 102.336 251.815 95.0156 242.935 95.0156C235.783 95.0156 226.719 99.8156 217.767 107.544C216.967 103.128 214.343 100.472 209.911 100.472C202.127 100.472 191.063 108.664 182.191 120.216C181.18 118.884 179.883 117.795 178.397 117.029C176.91 116.264 175.271 115.841 173.599 115.792C166.191 115.272 156.983 119.976 148.799 127.64C148.501 126.993 148.027 126.444 147.432 126.055C146.836 125.666 146.142 125.453 145.431 125.44C141.375 125.152 135.831 129.384 132.543 135.04H280.735C284.215 126.464 281.447 118.96 274.215 117.992Z" fill="#F0F0F0"/>
<path d="M199.999 342.048C285.665 342.048 355.111 337.993 355.111 332.992C355.111 327.99 285.665 323.936 199.999 323.936C114.333 323.936 44.8867 327.99 44.8867 332.992C44.8867 337.993 114.333 342.048 199.999 342.048Z" fill="#F5F5F5"/>
<path d="M39.0879 120.447L221.464 146.703L245.936 171.399L39.0879 120.447Z" fill="black"/>
<path opacity="0.6" d="M39.0879 120.447L221.464 146.703L245.936 171.399L39.0879 120.447Z" fill="white"/>
<path d="M39.0879 120.447L221.464 146.703L213 182.415L39.0879 120.447Z" fill="black"/>
<path opacity="0.2" d="M39.0879 120.447L221.464 146.703L213 182.415L39.0879 120.447Z" fill="black"/>
<path d="M209.256 79.1037L219.84 128.704C220.115 129.999 219.865 131.35 219.145 132.462C218.426 133.573 217.294 134.353 216 134.632L121.536 154.792C120.241 155.065 118.89 154.814 117.779 154.095C116.669 153.375 115.888 152.245 115.608 150.952L105.016 101.352C104.743 100.056 104.994 98.7042 105.716 97.5932C106.437 96.4822 107.569 95.7021 108.864 95.4237L203.328 75.2637C204.624 74.9908 205.975 75.2425 207.086 75.9637C208.197 76.6848 208.977 77.8168 209.256 79.1117V79.1037Z" fill="black"/>
<path d="M108.968 95.9047L108.969 95.9047L203.432 75.7447C204.35 75.5495 205.3 75.6477 206.152 76.0174L174.981 114.284C174.981 114.284 174.981 114.284 174.981 114.284C172.126 117.788 168.16 120.212 163.74 121.156C159.32 122.099 154.71 121.506 150.673 119.473C150.673 119.473 150.673 119.473 150.673 119.473L106.59 97.2696C107.217 96.5807 108.048 96.1007 108.968 95.9047Z" fill="black" stroke="white"/>
<path d="M39.0879 120.447L189.512 156.199L213 182.415L39.0879 120.447Z" fill="black"/>
<path opacity="0.6" d="M39.0879 120.447L189.512 156.199L213 182.415L39.0879 120.447Z" fill="white"/>
<path d="M93.959 154.907L93.5547 155.598L110.294 165.403L110.699 164.713L93.959 154.907Z" fill="black"/>
<path d="M118.088 169.036L117.684 169.727L123.703 173.252L124.107 172.562L118.088 169.036Z" fill="black"/>
<path d="M39.0879 120.447L189.512 156.199L160.272 191.439L39.0879 120.447Z" fill="black"/>
<path d="M240.287 204.209C240.085 204.209 239.884 204.171 239.695 204.097L215.199 194.401C214.808 194.243 214.494 193.936 214.327 193.548C214.16 193.16 214.154 192.721 214.309 192.328C214.465 191.935 214.769 191.62 215.156 191.451C215.543 191.281 215.981 191.272 216.375 191.425L240.879 201.121C241.226 201.258 241.514 201.511 241.694 201.838C241.873 202.165 241.933 202.544 241.863 202.91C241.793 203.276 241.597 203.606 241.309 203.843C241.022 204.08 240.66 204.209 240.287 204.209V204.209Z" fill="black"/>
<path opacity="0.3" d="M240.287 204.209C240.085 204.209 239.884 204.171 239.695 204.097L215.199 194.401C214.808 194.243 214.494 193.936 214.327 193.548C214.16 193.16 214.154 192.721 214.309 192.328C214.465 191.935 214.769 191.62 215.156 191.451C215.543 191.281 215.981 191.272 216.375 191.425L240.879 201.121C241.226 201.258 241.514 201.511 241.694 201.838C241.873 202.165 241.933 202.544 241.863 202.91C241.793 203.276 241.597 203.606 241.309 203.843C241.022 204.08 240.66 204.209 240.287 204.209V204.209Z" fill="black"/>
<path d="M238.84 190.159C238.639 190.158 238.441 190.117 238.256 190.039L225.096 184.799C224.899 184.723 224.72 184.608 224.567 184.462C224.415 184.316 224.293 184.142 224.208 183.948C224.124 183.755 224.078 183.547 224.074 183.336C224.071 183.125 224.109 182.915 224.186 182.719C224.264 182.523 224.379 182.344 224.526 182.192C224.673 182.041 224.849 181.92 225.043 181.837C225.237 181.754 225.445 181.71 225.656 181.707C225.867 181.705 226.076 181.744 226.272 181.823L239.432 187.039C239.826 187.194 240.143 187.499 240.313 187.888C240.482 188.276 240.491 188.716 240.336 189.111C240.223 189.417 240.02 189.682 239.752 189.869C239.485 190.057 239.167 190.158 238.84 190.159Z" fill="black"/>
<path opacity="0.5" d="M238.84 190.159C238.639 190.158 238.441 190.117 238.256 190.039L225.096 184.799C224.899 184.723 224.72 184.608 224.567 184.462C224.415 184.316 224.293 184.142 224.208 183.948C224.124 183.755 224.078 183.547 224.074 183.336C224.071 183.125 224.109 182.915 224.186 182.719C224.264 182.523 224.379 182.344 224.526 182.192C224.673 182.041 224.849 181.92 225.043 181.837C225.237 181.754 225.445 181.71 225.656 181.707C225.867 181.705 226.076 181.744 226.272 181.823L239.432 187.039C239.826 187.194 240.143 187.499 240.313 187.888C240.482 188.276 240.491 188.716 240.336 189.111C240.223 189.417 240.02 189.682 239.752 189.869C239.485 190.057 239.167 190.158 238.84 190.159Z" fill="white"/>
<path d="M211.328 204C211.128 203.998 210.93 203.96 210.744 203.888L186.848 194.4C186.651 194.324 186.472 194.21 186.319 194.064C186.167 193.918 186.045 193.743 185.96 193.55C185.876 193.357 185.83 193.148 185.826 192.937C185.823 192.726 185.861 192.517 185.938 192.321C186.016 192.124 186.131 191.945 186.278 191.794C186.425 191.643 186.601 191.522 186.795 191.439C186.988 191.355 187.197 191.311 187.408 191.309C187.619 191.306 187.828 191.346 188.024 191.424L211.92 200.88C212.267 201.017 212.555 201.271 212.734 201.598C212.914 201.925 212.973 202.304 212.903 202.67C212.833 203.036 212.637 203.366 212.35 203.603C212.062 203.84 211.701 203.969 211.328 203.968V204Z" fill="black"/>
<path opacity="0.3" d="M211.328 204C211.128 203.998 210.93 203.96 210.744 203.888L186.848 194.4C186.651 194.324 186.472 194.21 186.319 194.064C186.167 193.918 186.045 193.743 185.96 193.55C185.876 193.357 185.83 193.148 185.826 192.937C185.823 192.726 185.861 192.517 185.938 192.321C186.016 192.124 186.131 191.945 186.278 191.794C186.425 191.643 186.601 191.522 186.795 191.439C186.988 191.355 187.197 191.311 187.408 191.309C187.619 191.306 187.828 191.346 188.024 191.424L211.92 200.88C212.267 201.017 212.555 201.271 212.734 201.598C212.914 201.925 212.973 202.304 212.903 202.67C212.833 203.036 212.637 203.366 212.35 203.603C212.062 203.84 211.701 203.969 211.328 203.968V204Z" fill="black"/>
<path d="M297.839 131.855C299.959 135.991 301.903 140.135 303.751 144.375C305.599 148.615 307.319 152.911 308.823 157.415L309.367 159.119C309.463 159.423 309.599 159.919 309.679 160.271C309.759 160.623 309.831 161.023 309.871 161.359C310.054 162.65 310.148 163.952 310.151 165.255C310.163 167.66 310.051 170.063 309.815 172.455C309.368 177.087 308.642 181.688 307.639 186.231L303.247 185.743C303.191 181.239 303.151 176.687 302.991 172.247C302.919 170.039 302.791 167.823 302.567 165.743C302.466 164.767 302.305 163.797 302.087 162.839C302.047 162.615 301.983 162.447 301.935 162.263C301.887 162.079 301.839 162.015 301.759 161.775L301.151 160.263C299.479 156.215 297.599 152.135 295.679 148.071L289.871 135.879L297.839 131.855Z" fill="#E4897B"/>
<path d="M303.31 184.336L301.262 188.168L307.806 189.992C307.806 189.992 309.054 186.912 307.566 184.48L303.31 184.336Z" fill="#E4897B"/>
<path d="M298.758 193.688L304.774 194.168L307.806 189.992L301.262 188.168L298.758 193.688Z" fill="#E4897B"/>
<path d="M270.295 104.208C270.207 104.68 269.879 105.008 269.575 104.944C269.271 104.88 269.103 104.456 269.199 103.992C269.295 103.528 269.615 103.192 269.919 103.256C270.223 103.32 270.399 103.744 270.295 104.208Z" fill="#263238"/>
<path d="M269.927 105.008C269.082 106.317 268.061 107.504 266.895 108.536C267.167 108.826 267.499 109.053 267.868 109.202C268.236 109.351 268.633 109.419 269.031 109.4L269.927 105.008Z" fill="#DE5753"/>
<path d="M272.519 101.976C272.443 101.974 272.371 101.942 272.319 101.888C272.089 101.625 271.8 101.42 271.476 101.289C271.153 101.159 270.803 101.106 270.455 101.136C270.388 101.137 270.324 101.114 270.273 101.071C270.222 101.029 270.188 100.97 270.176 100.905C270.165 100.839 270.177 100.772 270.21 100.715C270.243 100.658 270.296 100.614 270.359 100.592C270.804 100.536 271.255 100.59 271.674 100.751C272.093 100.911 272.465 101.173 272.759 101.512C272.81 101.564 272.839 101.635 272.839 101.708C272.839 101.781 272.81 101.852 272.759 101.904C272.727 101.933 272.688 101.955 272.647 101.967C272.605 101.98 272.561 101.983 272.519 101.976Z" fill="#263238"/>
<path d="M283.527 110.744C282.687 115.048 281.847 122.92 284.855 125.792C284.855 125.792 283.679 130.152 275.687 130.152C266.887 130.152 271.495 125.792 271.495 125.792C276.295 124.648 276.159 121.088 275.327 117.752L283.527 110.744Z" fill="#E4897B"/>
<path d="M286.063 128.504C286.695 126.4 287.391 123.992 285.951 123.232C284.351 122.432 275.655 121.552 272.655 123.112C269.655 124.672 270.511 128.952 270.511 128.952L286.063 128.504Z" fill="#263238"/>
<path d="M304.511 328C304.263 328.033 304.01 328.016 303.768 327.95C303.527 327.884 303.3 327.771 303.103 327.616C303.034 327.519 302.996 327.403 302.996 327.284C302.996 327.165 303.034 327.049 303.103 326.952C303.149 326.869 303.212 326.797 303.288 326.74C303.364 326.684 303.451 326.644 303.543 326.624C304.407 326.432 306.023 327.536 306.095 327.584C306.116 327.601 306.132 327.624 306.142 327.649C306.152 327.674 306.155 327.701 306.151 327.728C306.147 327.754 306.134 327.778 306.116 327.796C306.097 327.815 306.073 327.827 306.047 327.832C305.542 327.941 305.028 327.997 304.511 328V328ZM303.775 326.88H303.607C303.553 326.891 303.502 326.914 303.458 326.947C303.414 326.981 303.377 327.023 303.351 327.072C303.223 327.296 303.303 327.392 303.351 327.424C303.599 327.76 304.799 327.76 305.679 327.616C305.106 327.238 304.455 326.992 303.775 326.896V326.88Z" fill="black"/>
<path d="M306.014 327.856H305.95C305.342 327.52 304.166 326.256 304.286 325.584C304.306 325.48 304.362 325.386 304.444 325.319C304.526 325.252 304.628 325.215 304.734 325.216C304.839 325.204 304.946 325.214 305.048 325.244C305.149 325.274 305.244 325.324 305.326 325.392C306.006 325.952 306.126 327.648 306.126 327.72C306.129 327.745 306.125 327.771 306.113 327.793C306.102 327.816 306.084 327.835 306.062 327.848C306.047 327.854 306.03 327.856 306.014 327.856ZM304.83 325.456H304.798C304.614 325.456 304.598 325.568 304.59 325.6C304.518 325.992 305.27 326.96 305.87 327.416C305.829 326.747 305.59 326.106 305.182 325.576C305.128 325.533 305.066 325.503 305 325.485C304.934 325.467 304.866 325.462 304.798 325.472L304.83 325.456Z" fill="black"/>
<path d="M269.223 328.001C268.471 328.001 267.743 327.897 267.495 327.561C267.432 327.472 267.398 327.366 267.398 327.257C267.398 327.148 267.432 327.042 267.495 326.953C267.543 326.871 267.608 326.799 267.685 326.743C267.762 326.686 267.85 326.646 267.943 326.625C268.911 326.361 270.975 327.529 271.063 327.577C271.086 327.592 271.105 327.614 271.116 327.639C271.128 327.665 271.131 327.693 271.127 327.721C271.122 327.749 271.109 327.775 271.089 327.795C271.069 327.815 271.043 327.828 271.015 327.833C270.424 327.944 269.824 328 269.223 328.001V328.001ZM268.287 326.865C268.199 326.852 268.11 326.852 268.023 326.865C267.966 326.876 267.913 326.899 267.866 326.932C267.819 326.965 267.78 327.007 267.751 327.057C267.647 327.233 267.687 327.313 267.751 327.361C268.015 327.729 269.503 327.753 270.607 327.601C269.887 327.212 269.099 326.968 268.287 326.881V326.865Z" fill="black"/>
<path d="M270.999 327.856H270.943C270.231 327.544 268.831 326.256 268.935 325.608C268.935 325.448 269.071 325.256 269.455 325.216C269.598 325.194 269.744 325.205 269.882 325.246C270.02 325.288 270.148 325.359 270.255 325.456C271.007 326.064 271.159 327.648 271.167 327.72C271.17 327.745 271.167 327.769 271.157 327.792C271.147 327.814 271.131 327.834 271.111 327.848C271.094 327.857 271.075 327.863 271.056 327.864C271.037 327.866 271.017 327.863 270.999 327.856V327.856ZM269.567 325.456H269.479C269.231 325.456 269.215 325.584 269.207 325.616C269.143 326.016 270.103 327.016 270.807 327.448C270.738 326.776 270.458 326.143 270.007 325.64C269.893 325.541 269.75 325.482 269.599 325.472L269.567 325.456Z" fill="black"/>
<path d="M277.464 327.712H271.584L271 314.104H276.88L277.464 327.712Z" fill="#E4897B"/>
<path d="M312.75 327.712H306.87L303.918 314.104H309.79L312.75 327.712Z" fill="#E4897B"/>
<path d="M306.455 327.031H313.055C313.173 327.032 313.287 327.073 313.378 327.147C313.47 327.221 313.533 327.324 313.559 327.439L314.719 332.663C314.745 332.79 314.743 332.922 314.711 333.048C314.68 333.174 314.621 333.292 314.538 333.392C314.455 333.492 314.35 333.571 314.232 333.625C314.114 333.679 313.985 333.706 313.855 333.703C311.551 333.663 310.431 333.527 307.527 333.527C305.743 333.527 302.063 333.719 299.591 333.719C297.119 333.719 296.807 331.319 297.815 331.055C302.343 330.063 304.047 328.695 305.495 327.399C305.758 327.161 306.1 327.03 306.455 327.031V327.031Z" fill="#263238"/>
<path d="M271.623 327.031H278.023C278.141 327.032 278.255 327.073 278.346 327.147C278.438 327.221 278.501 327.324 278.527 327.439L279.687 332.663C279.714 332.789 279.713 332.92 279.683 333.046C279.654 333.171 279.596 333.288 279.514 333.388C279.433 333.488 279.329 333.569 279.213 333.623C279.096 333.678 278.968 333.705 278.839 333.703C276.527 333.663 273.183 333.527 270.271 333.527C266.871 333.527 263.927 333.719 259.935 333.719C257.535 333.719 256.855 331.319 257.863 331.055C262.463 330.047 266.215 329.943 270.191 327.495C270.614 327.207 271.111 327.046 271.623 327.031V327.031Z" fill="#263238"/>
<path d="M268.799 136.111C263.884 135.731 258.994 135.082 254.151 134.167C251.751 133.703 249.303 133.183 246.871 132.527C244.378 131.889 241.93 131.088 239.543 130.127C238.927 129.871 238.303 129.591 237.687 129.327C236.993 128.986 236.325 128.595 235.687 128.159C234.535 127.399 233.543 126.607 232.559 125.823C230.599 124.223 228.783 122.623 226.959 120.983C223.383 117.671 219.991 114.247 216.719 110.647L219.663 107.359L231.271 115.703C233.183 117.079 235.119 118.431 237.023 119.703C237.967 120.335 238.935 120.927 239.823 121.431C240.194 121.643 240.579 121.83 240.975 121.991C241.447 122.175 241.927 122.359 242.431 122.535C246.754 123.867 251.176 124.856 255.655 125.495C260.223 126.215 264.943 126.807 269.503 127.287L268.799 136.111Z" fill="#E4897B"/>
<path d="M295.375 127.12C300.887 128.384 306.455 144.488 306.455 144.488L295.119 152.624C295.119 152.624 291.919 145.12 288.831 138.56C285.599 131.688 289.743 125.832 295.375 127.12Z" fill="black"/>
<path opacity="0.4" d="M295.375 127.12C300.887 128.384 306.455 144.488 306.455 144.488L295.119 152.624C295.119 152.624 291.919 145.12 288.831 138.56C285.599 131.688 289.743 125.832 295.375 127.12Z" fill="black"/>
<path d="M292.199 135.92L289.951 140.952C292.279 145.976 294.407 150.952 294.975 152.28C294.895 146.336 293.767 138.96 292.199 135.92Z" fill="black"/>
<path opacity="0.6" d="M292.199 135.92L289.951 140.952C292.279 145.976 294.407 150.952 294.975 152.28C294.895 146.336 293.767 138.96 292.199 135.92Z" fill="black"/>
<path d="M262.454 127.424C262.454 127.424 256.198 134.488 262.102 178.224H293.534C293.758 173.424 290.726 149.856 295.374 127.12C291.9 126.451 288.386 126.007 284.854 125.792C280.405 125.536 275.944 125.536 271.494 125.792C268.443 126.099 265.42 126.645 262.454 127.424V127.424Z" fill="black"/>
<path opacity="0.4" d="M262.454 127.424C262.454 127.424 256.198 134.488 262.102 178.224H293.534C293.758 173.424 290.726 149.856 295.374 127.12C291.9 126.451 288.386 126.007 284.854 125.792C280.405 125.536 275.944 125.536 271.494 125.792C268.443 126.099 265.42 126.645 262.454 127.424V127.424Z" fill="black"/>
<path d="M260.128 135.92C259.92 137.576 259.76 139.536 259.656 141.848C262.76 140.916 265.71 139.531 268.408 137.736L260.128 135.92Z" fill="black"/>
<path opacity="0.6" d="M260.128 135.92C259.92 137.576 259.76 139.536 259.656 141.848C262.76 140.916 265.71 139.531 268.408 137.736L260.128 135.92Z" fill="black"/>
<path d="M273.599 136.8C269.391 140.528 253.327 140.152 253.327 140.152L252.799 124.6C258.224 125.372 263.695 125.768 269.175 125.784C278.127 125.6 278.191 132.688 273.599 136.8Z" fill="black"/>
<path opacity="0.4" d="M273.599 136.8C269.391 140.528 253.327 140.152 253.327 140.152L252.799 124.6C258.224 125.372 263.695 125.768 269.175 125.784C278.127 125.6 278.191 132.688 273.599 136.8Z" fill="black"/>
<path d="M219.816 107.392L215.816 102.68L211.504 107.48C211.504 107.48 214.16 111.944 218.376 111.24L219.816 107.392Z" fill="#E4897B"/>
<path d="M210.087 97.1836L208.535 103.336L211.471 107.448L215.783 102.68L210.087 97.1836Z" fill="#E4897B"/>
<path d="M271 314.111L271.304 321.119H277.184L276.88 314.111H271Z" fill="#CE6F64"/>
<path d="M309.798 314.111H303.918L305.438 321.119H311.318L309.798 314.111Z" fill="#CE6F64"/>
<path d="M274.536 98.4002C269.264 96.0002 267.6 85.3362 282.768 88.0002C282.768 88.0002 280.48 90.5282 285.12 92.1282C289.76 93.7282 285.88 103.608 274.536 98.4002Z" fill="#263238"/>
<path d="M285.991 106.4C284.479 112 283.887 115.408 280.391 117.752C275.159 121.272 268.655 117.232 268.447 111.256C268.263 105.888 270.767 97.5756 276.807 96.4396C278.14 96.1782 279.518 96.2627 280.809 96.6851C282.101 97.1075 283.262 97.8537 284.183 98.8525C285.104 99.8512 285.754 101.069 286.07 102.39C286.387 103.712 286.359 105.092 285.991 106.4Z" fill="#E4897B"/>
<path d="M282.559 90.8003C286.151 92.8003 291.015 94.0003 290.559 96.8483C289.959 100.328 293.495 98.1523 292.671 103.328C292.135 106.712 285.895 116.968 281.471 116.472C274.863 115.672 275.703 105.624 275.679 100.328C275.663 97.2003 275.519 86.8563 282.559 90.8003Z" fill="#263238"/>
<path d="M274.886 95.2891C273.286 95.6651 271.166 104.889 277.366 105.737C284.494 106.705 274.886 95.2891 274.886 95.2891Z" fill="#263238"/>
<path d="M275.046 98.5603C273.086 98.7363 268.646 96.3763 269.19 92.8243C269.19 92.8003 271.998 96.9763 275.046 98.5603Z" fill="#263238"/>
<path d="M277.96 106.472C277.358 107.791 276.337 108.874 275.056 109.552C273.368 110.432 272.415 109.152 272.799 107.456C273.143 105.936 274.439 103.64 276.175 103.456C277.911 103.272 278.656 104.872 277.96 106.472Z" fill="#E4897B"/>
<path d="M286.758 100.001C287.953 99.4819 289.002 98.6746 289.809 97.6513C290.616 96.6279 291.156 95.4203 291.382 94.1367C291.382 94.1367 294.022 101.473 286.758 100.001Z" fill="#263238"/>
<path d="M293.431 99.8809C292.875 99.507 292.234 99.277 291.567 99.2113C290.899 99.1457 290.226 99.2466 289.607 99.5049C289.607 99.5049 292.071 96.3129 293.431 99.8809Z" fill="#263238"/>
<path d="M273.254 178.223C273.254 178.223 279.926 223.135 283.582 239.959C287.582 258.359 302.702 319.767 302.702 319.767H313.462C313.462 319.767 303.502 259.871 301.214 241.599C298.734 221.799 293.534 178.191 293.534 178.191L273.254 178.223Z" fill="black"/>
<path opacity="0.5" d="M273.254 178.223C273.254 178.223 279.926 223.135 283.582 239.959C287.582 258.359 302.702 319.767 302.702 319.767H313.462C313.462 319.767 303.502 259.871 301.214 241.599C298.734 221.799 293.534 178.191 293.534 178.191L273.254 178.223Z" fill="white"/>
<path d="M300.982 315.801C300.934 315.801 302.094 319.937 302.094 319.937H314.206L313.982 316.249L300.982 315.801Z" fill="black"/>
<path opacity="0.1" d="M300.982 315.801C300.934 315.801 302.094 319.937 302.094 319.937H314.206L313.982 316.249L300.982 315.801Z" fill="black"/>
<path d="M277.47 194.225C285.182 195.737 284.366 224.497 283.438 239.289C281.214 228.833 277.958 208.713 275.734 194.433C276.272 194.168 276.885 194.095 277.47 194.225Z" fill="black"/>
<path opacity="0.4" d="M277.47 194.225C285.182 195.737 284.366 224.497 283.438 239.289C281.214 228.833 277.958 208.713 275.734 194.433C276.272 194.168 276.885 194.095 277.47 194.225Z" fill="white"/>
<path d="M262.102 178.225C262.102 178.225 261.303 222.161 261.935 240.089C262.599 258.729 269.135 319.769 269.135 319.769H279.086C279.086 319.769 279.454 259.817 279.886 241.513C280.374 221.553 282.783 178.225 282.783 178.225H262.102Z" fill="black"/>
<path opacity="0.5" d="M262.102 178.225C262.102 178.225 261.303 222.161 261.935 240.089C262.599 258.729 269.135 319.769 269.135 319.769H279.086C279.086 319.769 279.454 259.817 279.886 241.513C280.374 221.553 282.783 178.225 282.783 178.225H262.102Z" fill="white"/>
<path d="M271.198 312.616C271.174 312.616 271.15 312.607 271.133 312.591C271.115 312.574 271.104 312.552 271.102 312.528C269.342 295.632 265.206 254.752 264.702 240.088C264.166 225.12 264.654 191.536 264.814 181.6C264.814 181.574 264.824 181.55 264.842 181.532C264.86 181.514 264.884 181.504 264.91 181.504C264.936 181.504 264.961 181.514 264.981 181.531C265 181.549 265.012 181.574 265.014 181.6C264.854 191.536 264.366 225.12 264.902 240.08C265.422 254.744 269.558 295.608 271.302 312.504C271.302 312.531 271.292 312.557 271.275 312.578C271.257 312.599 271.233 312.612 271.206 312.616H271.198Z" fill="black"/>
<path opacity="0.4" d="M271.198 312.616C271.174 312.616 271.15 312.607 271.133 312.591C271.115 312.574 271.104 312.552 271.102 312.528C269.342 295.632 265.206 254.752 264.702 240.088C264.166 225.12 264.654 191.536 264.814 181.6C264.814 181.574 264.824 181.55 264.842 181.532C264.86 181.514 264.884 181.504 264.91 181.504C264.936 181.504 264.961 181.514 264.981 181.531C265 181.549 265.012 181.574 265.014 181.6C264.854 191.536 264.366 225.12 264.902 240.08C265.422 254.744 269.558 295.608 271.302 312.504C271.302 312.531 271.292 312.557 271.275 312.578C271.257 312.599 271.233 312.612 271.206 312.616H271.198Z" fill="white"/>
<path d="M267.199 315.801C267.159 315.801 267.767 319.937 267.767 319.937H279.871L280.199 316.249L267.199 315.801Z" fill="black"/>
<path opacity="0.1" d="M267.199 315.801C267.159 315.801 267.767 319.937 267.767 319.937H279.871L280.199 316.249L267.199 315.801Z" fill="black"/>
</svg>
