<svg width="30" height="30" viewBox="0 0 30 30" fill="none" xmlns="http://www.w3.org/2000/svg">
<path d="M24.3751 27.1875H24.2158C5.79389 26.1281 3.17827 10.5844 2.81264 5.84063C2.78318 5.47179 2.82679 5.10077 2.94096 4.74882C3.05514 4.39687 3.23763 4.07091 3.478 3.78961C3.71837 3.50831 4.01188 3.27721 4.34171 3.10954C4.67155 2.94187 5.03123 2.84093 5.40014 2.8125H10.5658C10.9413 2.81214 11.3083 2.92454 11.6192 3.13515C11.9301 3.34576 12.1706 3.64488 12.3095 3.99375L13.7345 7.5C13.8717 7.84083 13.9058 8.21445 13.8324 8.57446C13.7591 8.93447 13.5816 9.26501 13.322 9.525L11.3251 11.5406C11.6371 13.3132 12.4859 14.9472 13.7569 16.2215C15.0279 17.4959 16.6596 18.349 18.4314 18.6656L20.4658 16.65C20.7297 16.3933 21.0633 16.2199 21.4251 16.1516C21.7869 16.0832 22.1608 16.1229 22.5001 16.2656L26.0345 17.6813C26.3781 17.8246 26.6713 18.067 26.8767 18.3775C27.082 18.688 27.1903 19.0527 27.1876 19.425V24.375C27.1876 25.1209 26.8913 25.8363 26.3639 26.3637C25.8364 26.8912 25.1211 27.1875 24.3751 27.1875ZM5.62514 4.6875C5.3765 4.6875 5.13804 4.78627 4.96223 4.96209C4.78641 5.1379 4.68764 5.37636 4.68764 5.625V5.7C5.11889 11.25 7.88452 24.375 24.3189 25.3125C24.4421 25.3201 24.5655 25.3033 24.6822 25.2631C24.7988 25.2229 24.9064 25.1601 24.9987 25.0782C25.0911 24.9963 25.1663 24.897 25.2202 24.786C25.2741 24.675 25.3055 24.5544 25.3126 24.4312V19.425L21.7783 18.0094L19.0876 20.6812L18.6376 20.625C10.4814 19.6031 9.37514 11.4469 9.37514 11.3625L9.31889 10.9125L11.9814 8.22188L10.5751 4.6875H5.62514Z" fill="black"/>
</svg>
