<svg xmlns="http://www.w3.org/2000/svg" version="1.1" xmlns:xlink="http://www.w3.org/1999/xlink" xmlns:svgjs="http://svgjs.com/svgjs" width="1440" height="560" preserveAspectRatio="none" viewBox="0 0 1440 560"><g mask="url(&quot;#SvgjsMask1012&quot;)" fill="none"><path d="M-104.05 493.35L-104.05 493.35" stroke="rgba(0, 0, 0, 0.17)" stroke-width="1.5"></path><path d="M-104.05 493.35L46.09 510.97" stroke="rgba(0, 0, 0, 0.17)" stroke-width="1.5"></path><path d="M-104.05 493.35L-82.89 653.34" stroke="rgba(0, 0, 0, 0.17)" stroke-width="1.5"></path><path d="M-104.05 493.35L61.66 354.23" stroke="rgba(0, 0, 0, 0.17)" stroke-width="1.5"></path><path d="M-104.05 493.35L94.72 667.96" stroke="rgba(0, 0, 0, 0.17)" stroke-width="1.5"></path><path d="M-82.89 653.34L-82.89 653.34" stroke="rgba(0, 0, 0, 0.17)" stroke-width="1.5"></path><path d="M-82.89 653.34L94.72 667.96" stroke="rgba(0, 0, 0, 0.17)" stroke-width="1.5"></path><path d="M-82.89 653.34L46.09 510.97" stroke="rgba(0, 0, 0, 0.17)" stroke-width="1.5"></path><path d="M61.66 354.23L61.66 354.23" stroke="rgba(0, 0, 0, 0.17)" stroke-width="1.5"></path><path d="M61.66 354.23L46.09 510.97" stroke="rgba(0, 0, 0, 0.17)" stroke-width="1.5"></path><path d="M61.66 354.23L200.67 556.81" stroke="rgba(0, 0, 0, 0.17)" stroke-width="1.5"></path><path d="M61.66 354.23L94.72 667.96" stroke="rgba(0, 0, 0, 0.17)" stroke-width="1.5"></path><path d="M61.66 354.23L-82.89 653.34" stroke="rgba(0, 0, 0, 0.17)" stroke-width="1.5"></path><path d="M61.66 354.23L218.76 659.71" stroke="rgba(0, 0, 0, 0.17)" stroke-width="1.5"></path><path d="M46.09 510.97L46.09 510.97" stroke="rgba(0, 0, 0, 0.17)" stroke-width="1.5"></path><path d="M46.09 510.97L200.67 556.81" stroke="rgba(0, 0, 0, 0.17)" stroke-width="1.5"></path><path d="M46.09 510.97L94.72 667.96" stroke="rgba(0, 0, 0, 0.17)" stroke-width="1.5"></path><path d="M94.72 667.96L94.72 667.96" stroke="rgba(0, 0, 0, 0.17)" stroke-width="1.5"></path><path d="M94.72 667.96L218.76 659.71" stroke="rgba(0, 0, 0, 0.17)" stroke-width="1.5"></path><path d="M94.72 667.96L200.67 556.81" stroke="rgba(0, 0, 0, 0.17)" stroke-width="1.5"></path><path d="M94.72 667.96L368.26 668.04" stroke="rgba(0, 0, 0, 0.17)" stroke-width="1.5"></path><path d="M200.67 556.81L200.67 556.81" stroke="rgba(0, 0, 0, 0.17)" stroke-width="1.5"></path><path d="M200.67 556.81L218.76 659.71" stroke="rgba(0, 0, 0, 0.17)" stroke-width="1.5"></path><path d="M200.67 556.81L361.93 535.76" stroke="rgba(0, 0, 0, 0.17)" stroke-width="1.5"></path><path d="M218.76 659.71L218.76 659.71" stroke="rgba(0, 0, 0, 0.17)" stroke-width="1.5"></path><path d="M218.76 659.71L368.26 668.04" stroke="rgba(0, 0, 0, 0.17)" stroke-width="1.5"></path><path d="M218.76 659.71L361.93 535.76" stroke="rgba(0, 0, 0, 0.17)" stroke-width="1.5"></path><path d="M218.76 659.71L46.09 510.97" stroke="rgba(0, 0, 0, 0.17)" stroke-width="1.5"></path><path d="M410.89 376.63L410.89 376.63" stroke="rgba(0, 0, 0, 0.17)" stroke-width="1.5"></path><path d="M410.89 376.63L529.53 410.16" stroke="rgba(0, 0, 0, 0.17)" stroke-width="1.5"></path><path d="M410.89 376.63L361.93 535.76" stroke="rgba(0, 0, 0, 0.17)" stroke-width="1.5"></path><path d="M410.89 376.63L533.71 517.85" stroke="rgba(0, 0, 0, 0.17)" stroke-width="1.5"></path><path d="M410.89 376.63L657.17 372.72" stroke="rgba(0, 0, 0, 0.17)" stroke-width="1.5"></path><path d="M361.93 535.76L361.93 535.76" stroke="rgba(0, 0, 0, 0.17)" stroke-width="1.5"></path><path d="M361.93 535.76L368.26 668.04" stroke="rgba(0, 0, 0, 0.17)" stroke-width="1.5"></path><path d="M361.93 535.76L533.71 517.85" stroke="rgba(0, 0, 0, 0.17)" stroke-width="1.5"></path><path d="M368.26 668.04L368.26 668.04" stroke="rgba(0, 0, 0, 0.17)" stroke-width="1.5"></path><path d="M368.26 668.04L524.5 667.01" stroke="rgba(0, 0, 0, 0.17)" stroke-width="1.5"></path><path d="M529.53 410.16L529.53 410.16" stroke="rgba(0, 0, 0, 0.17)" stroke-width="1.5"></path><path d="M529.53 410.16L533.71 517.85" stroke="rgba(0, 0, 0, 0.17)" stroke-width="1.5"></path><path d="M529.53 410.16L657.17 372.72" stroke="rgba(0, 0, 0, 0.17)" stroke-width="1.5"></path><path d="M529.53 410.16L361.93 535.76" stroke="rgba(0, 0, 0, 0.17)" stroke-width="1.5"></path><path d="M529.53 410.16L696.93 539.43" stroke="rgba(0, 0, 0, 0.17)" stroke-width="1.5"></path><path d="M529.53 410.16L684.58 245.27" stroke="rgba(0, 0, 0, 0.17)" stroke-width="1.5"></path><path d="M533.71 517.85L533.71 517.85" stroke="rgba(0, 0, 0, 0.17)" stroke-width="1.5"></path><path d="M533.71 517.85L524.5 667.01" stroke="rgba(0, 0, 0, 0.17)" stroke-width="1.5"></path><path d="M524.5 667.01L524.5 667.01" stroke="rgba(0, 0, 0, 0.17)" stroke-width="1.5"></path><path d="M524.5 667.01L708.99 682.53" stroke="rgba(0, 0, 0, 0.17)" stroke-width="1.5"></path><path d="M684.58 245.27L684.58 245.27" stroke="rgba(0, 0, 0, 0.17)" stroke-width="1.5"></path><path d="M684.58 245.27L657.17 372.72" stroke="rgba(0, 0, 0, 0.17)" stroke-width="1.5"></path><path d="M684.58 245.27L833.62 361.38" stroke="rgba(0, 0, 0, 0.17)" stroke-width="1.5"></path><path d="M684.58 245.27L962.59 191.53" stroke="rgba(0, 0, 0, 0.17)" stroke-width="1.5"></path><path d="M684.58 245.27L696.93 539.43" stroke="rgba(0, 0, 0, 0.17)" stroke-width="1.5"></path><path d="M684.58 245.27L410.89 376.63" stroke="rgba(0, 0, 0, 0.17)" stroke-width="1.5"></path><path d="M657.17 372.72L657.17 372.72" stroke="rgba(0, 0, 0, 0.17)" stroke-width="1.5"></path><path d="M696.93 539.43L696.93 539.43" stroke="rgba(0, 0, 0, 0.17)" stroke-width="1.5"></path><path d="M696.93 539.43L708.99 682.53" stroke="rgba(0, 0, 0, 0.17)" stroke-width="1.5"></path><path d="M696.93 539.43L809.01 651.24" stroke="rgba(0, 0, 0, 0.17)" stroke-width="1.5"></path><path d="M696.93 539.43L533.71 517.85" stroke="rgba(0, 0, 0, 0.17)" stroke-width="1.5"></path><path d="M696.93 539.43L657.17 372.72" stroke="rgba(0, 0, 0, 0.17)" stroke-width="1.5"></path><path d="M696.93 539.43L524.5 667.01" stroke="rgba(0, 0, 0, 0.17)" stroke-width="1.5"></path><path d="M708.99 682.53L708.99 682.53" stroke="rgba(0, 0, 0, 0.17)" stroke-width="1.5"></path><path d="M708.99 682.53L809.01 651.24" stroke="rgba(0, 0, 0, 0.17)" stroke-width="1.5"></path><path d="M833.62 361.38L833.62 361.38" stroke="rgba(0, 0, 0, 0.17)" stroke-width="1.5"></path><path d="M833.62 361.38L657.17 372.72" stroke="rgba(0, 0, 0, 0.17)" stroke-width="1.5"></path><path d="M833.62 361.38L1010.11 406.34" stroke="rgba(0, 0, 0, 0.17)" stroke-width="1.5"></path><path d="M833.62 361.38L980.96 499.95" stroke="rgba(0, 0, 0, 0.17)" stroke-width="1.5"></path><path d="M833.62 361.38L962.59 191.53" stroke="rgba(0, 0, 0, 0.17)" stroke-width="1.5"></path><path d="M833.62 361.38L696.93 539.43" stroke="rgba(0, 0, 0, 0.17)" stroke-width="1.5"></path><path d="M809.01 651.24L809.01 651.24" stroke="rgba(0, 0, 0, 0.17)" stroke-width="1.5"></path><path d="M809.01 651.24L1003.23 679.4" stroke="rgba(0, 0, 0, 0.17)" stroke-width="1.5"></path><path d="M809.01 651.24L980.96 499.95" stroke="rgba(0, 0, 0, 0.17)" stroke-width="1.5"></path><path d="M809.01 651.24L524.5 667.01" stroke="rgba(0, 0, 0, 0.17)" stroke-width="1.5"></path><path d="M809.01 651.24L833.62 361.38" stroke="rgba(0, 0, 0, 0.17)" stroke-width="1.5"></path><path d="M939.56 -74.21L939.56 -74.21" stroke="rgba(0, 0, 0, 0.17)" stroke-width="1.5"></path><path d="M939.56 -74.21L960.07 93.27" stroke="rgba(0, 0, 0, 0.17)" stroke-width="1.5"></path><path d="M939.56 -74.21L1144.19 -77.24" stroke="rgba(0, 0, 0, 0.17)" stroke-width="1.5"></path><path d="M939.56 -74.21L1127.59 77.59" stroke="rgba(0, 0, 0, 0.17)" stroke-width="1.5"></path><path d="M939.56 -74.21L962.59 191.53" stroke="rgba(0, 0, 0, 0.17)" stroke-width="1.5"></path><path d="M939.56 -74.21L1268.35 60.99" stroke="rgba(0, 0, 0, 0.17)" stroke-width="1.5"></path><path d="M939.56 -74.21L1298.42 -64.76" stroke="rgba(0, 0, 0, 0.17)" stroke-width="1.5"></path><path d="M960.07 93.27L960.07 93.27" stroke="rgba(0, 0, 0, 0.17)" stroke-width="1.5"></path><path d="M960.07 93.27L962.59 191.53" stroke="rgba(0, 0, 0, 0.17)" stroke-width="1.5"></path><path d="M960.07 93.27L1127.59 77.59" stroke="rgba(0, 0, 0, 0.17)" stroke-width="1.5"></path><path d="M960.07 93.27L1132.22 253.75" stroke="rgba(0, 0, 0, 0.17)" stroke-width="1.5"></path><path d="M962.59 191.53L962.59 191.53" stroke="rgba(0, 0, 0, 0.17)" stroke-width="1.5"></path><path d="M962.59 191.53L1132.22 253.75" stroke="rgba(0, 0, 0, 0.17)" stroke-width="1.5"></path><path d="M962.59 191.53L1127.59 77.59" stroke="rgba(0, 0, 0, 0.17)" stroke-width="1.5"></path><path d="M1010.11 406.34L1010.11 406.34" stroke="rgba(0, 0, 0, 0.17)" stroke-width="1.5"></path><path d="M1010.11 406.34L980.96 499.95" stroke="rgba(0, 0, 0, 0.17)" stroke-width="1.5"></path><path d="M1010.11 406.34L1138.48 353.79" stroke="rgba(0, 0, 0, 0.17)" stroke-width="1.5"></path><path d="M980.96 499.95L980.96 499.95" stroke="rgba(0, 0, 0, 0.17)" stroke-width="1.5"></path><path d="M980.96 499.95L1151.8 551.45" stroke="rgba(0, 0, 0, 0.17)" stroke-width="1.5"></path><path d="M980.96 499.95L1003.23 679.4" stroke="rgba(0, 0, 0, 0.17)" stroke-width="1.5"></path><path d="M980.96 499.95L1138.48 353.79" stroke="rgba(0, 0, 0, 0.17)" stroke-width="1.5"></path><path d="M1003.23 679.4L1003.23 679.4" stroke="rgba(0, 0, 0, 0.17)" stroke-width="1.5"></path><path d="M1003.23 679.4L1150.82 678.91" stroke="rgba(0, 0, 0, 0.17)" stroke-width="1.5"></path><path d="M1003.23 679.4L1151.8 551.45" stroke="rgba(0, 0, 0, 0.17)" stroke-width="1.5"></path><path d="M1003.23 679.4L1010.11 406.34" stroke="rgba(0, 0, 0, 0.17)" stroke-width="1.5"></path><path d="M1003.23 679.4L708.99 682.53" stroke="rgba(0, 0, 0, 0.17)" stroke-width="1.5"></path><path d="M1144.19 -77.24L1144.19 -77.24" stroke="rgba(0, 0, 0, 0.17)" stroke-width="1.5"></path><path d="M1144.19 -77.24L1298.42 -64.76" stroke="rgba(0, 0, 0, 0.17)" stroke-width="1.5"></path><path d="M1144.19 -77.24L1127.59 77.59" stroke="rgba(0, 0, 0, 0.17)" stroke-width="1.5"></path><path d="M1144.19 -77.24L1268.35 60.99" stroke="rgba(0, 0, 0, 0.17)" stroke-width="1.5"></path><path d="M1144.19 -77.24L960.07 93.27" stroke="rgba(0, 0, 0, 0.17)" stroke-width="1.5"></path><path d="M1127.59 77.59L1127.59 77.59" stroke="rgba(0, 0, 0, 0.17)" stroke-width="1.5"></path><path d="M1127.59 77.59L1268.35 60.99" stroke="rgba(0, 0, 0, 0.17)" stroke-width="1.5"></path><path d="M1132.22 253.75L1132.22 253.75" stroke="rgba(0, 0, 0, 0.17)" stroke-width="1.5"></path><path d="M1132.22 253.75L1138.48 353.79" stroke="rgba(0, 0, 0, 0.17)" stroke-width="1.5"></path><path d="M1132.22 253.75L1237.63 252.86" stroke="rgba(0, 0, 0, 0.17)" stroke-width="1.5"></path><path d="M1132.22 253.75L1127.59 77.59" stroke="rgba(0, 0, 0, 0.17)" stroke-width="1.5"></path><path d="M1138.48 353.79L1138.48 353.79" stroke="rgba(0, 0, 0, 0.17)" stroke-width="1.5"></path><path d="M1138.48 353.79L1237.63 252.86" stroke="rgba(0, 0, 0, 0.17)" stroke-width="1.5"></path><path d="M1138.48 353.79L1282.26 373.43" stroke="rgba(0, 0, 0, 0.17)" stroke-width="1.5"></path><path d="M1138.48 353.79L1151.8 551.45" stroke="rgba(0, 0, 0, 0.17)" stroke-width="1.5"></path><path d="M1151.8 551.45L1151.8 551.45" stroke="rgba(0, 0, 0, 0.17)" stroke-width="1.5"></path><path d="M1151.8 551.45L1150.82 678.91" stroke="rgba(0, 0, 0, 0.17)" stroke-width="1.5"></path><path d="M1151.8 551.45L1276.37 522.61" stroke="rgba(0, 0, 0, 0.17)" stroke-width="1.5"></path><path d="M1150.82 678.91L1150.82 678.91" stroke="rgba(0, 0, 0, 0.17)" stroke-width="1.5"></path><path d="M1150.82 678.91L1302.26 679.58" stroke="rgba(0, 0, 0, 0.17)" stroke-width="1.5"></path><path d="M1150.82 678.91L1276.37 522.61" stroke="rgba(0, 0, 0, 0.17)" stroke-width="1.5"></path><path d="M1298.42 -64.76L1298.42 -64.76" stroke="rgba(0, 0, 0, 0.17)" stroke-width="1.5"></path><path d="M1298.42 -64.76L1268.35 60.99" stroke="rgba(0, 0, 0, 0.17)" stroke-width="1.5"></path><path d="M1298.42 -64.76L1454.09 -64.84" stroke="rgba(0, 0, 0, 0.17)" stroke-width="1.5"></path><path d="M1298.42 -64.76L1435.88 44.52" stroke="rgba(0, 0, 0, 0.17)" stroke-width="1.5"></path><path d="M1298.42 -64.76L1127.59 77.59" stroke="rgba(0, 0, 0, 0.17)" stroke-width="1.5"></path><path d="M1298.42 -64.76L1590.64 -94.52" stroke="rgba(0, 0, 0, 0.17)" stroke-width="1.5"></path><path d="M1268.35 60.99L1268.35 60.99" stroke="rgba(0, 0, 0, 0.17)" stroke-width="1.5"></path><path d="M1237.63 252.86L1237.63 252.86" stroke="rgba(0, 0, 0, 0.17)" stroke-width="1.5"></path><path d="M1237.63 252.86L1282.26 373.43" stroke="rgba(0, 0, 0, 0.17)" stroke-width="1.5"></path><path d="M1237.63 252.86L1268.35 60.99" stroke="rgba(0, 0, 0, 0.17)" stroke-width="1.5"></path><path d="M1282.26 373.43L1282.26 373.43" stroke="rgba(0, 0, 0, 0.17)" stroke-width="1.5"></path><path d="M1282.26 373.43L1276.37 522.61" stroke="rgba(0, 0, 0, 0.17)" stroke-width="1.5"></path><path d="M1282.26 373.43L1450.54 381.74" stroke="rgba(0, 0, 0, 0.17)" stroke-width="1.5"></path><path d="M1276.37 522.61L1276.37 522.61" stroke="rgba(0, 0, 0, 0.17)" stroke-width="1.5"></path><path d="M1276.37 522.61L1425.33 500.12" stroke="rgba(0, 0, 0, 0.17)" stroke-width="1.5"></path><path d="M1276.37 522.61L1302.26 679.58" stroke="rgba(0, 0, 0, 0.17)" stroke-width="1.5"></path><path d="M1302.26 679.58L1302.26 679.58" stroke="rgba(0, 0, 0, 0.17)" stroke-width="1.5"></path><path d="M1302.26 679.58L1456.32 667.89" stroke="rgba(0, 0, 0, 0.17)" stroke-width="1.5"></path><path d="M1454.09 -64.84L1454.09 -64.84" stroke="rgba(0, 0, 0, 0.17)" stroke-width="1.5"></path><path d="M1454.09 -64.84L1435.88 44.52" stroke="rgba(0, 0, 0, 0.17)" stroke-width="1.5"></path><path d="M1454.09 -64.84L1590.64 -94.52" stroke="rgba(0, 0, 0, 0.17)" stroke-width="1.5"></path><path d="M1435.88 44.52L1435.88 44.52" stroke="rgba(0, 0, 0, 0.17)" stroke-width="1.5"></path><path d="M1435.88 44.52L1593.74 67.92" stroke="rgba(0, 0, 0, 0.17)" stroke-width="1.5"></path><path d="M1435.88 44.52L1268.35 60.99" stroke="rgba(0, 0, 0, 0.17)" stroke-width="1.5"></path><path d="M1453.64 255.51L1453.64 255.51" stroke="rgba(0, 0, 0, 0.17)" stroke-width="1.5"></path><path d="M1453.64 255.51L1450.54 381.74" stroke="rgba(0, 0, 0, 0.17)" stroke-width="1.5"></path><path d="M1453.64 255.51L1608.02 257.21" stroke="rgba(0, 0, 0, 0.17)" stroke-width="1.5"></path><path d="M1453.64 255.51L1584.35 368.04" stroke="rgba(0, 0, 0, 0.17)" stroke-width="1.5"></path><path d="M1450.54 381.74L1450.54 381.74" stroke="rgba(0, 0, 0, 0.17)" stroke-width="1.5"></path><path d="M1450.54 381.74L1425.33 500.12" stroke="rgba(0, 0, 0, 0.17)" stroke-width="1.5"></path><path d="M1450.54 381.74L1584.35 368.04" stroke="rgba(0, 0, 0, 0.17)" stroke-width="1.5"></path><path d="M1425.33 500.12L1425.33 500.12" stroke="rgba(0, 0, 0, 0.17)" stroke-width="1.5"></path><path d="M1425.33 500.12L1543.38 562.12" stroke="rgba(0, 0, 0, 0.17)" stroke-width="1.5"></path><path d="M1456.32 667.89L1456.32 667.89" stroke="rgba(0, 0, 0, 0.17)" stroke-width="1.5"></path><path d="M1456.32 667.89L1543.38 562.12" stroke="rgba(0, 0, 0, 0.17)" stroke-width="1.5"></path><path d="M1590.64 -94.52L1590.64 -94.52" stroke="rgba(0, 0, 0, 0.17)" stroke-width="1.5"></path><path d="M1590.64 -94.52L1593.74 67.92" stroke="rgba(0, 0, 0, 0.17)" stroke-width="1.5"></path><path d="M1593.74 67.92L1593.74 67.92" stroke="rgba(0, 0, 0, 0.17)" stroke-width="1.5"></path><path d="M1593.74 67.92L1608.02 257.21" stroke="rgba(0, 0, 0, 0.17)" stroke-width="1.5"></path><path d="M1593.74 67.92L1454.09 -64.84" stroke="rgba(0, 0, 0, 0.17)" stroke-width="1.5"></path><path d="M1608.02 257.21L1608.02 257.21" stroke="rgba(0, 0, 0, 0.17)" stroke-width="1.5"></path><path d="M1608.02 257.21L1584.35 368.04" stroke="rgba(0, 0, 0, 0.17)" stroke-width="1.5"></path><path d="M1608.02 257.21L1450.54 381.74" stroke="rgba(0, 0, 0, 0.17)" stroke-width="1.5"></path><path d="M1608.02 257.21L1435.88 44.52" stroke="rgba(0, 0, 0, 0.17)" stroke-width="1.5"></path><path d="M1608.02 257.21L1425.33 500.12" stroke="rgba(0, 0, 0, 0.17)" stroke-width="1.5"></path><path d="M1584.35 368.04L1584.35 368.04" stroke="rgba(0, 0, 0, 0.17)" stroke-width="1.5"></path><path d="M1584.35 368.04L1543.38 562.12" stroke="rgba(0, 0, 0, 0.17)" stroke-width="1.5"></path><path d="M1584.35 368.04L1425.33 500.12" stroke="rgba(0, 0, 0, 0.17)" stroke-width="1.5"></path><path d="M1543.38 562.12L1543.38 562.12" stroke="rgba(0, 0, 0, 0.17)" stroke-width="1.5"></path><path d="M1543.38 562.12L1599.2 696.73" stroke="rgba(0, 0, 0, 0.17)" stroke-width="1.5"></path><path d="M1599.2 696.73L1599.2 696.73" stroke="rgba(0, 0, 0, 0.17)" stroke-width="1.5"></path><path d="M1599.2 696.73L1456.32 667.89" stroke="rgba(0, 0, 0, 0.17)" stroke-width="1.5"></path><circle r="5" cx="-104.05" cy="493.35" fill="rgba(0, 0, 0, 0.17)"></circle><circle r="5" cx="-82.89" cy="653.34" fill="rgba(0, 0, 0, 0.17)"></circle><circle r="5" cx="61.66" cy="354.23" fill="rgba(0, 0, 0, 0.17)"></circle><circle r="5" cx="46.09" cy="510.97" fill="rgba(0, 0, 0, 0.17)"></circle><circle r="5" cx="94.72" cy="667.96" fill="rgba(0, 0, 0, 0.17)"></circle><circle r="5" cx="200.67" cy="556.81" fill="rgba(0, 0, 0, 0.17)"></circle><circle r="5" cx="218.76" cy="659.71" fill="rgba(0, 0, 0, 0.17)"></circle><circle r="5" cx="410.89" cy="376.63" fill="rgba(0, 0, 0, 0.17)"></circle><circle r="5" cx="361.93" cy="535.76" fill="rgba(0, 0, 0, 0.17)"></circle><circle r="5" cx="368.26" cy="668.04" fill="rgba(0, 0, 0, 0.17)"></circle><circle r="5" cx="529.53" cy="410.16" fill="rgba(0, 0, 0, 0.17)"></circle><circle r="5" cx="533.71" cy="517.85" fill="rgba(0, 0, 0, 0.17)"></circle><circle r="5" cx="524.5" cy="667.01" fill="rgba(0, 0, 0, 0.17)"></circle><circle r="5" cx="684.58" cy="245.27" fill="rgba(0, 0, 0, 0.17)"></circle><circle r="5" cx="657.17" cy="372.72" fill="rgba(0, 0, 0, 0.17)"></circle><circle r="5" cx="696.93" cy="539.43" fill="rgba(0, 0, 0, 0.17)"></circle><circle r="5" cx="708.99" cy="682.53" fill="rgba(0, 0, 0, 0.17)"></circle><circle r="5" cx="833.62" cy="361.38" fill="rgba(0, 0, 0, 0.17)"></circle><circle r="5" cx="809.01" cy="651.24" fill="rgba(0, 0, 0, 0.17)"></circle><circle r="5" cx="939.56" cy="-74.21" fill="rgba(0, 0, 0, 0.17)"></circle><circle r="5" cx="960.07" cy="93.27" fill="rgba(0, 0, 0, 0.17)"></circle><circle r="5" cx="962.59" cy="191.53" fill="rgba(0, 0, 0, 0.17)"></circle><circle r="5" cx="1010.11" cy="406.34" fill="rgba(0, 0, 0, 0.17)"></circle><circle r="5" cx="980.96" cy="499.95" fill="rgba(0, 0, 0, 0.17)"></circle><circle r="5" cx="1003.23" cy="679.4" fill="rgba(0, 0, 0, 0.17)"></circle><circle r="5" cx="1144.19" cy="-77.24" fill="rgba(0, 0, 0, 0.17)"></circle><circle r="5" cx="1127.59" cy="77.59" fill="rgba(0, 0, 0, 0.17)"></circle><circle r="5" cx="1132.22" cy="253.75" fill="rgba(0, 0, 0, 0.17)"></circle><circle r="5" cx="1138.48" cy="353.79" fill="rgba(0, 0, 0, 0.17)"></circle><circle r="5" cx="1151.8" cy="551.45" fill="rgba(0, 0, 0, 0.17)"></circle><circle r="5" cx="1150.82" cy="678.91" fill="rgba(0, 0, 0, 0.17)"></circle><circle r="5" cx="1298.42" cy="-64.76" fill="rgba(0, 0, 0, 0.17)"></circle><circle r="5" cx="1268.35" cy="60.99" fill="rgba(0, 0, 0, 0.17)"></circle><circle r="5" cx="1237.63" cy="252.86" fill="rgba(0, 0, 0, 0.17)"></circle><circle r="5" cx="1282.26" cy="373.43" fill="rgba(0, 0, 0, 0.17)"></circle><circle r="5" cx="1276.37" cy="522.61" fill="rgba(0, 0, 0, 0.17)"></circle><circle r="5" cx="1302.26" cy="679.58" fill="rgba(0, 0, 0, 0.17)"></circle><circle r="5" cx="1454.09" cy="-64.84" fill="rgba(0, 0, 0, 0.17)"></circle><circle r="5" cx="1435.88" cy="44.52" fill="rgba(0, 0, 0, 0.17)"></circle><circle r="5" cx="1453.64" cy="255.51" fill="rgba(0, 0, 0, 0.17)"></circle><circle r="5" cx="1450.54" cy="381.74" fill="rgba(0, 0, 0, 0.17)"></circle><circle r="5" cx="1425.33" cy="500.12" fill="rgba(0, 0, 0, 0.17)"></circle><circle r="5" cx="1456.32" cy="667.89" fill="rgba(0, 0, 0, 0.17)"></circle><circle r="5" cx="1590.64" cy="-94.52" fill="rgba(0, 0, 0, 0.17)"></circle><circle r="5" cx="1593.74" cy="67.92" fill="rgba(0, 0, 0, 0.17)"></circle><circle r="5" cx="1608.02" cy="257.21" fill="rgba(0, 0, 0, 0.17)"></circle><circle r="5" cx="1584.35" cy="368.04" fill="rgba(0, 0, 0, 0.17)"></circle><circle r="5" cx="1543.38" cy="562.12" fill="rgba(0, 0, 0, 0.17)"></circle><circle r="5" cx="1599.2" cy="696.73" fill="rgba(0, 0, 0, 0.17)"></circle><path d="M-80.01 529.2L-80.01 529.2" stroke="hsla(0, 0%, 0%, 0.19)" stroke-width="1.5"></path><path d="M-80.01 529.2L45.57 556.85" stroke="hsla(0, 0%, 0%, 0.19)" stroke-width="1.5"></path><path d="M-80.01 529.2L-90.95 686.51" stroke="hsla(0, 0%, 0%, 0.19)" stroke-width="1.5"></path><path d="M-80.01 529.2L50.01 652.01" stroke="hsla(0, 0%, 0%, 0.19)" stroke-width="1.5"></path><path d="M50.01 652.01L50.01 652.01" stroke="hsla(0, 0%, 0%, 0.19)" stroke-width="1.5"></path><path d="M50.01 652.01L45.57 556.85" stroke="hsla(0, 0%, 0%, 0.19)" stroke-width="1.5"></path><path d="M50.01 652.01L-90.95 686.51" stroke="hsla(0, 0%, 0%, 0.19)" stroke-width="1.5"></path><path d="M50.01 652.01L195.45 692.79" stroke="hsla(0, 0%, 0%, 0.19)" stroke-width="1.5"></path><path d="M398.12 518.55L398.12 518.55" stroke="hsla(0, 0%, 0%, 0.19)" stroke-width="1.5"></path><path d="M398.12 518.55L520.28 508.36" stroke="hsla(0, 0%, 0%, 0.19)" stroke-width="1.5"></path><path d="M398.12 518.55L361.31 693.59" stroke="hsla(0, 0%, 0%, 0.19)" stroke-width="1.5"></path><path d="M520.28 508.36L520.28 508.36" stroke="hsla(0, 0%, 0%, 0.19)" stroke-width="1.5"></path><path d="M520.28 508.36L641.07 502.62" stroke="hsla(0, 0%, 0%, 0.19)" stroke-width="1.5"></path><path d="M789.88 672.94L789.88 672.94" stroke="hsla(0, 0%, 0%, 0.19)" stroke-width="1.5"></path><path d="M789.88 672.94L861.73 549.25" stroke="hsla(0, 0%, 0%, 0.19)" stroke-width="1.5"></path><path d="M789.88 672.94L638.35 699.83" stroke="hsla(0, 0%, 0%, 0.19)" stroke-width="1.5"></path><path d="M789.88 672.94L971.43 666.05" stroke="hsla(0, 0%, 0%, 0.19)" stroke-width="1.5"></path><path d="M789.88 672.94L940.48 550.07" stroke="hsla(0, 0%, 0%, 0.19)" stroke-width="1.5"></path><path d="M789.88 672.94L641.07 502.62" stroke="hsla(0, 0%, 0%, 0.19)" stroke-width="1.5"></path><path d="M789.88 672.94L693.36 382.97" stroke="hsla(0, 0%, 0%, 0.19)" stroke-width="1.5"></path><path d="M1251.91 -103.74L1251.91 -103.74" stroke="hsla(0, 0%, 0%, 0.19)" stroke-width="1.5"></path><path d="M1251.91 -103.74L1300.63 103.73" stroke="hsla(0, 0%, 0%, 0.19)" stroke-width="1.5"></path><path d="M1251.91 -103.74L1418.83 88.58" stroke="hsla(0, 0%, 0%, 0.19)" stroke-width="1.5"></path><path d="M1251.91 -103.74L1145.21 203.87" stroke="hsla(0, 0%, 0%, 0.19)" stroke-width="1.5"></path><path d="M1251.91 -103.74L1589.43 -65.38" stroke="hsla(0, 0%, 0%, 0.19)" stroke-width="1.5"></path><path d="M1251.91 -103.74L1453.83 197.76" stroke="hsla(0, 0%, 0%, 0.19)" stroke-width="1.5"></path><path d="M1299.12 338.03L1299.12 338.03" stroke="hsla(0, 0%, 0%, 0.19)" stroke-width="1.5"></path><path d="M1299.12 338.03L1250.92 260.82" stroke="hsla(0, 0%, 0%, 0.19)" stroke-width="1.5"></path><path d="M1299.12 338.03L1428.45 359.67" stroke="hsla(0, 0%, 0%, 0.19)" stroke-width="1.5"></path><path d="M1299.12 338.03L1126.85 399.45" stroke="hsla(0, 0%, 0%, 0.19)" stroke-width="1.5"></path><path d="M1299.12 338.03L1145.21 203.87" stroke="hsla(0, 0%, 0%, 0.19)" stroke-width="1.5"></path><path d="M1570.72 72.31L1570.72 72.31" stroke="hsla(0, 0%, 0%, 0.19)" stroke-width="1.5"></path><path d="M1570.72 72.31L1575.22 197.21" stroke="hsla(0, 0%, 0%, 0.19)" stroke-width="1.5"></path><path d="M1570.72 72.31L1589.43 -65.38" stroke="hsla(0, 0%, 0%, 0.19)" stroke-width="1.5"></path><path d="M1570.72 72.31L1418.83 88.58" stroke="hsla(0, 0%, 0%, 0.19)" stroke-width="1.5"></path><path d="M1570.72 72.31L1453.83 197.76" stroke="hsla(0, 0%, 0%, 0.19)" stroke-width="1.5"></path><path d="M1570.72 72.31L1300.63 103.73" stroke="hsla(0, 0%, 0%, 0.19)" stroke-width="1.5"></path><path d="M-90.95 686.51L-90.95 686.51" stroke="hsla(0, 0%, 0%, 0.19)" stroke-width="1.5"></path><path d="M45.57 556.85L45.57 556.85" stroke="hsla(0, 0%, 0%, 0.19)" stroke-width="1.5"></path><path d="M45.57 556.85L-90.95 686.51" stroke="hsla(0, 0%, 0%, 0.19)" stroke-width="1.5"></path><path d="M45.57 556.85L195.45 692.79" stroke="hsla(0, 0%, 0%, 0.19)" stroke-width="1.5"></path><path d="M45.57 556.85L361.31 693.59" stroke="hsla(0, 0%, 0%, 0.19)" stroke-width="1.5"></path><path d="M45.57 556.85L398.12 518.55" stroke="hsla(0, 0%, 0%, 0.19)" stroke-width="1.5"></path><path d="M195.45 692.79L195.45 692.79" stroke="hsla(0, 0%, 0%, 0.19)" stroke-width="1.5"></path><path d="M195.45 692.79L361.31 693.59" stroke="hsla(0, 0%, 0%, 0.19)" stroke-width="1.5"></path><path d="M195.45 692.79L398.12 518.55" stroke="hsla(0, 0%, 0%, 0.19)" stroke-width="1.5"></path><path d="M195.45 692.79L-90.95 686.51" stroke="hsla(0, 0%, 0%, 0.19)" stroke-width="1.5"></path><path d="M361.31 693.59L361.31 693.59" stroke="hsla(0, 0%, 0%, 0.19)" stroke-width="1.5"></path><path d="M361.31 693.59L520.28 508.36" stroke="hsla(0, 0%, 0%, 0.19)" stroke-width="1.5"></path><path d="M361.31 693.59L638.35 699.83" stroke="hsla(0, 0%, 0%, 0.19)" stroke-width="1.5"></path><path d="M361.31 693.59L50.01 652.01" stroke="hsla(0, 0%, 0%, 0.19)" stroke-width="1.5"></path><path d="M693.36 382.97L693.36 382.97" stroke="hsla(0, 0%, 0%, 0.19)" stroke-width="1.5"></path><path d="M693.36 382.97L641.07 502.62" stroke="hsla(0, 0%, 0%, 0.19)" stroke-width="1.5"></path><path d="M693.36 382.97L831.77 356.67" stroke="hsla(0, 0%, 0%, 0.19)" stroke-width="1.5"></path><path d="M693.36 382.97L520.28 508.36" stroke="hsla(0, 0%, 0%, 0.19)" stroke-width="1.5"></path><path d="M693.36 382.97L861.73 549.25" stroke="hsla(0, 0%, 0%, 0.19)" stroke-width="1.5"></path><path d="M641.07 502.62L641.07 502.62" stroke="hsla(0, 0%, 0%, 0.19)" stroke-width="1.5"></path><path d="M641.07 502.62L638.35 699.83" stroke="hsla(0, 0%, 0%, 0.19)" stroke-width="1.5"></path><path d="M641.07 502.62L861.73 549.25" stroke="hsla(0, 0%, 0%, 0.19)" stroke-width="1.5"></path><path d="M638.35 699.83L638.35 699.83" stroke="hsla(0, 0%, 0%, 0.19)" stroke-width="1.5"></path><path d="M831.77 356.67L831.77 356.67" stroke="hsla(0, 0%, 0%, 0.19)" stroke-width="1.5"></path><path d="M831.77 356.67L960.02 368.16" stroke="hsla(0, 0%, 0%, 0.19)" stroke-width="1.5"></path><path d="M831.77 356.67L861.73 549.25" stroke="hsla(0, 0%, 0%, 0.19)" stroke-width="1.5"></path><path d="M861.73 549.25L861.73 549.25" stroke="hsla(0, 0%, 0%, 0.19)" stroke-width="1.5"></path><path d="M861.73 549.25L940.48 550.07" stroke="hsla(0, 0%, 0%, 0.19)" stroke-width="1.5"></path><path d="M861.73 549.25L971.43 666.05" stroke="hsla(0, 0%, 0%, 0.19)" stroke-width="1.5"></path><path d="M960.02 368.16L960.02 368.16" stroke="hsla(0, 0%, 0%, 0.19)" stroke-width="1.5"></path><path d="M960.02 368.16L1126.85 399.45" stroke="hsla(0, 0%, 0%, 0.19)" stroke-width="1.5"></path><path d="M960.02 368.16L940.48 550.07" stroke="hsla(0, 0%, 0%, 0.19)" stroke-width="1.5"></path><path d="M940.48 550.07L940.48 550.07" stroke="hsla(0, 0%, 0%, 0.19)" stroke-width="1.5"></path><path d="M940.48 550.07L971.43 666.05" stroke="hsla(0, 0%, 0%, 0.19)" stroke-width="1.5"></path><path d="M971.43 666.05L971.43 666.05" stroke="hsla(0, 0%, 0%, 0.19)" stroke-width="1.5"></path><path d="M971.43 666.05L1104.61 645.46" stroke="hsla(0, 0%, 0%, 0.19)" stroke-width="1.5"></path><path d="M1145.21 203.87L1145.21 203.87" stroke="hsla(0, 0%, 0%, 0.19)" stroke-width="1.5"></path><path d="M1145.21 203.87L1250.92 260.82" stroke="hsla(0, 0%, 0%, 0.19)" stroke-width="1.5"></path><path d="M1145.21 203.87L1300.63 103.73" stroke="hsla(0, 0%, 0%, 0.19)" stroke-width="1.5"></path><path d="M1145.21 203.87L1126.85 399.45" stroke="hsla(0, 0%, 0%, 0.19)" stroke-width="1.5"></path><path d="M1145.21 203.87L960.02 368.16" stroke="hsla(0, 0%, 0%, 0.19)" stroke-width="1.5"></path><path d="M1126.85 399.45L1126.85 399.45" stroke="hsla(0, 0%, 0%, 0.19)" stroke-width="1.5"></path><path d="M1126.85 399.45L1143.53 522.54" stroke="hsla(0, 0%, 0%, 0.19)" stroke-width="1.5"></path><path d="M1143.53 522.54L1143.53 522.54" stroke="hsla(0, 0%, 0%, 0.19)" stroke-width="1.5"></path><path d="M1143.53 522.54L1104.61 645.46" stroke="hsla(0, 0%, 0%, 0.19)" stroke-width="1.5"></path><path d="M1104.61 645.46L1104.61 645.46" stroke="hsla(0, 0%, 0%, 0.19)" stroke-width="1.5"></path><path d="M1104.61 645.46L940.48 550.07" stroke="hsla(0, 0%, 0%, 0.19)" stroke-width="1.5"></path><path d="M1104.61 645.46L1309.77 561.97" stroke="hsla(0, 0%, 0%, 0.19)" stroke-width="1.5"></path><path d="M1104.61 645.46L1126.85 399.45" stroke="hsla(0, 0%, 0%, 0.19)" stroke-width="1.5"></path><path d="M1300.63 103.73L1300.63 103.73" stroke="hsla(0, 0%, 0%, 0.19)" stroke-width="1.5"></path><path d="M1300.63 103.73L1418.83 88.58" stroke="hsla(0, 0%, 0%, 0.19)" stroke-width="1.5"></path><path d="M1300.63 103.73L1250.92 260.82" stroke="hsla(0, 0%, 0%, 0.19)" stroke-width="1.5"></path><path d="M1300.63 103.73L1453.83 197.76" stroke="hsla(0, 0%, 0%, 0.19)" stroke-width="1.5"></path><path d="M1250.92 260.82L1250.92 260.82" stroke="hsla(0, 0%, 0%, 0.19)" stroke-width="1.5"></path><path d="M1250.92 260.82L1126.85 399.45" stroke="hsla(0, 0%, 0%, 0.19)" stroke-width="1.5"></path><path d="M1250.92 260.82L1428.45 359.67" stroke="hsla(0, 0%, 0%, 0.19)" stroke-width="1.5"></path><path d="M1250.92 260.82L1453.83 197.76" stroke="hsla(0, 0%, 0%, 0.19)" stroke-width="1.5"></path><path d="M1309.77 561.97L1309.77 561.97" stroke="hsla(0, 0%, 0%, 0.19)" stroke-width="1.5"></path><path d="M1309.77 561.97L1143.53 522.54" stroke="hsla(0, 0%, 0%, 0.19)" stroke-width="1.5"></path><path d="M1309.77 561.97L1450.24 697.48" stroke="hsla(0, 0%, 0%, 0.19)" stroke-width="1.5"></path><path d="M1418.83 88.58L1418.83 88.58" stroke="hsla(0, 0%, 0%, 0.19)" stroke-width="1.5"></path><path d="M1418.83 88.58L1453.83 197.76" stroke="hsla(0, 0%, 0%, 0.19)" stroke-width="1.5"></path><path d="M1453.83 197.76L1453.83 197.76" stroke="hsla(0, 0%, 0%, 0.19)" stroke-width="1.5"></path><path d="M1453.83 197.76L1575.22 197.21" stroke="hsla(0, 0%, 0%, 0.19)" stroke-width="1.5"></path><path d="M1428.45 359.67L1428.45 359.67" stroke="hsla(0, 0%, 0%, 0.19)" stroke-width="1.5"></path><path d="M1428.45 359.67L1539.34 344.76" stroke="hsla(0, 0%, 0%, 0.19)" stroke-width="1.5"></path><path d="M1450.24 697.48L1450.24 697.48" stroke="hsla(0, 0%, 0%, 0.19)" stroke-width="1.5"></path><path d="M1450.24 697.48L1609.56 646.93" stroke="hsla(0, 0%, 0%, 0.19)" stroke-width="1.5"></path><path d="M1450.24 697.48L1592.39 516.48" stroke="hsla(0, 0%, 0%, 0.19)" stroke-width="1.5"></path><path d="M1589.43 -65.38L1589.43 -65.38" stroke="hsla(0, 0%, 0%, 0.19)" stroke-width="1.5"></path><path d="M1589.43 -65.38L1418.83 88.58" stroke="hsla(0, 0%, 0%, 0.19)" stroke-width="1.5"></path><path d="M1575.22 197.21L1575.22 197.21" stroke="hsla(0, 0%, 0%, 0.19)" stroke-width="1.5"></path><path d="M1575.22 197.21L1539.34 344.76" stroke="hsla(0, 0%, 0%, 0.19)" stroke-width="1.5"></path><path d="M1575.22 197.21L1418.83 88.58" stroke="hsla(0, 0%, 0%, 0.19)" stroke-width="1.5"></path><path d="M1575.22 197.21L1428.45 359.67" stroke="hsla(0, 0%, 0%, 0.19)" stroke-width="1.5"></path><path d="M1539.34 344.76L1539.34 344.76" stroke="hsla(0, 0%, 0%, 0.19)" stroke-width="1.5"></path><path d="M1539.34 344.76L1453.83 197.76" stroke="hsla(0, 0%, 0%, 0.19)" stroke-width="1.5"></path><path d="M1539.34 344.76L1592.39 516.48" stroke="hsla(0, 0%, 0%, 0.19)" stroke-width="1.5"></path><path d="M1592.39 516.48L1592.39 516.48" stroke="hsla(0, 0%, 0%, 0.19)" stroke-width="1.5"></path><path d="M1592.39 516.48L1609.56 646.93" stroke="hsla(0, 0%, 0%, 0.19)" stroke-width="1.5"></path><path d="M1609.56 646.93L1609.56 646.93" stroke="hsla(0, 0%, 0%, 0.19)" stroke-width="1.5"></path><path d="M1609.56 646.93L1539.34 344.76" stroke="hsla(0, 0%, 0%, 0.19)" stroke-width="1.5"></path><path d="M1609.56 646.93L1309.77 561.97" stroke="hsla(0, 0%, 0%, 0.19)" stroke-width="1.5"></path><path d="M1609.56 646.93L1428.45 359.67" stroke="hsla(0, 0%, 0%, 0.19)" stroke-width="1.5"></path><circle r="25" cx="-80.01" cy="529.2" fill="url(#SvgjsRadialGradient1013)"></circle><circle r="25" cx="50.01" cy="652.01" fill="url(#SvgjsRadialGradient1013)"></circle><circle r="25" cx="398.12" cy="518.55" fill="url(#SvgjsRadialGradient1013)"></circle><circle r="25" cx="520.28" cy="508.36" fill="url(#SvgjsRadialGradient1013)"></circle><circle r="25" cx="789.88" cy="672.94" fill="url(#SvgjsRadialGradient1013)"></circle><circle r="25" cx="1251.91" cy="-103.74" fill="url(#SvgjsRadialGradient1013)"></circle><circle r="25" cx="1299.12" cy="338.03" fill="url(#SvgjsRadialGradient1013)"></circle><circle r="25" cx="1570.72" cy="72.31" fill="url(#SvgjsRadialGradient1013)"></circle><circle r="5" cx="-90.95" cy="686.51" fill="rgba(231, 231, 231, 0.595)"></circle><circle r="5" cx="45.57" cy="556.85" fill="rgba(231, 231, 231, 0.595)"></circle><circle r="5" cx="195.45" cy="692.79" fill="rgba(231, 231, 231, 0.595)"></circle><circle r="5" cx="361.31" cy="693.59" fill="rgba(231, 231, 231, 0.595)"></circle><circle r="5" cx="693.36" cy="382.97" fill="rgba(231, 231, 231, 0.595)"></circle><circle r="5" cx="641.07" cy="502.62" fill="rgba(231, 231, 231, 0.595)"></circle><circle r="5" cx="638.35" cy="699.83" fill="rgba(231, 231, 231, 0.595)"></circle><circle r="5" cx="831.77" cy="356.67" fill="rgba(231, 231, 231, 0.595)"></circle><circle r="5" cx="861.73" cy="549.25" fill="rgba(231, 231, 231, 0.595)"></circle><circle r="5" cx="960.02" cy="368.16" fill="rgba(231, 231, 231, 0.595)"></circle><circle r="5" cx="940.48" cy="550.07" fill="rgba(231, 231, 231, 0.595)"></circle><circle r="5" cx="971.43" cy="666.05" fill="rgba(231, 231, 231, 0.595)"></circle><circle r="5" cx="1145.21" cy="203.87" fill="rgba(231, 231, 231, 0.595)"></circle><circle r="5" cx="1126.85" cy="399.45" fill="rgba(231, 231, 231, 0.595)"></circle><circle r="5" cx="1143.53" cy="522.54" fill="rgba(231, 231, 231, 0.595)"></circle><circle r="5" cx="1104.61" cy="645.46" fill="rgba(231, 231, 231, 0.595)"></circle><circle r="5" cx="1300.63" cy="103.73" fill="rgba(231, 231, 231, 0.595)"></circle><circle r="5" cx="1250.92" cy="260.82" fill="rgba(231, 231, 231, 0.595)"></circle><circle r="5" cx="1309.77" cy="561.97" fill="rgba(231, 231, 231, 0.595)"></circle><circle r="5" cx="1418.83" cy="88.58" fill="rgba(231, 231, 231, 0.595)"></circle><circle r="5" cx="1453.83" cy="197.76" fill="rgba(231, 231, 231, 0.595)"></circle><circle r="5" cx="1428.45" cy="359.67" fill="rgba(231, 231, 231, 0.595)"></circle><circle r="5" cx="1450.24" cy="697.48" fill="rgba(231, 231, 231, 0.595)"></circle><circle r="5" cx="1589.43" cy="-65.38" fill="rgba(231, 231, 231, 0.595)"></circle><circle r="5" cx="1575.22" cy="197.21" fill="rgba(231, 231, 231, 0.595)"></circle><circle r="5" cx="1539.34" cy="344.76" fill="rgba(231, 231, 231, 0.595)"></circle><circle r="5" cx="1592.39" cy="516.48" fill="rgba(231, 231, 231, 0.595)"></circle><circle r="5" cx="1609.56" cy="646.93" fill="rgba(231, 231, 231, 0.595)"></circle></g><defs><mask id="SvgjsMask1012"><rect width="1440" height="560" fill="#ffffff"></rect></mask><radialGradient id="SvgjsRadialGradient1013"><stop stop-color="#ffffff" offset="0.1"></stop><stop stop-color="rgba(0, 0, 0, 0.19)" offset="0.2"></stop><stop stop-color="rgba(0, 0, 0, 0)" offset="1"></stop></radialGradient></defs></svg>