<svg width="638" height="522" viewBox="0 0 638 522" fill="none" xmlns="http://www.w3.org/2000/svg">
<g clip-path="url(#clip0_704_2298)">
<path d="M629.499 319.699H9.19922C4.19922 319.699 0.199219 315.699 0.199219 310.699C0.199219 305.699 4.19922 301.699 9.19922 301.699H629.499C634.499 301.699 638.499 305.699 638.499 310.699C638.499 315.699 634.499 319.699 629.499 319.699Z" fill="#3B3B3B"/>
<path d="M125.9 226.702C116.3 226.702 108.6 218.902 108.6 209.402C108.6 199.902 116.4 192.102 125.9 192.102H223.9V226.802H125.9V226.702Z" fill="#CECECE"/>
<path d="M229.6 232.702H125.9C113 232.702 102.6 222.202 102.6 209.402C102.6 196.502 113.1 186.102 125.9 186.102H229.6V232.702V232.702Z" fill="white"/>
<path d="M119.5 204H223.9" stroke="#2B2B2B" stroke-width="4" stroke-miterlimit="10" stroke-linecap="round" stroke-linejoin="round"/>
<path d="M119.5 214.602H223.9" stroke="#2B2B2B" stroke-width="4" stroke-miterlimit="10" stroke-linecap="round" stroke-linejoin="round"/>
<path d="M125.9 226.702C116.3 226.702 108.6 218.902 108.6 209.402C108.6 199.902 116.4 192.102 125.9 192.102H223.9V226.802H125.9V226.702Z" stroke="#1F3969" stroke-width="4" stroke-miterlimit="10" stroke-linecap="round" stroke-linejoin="round"/>
<path d="M125.9 226.702C116.3 226.702 108.6 218.902 108.6 209.402C108.6 199.902 116.4 192.102 125.9 192.102H225.6L229.6 186.102H125.9C113 186.102 102.6 196.602 102.6 209.402C102.6 222.302 113.1 232.702 125.9 232.702H229.6L225.6 226.702H125.9Z" fill="#848484"/>
<path d="M125.9 226.702C116.3 226.702 108.6 218.902 108.6 209.402C108.6 199.902 116.4 192.102 125.9 192.102H225.6L229.6 186.102H125.9C113 186.102 102.6 196.602 102.6 209.402C102.6 222.302 113.1 232.702 125.9 232.702H229.6L225.6 226.702H125.9Z" stroke="#2B2B2B" stroke-width="4" stroke-miterlimit="10" stroke-linecap="round" stroke-linejoin="round"/>
<path opacity="0.28" d="M207.3 186H188.9V232.7H207.3V186Z" fill="#1F3969" stroke="#1F3969" stroke-width="4" stroke-miterlimit="10" stroke-linecap="round" stroke-linejoin="round"/>
<path d="M218.899 271.202H28.9992C25.2992 271.202 22.1992 268.202 22.1992 264.402V239.402C22.1992 235.702 25.1992 232.602 28.9992 232.602H218.899C222.599 232.602 225.699 235.602 225.699 239.402V264.402C225.699 268.202 222.699 271.202 218.899 271.202Z" fill="#848484"/>
<path d="M80.3 253.202H77.7V258.702H76V245.402H80.3C83.4 245.402 84.9 247.102 84.9 249.302C84.9 251.302 83.6 253.202 80.3 253.202ZM80.3 251.702C82.3 251.702 83.1 250.802 83.1 249.302C83.1 247.802 82.3 246.802 80.3 246.802H77.7V251.702H80.3Z" fill="white"/>
<path d="M89.6992 245.402H91.5992L94.8992 252.102L98.1992 245.402H100.099L95.7992 253.702V258.702H94.0992V253.702L89.6992 245.402Z" fill="white"/>
<path d="M104.9 245.402H113.9V246.802H110.3V258.702H108.6V246.802H105V245.402H104.9Z" fill="white"/>
<path d="M128.4 252.702H121.6V258.702H119.9V245.402H121.6V251.202H128.4V245.402H130.1V258.702H128.4V252.702Z" fill="white"/>
<path d="M142.899 258.803C139.199 258.803 136.199 256.003 136.199 252.003C136.199 248.003 139.099 245.203 142.899 245.203C146.699 245.203 149.599 248.003 149.599 252.003C149.499 256.003 146.599 258.803 142.899 258.803ZM142.899 257.303C145.699 257.303 147.799 255.303 147.799 252.003C147.799 248.703 145.699 246.703 142.899 246.703C140.099 246.703 137.999 248.703 137.999 252.003C137.999 255.303 140.099 257.303 142.899 257.303Z" fill="white"/>
<path d="M166.099 245.402V258.702H164.399L157.399 248.102V258.702H155.699V245.402H157.399L164.399 255.902V245.402H166.099Z" fill="white"/>
<path d="M218.899 271.202H28.9992C25.2992 271.202 22.1992 268.202 22.1992 264.402V239.402C22.1992 235.702 25.1992 232.602 28.9992 232.602H218.899C222.599 232.602 225.699 235.602 225.699 239.402V264.402C225.699 268.202 222.699 271.202 218.899 271.202Z" stroke="#2B2B2B" stroke-width="4" stroke-miterlimit="10" stroke-linecap="round" stroke-linejoin="round"/>
<path opacity="0.28" d="M218.898 232.699H188.898V247.699C188.898 257.099 196.498 264.799 205.998 264.799H225.698C225.698 264.699 225.698 264.599 225.698 264.499V239.499C225.698 235.699 222.698 232.699 218.898 232.699Z" fill="#1F3969" stroke="#1F3969" stroke-width="4" stroke-miterlimit="10" stroke-linecap="round" stroke-linejoin="round"/>
<path d="M272.398 279H52.3984C53.6984 282.2 54.3984 286.2 54.3984 290.4C54.3984 294.6 53.6984 298.5 52.3984 301.8H272.298C270.998 298.6 270.298 294.6 270.298 290.4C270.398 286.1 271.098 282.2 272.398 279Z" fill="#CECECE"/>
<path d="M278.4 272.898H46.5V278.898H278.4V272.898Z" fill="white"/>
<path d="M278.4 272.898H46.5V278.898H278.4V272.898Z" stroke="#2B2B2B" stroke-width="4" stroke-miterlimit="10" stroke-linecap="round" stroke-linejoin="round"/>
<path d="M278.4 301.699H46.5V307.699H278.4V301.699Z" fill="#F6F9FD"/>
<path d="M278.4 301.699H46.5V307.699H278.4V301.699Z" fill="white"/>
<path d="M278.4 301.699H46.5V307.699H278.4V301.699Z" stroke="#2B2B2B" stroke-width="4" stroke-miterlimit="10" stroke-linecap="round" stroke-linejoin="round"/>
<path d="M393.598 286.399L390.598 252.699H341.198L338.198 286.399C337.498 294.199 332.798 301.699 325.398 307.699V307.799H406.398V307.699C398.998 301.699 394.298 294.199 393.598 286.399Z" fill="#848484"/>
<path opacity="0.28" d="M341.198 252.699L339.398 272.899H392.398L390.598 252.699H341.198Z" fill="#1F3969" stroke="#1F3969" stroke-width="4" stroke-miterlimit="10" stroke-linecap="round" stroke-linejoin="round"/>
<path d="M393.598 286.399L390.598 252.699H341.198L338.198 286.399C337.498 294.199 332.798 301.699 325.398 307.699V307.799H406.398V307.699C398.998 301.699 394.298 294.199 393.598 286.399Z" stroke="#2B2B2B" stroke-width="4" stroke-miterlimit="10" stroke-linecap="round" stroke-linejoin="round"/>
<path d="M523.898 257.699H207.898C201.298 257.699 195.898 252.299 195.898 245.699V39.6992C195.898 33.0992 201.298 27.6992 207.898 27.6992H523.898C530.498 27.6992 535.898 33.0992 535.898 39.6992V245.699C535.898 252.399 530.498 257.699 523.898 257.699Z" fill="white"/>
<path d="M523.898 257.699H207.898C201.298 257.699 195.898 252.299 195.898 245.699V39.6992C195.898 33.0992 201.298 27.6992 207.898 27.6992H523.898C530.498 27.6992 535.898 33.0992 535.898 39.6992V245.699C535.898 252.399 530.498 257.699 523.898 257.699Z" fill="#848484"/>
<path d="M523.898 257.699H207.898C201.298 257.699 195.898 252.299 195.898 245.699V39.6992C195.898 33.0992 201.298 27.6992 207.898 27.6992H523.898C530.498 27.6992 535.898 33.0992 535.898 39.6992V245.699C535.898 252.399 530.498 257.699 523.898 257.699Z" stroke="#2B2B2B" stroke-width="4" stroke-miterlimit="10" stroke-linecap="round" stroke-linejoin="round"/>
<path d="M518.955 219.327V44.7266L212.955 44.7266L212.955 219.327L518.955 219.327Z" fill="#F9F9F9"/>
<path opacity="0.28" d="M223.898 27.6992V166.299C223.898 170.699 227.498 174.299 231.898 174.299H420.998C425.398 174.299 428.998 170.699 428.998 166.299V27.6992H223.898Z" fill="#C9C9C9" stroke="#C9C9C9" stroke-width="4" stroke-miterlimit="10" stroke-linecap="round" stroke-linejoin="round"/>
<path d="M518.955 219.327V44.7266L212.955 44.7266L212.955 219.327L518.955 219.327Z" stroke="#2B2B2B" stroke-width="4" stroke-miterlimit="10" stroke-linecap="round" stroke-linejoin="round"/>
<path d="M352.5 238.398H379.4" stroke="#2B2B2B" stroke-width="4" stroke-miterlimit="10" stroke-linecap="round" stroke-linejoin="round"/>
<path d="M429.998 163.302H240.898C236.498 163.302 232.898 159.702 232.898 155.302V7.10156C232.898 2.70156 236.498 -0.898438 240.898 -0.898438H429.998C434.398 -0.898438 437.998 2.70156 437.998 7.10156V155.402C437.998 159.802 434.398 163.302 429.998 163.302Z" fill="#F9F9F9"/>
<path d="M437.998 18.5H232.898V7C232.898 2.6 236.498 -1 240.898 -1H429.998C434.398 -1 437.998 2.6 437.998 7V18.5Z" stroke="#1F3969" stroke-width="4" stroke-miterlimit="10" stroke-linecap="round" stroke-linejoin="round"/>
<path d="M437.998 22.3H232.898V7C232.898 2.6 236.498 -1 240.898 -1H429.998C434.398 -1 437.998 2.6 437.998 7V22.3Z" fill="#BCBCBC"/>
<path d="M437.998 22.3H232.898V7C232.898 2.6 236.498 -1 240.898 -1H429.998C434.398 -1 437.998 2.6 437.998 7V22.3Z" stroke="#1F3969" stroke-width="4" stroke-miterlimit="10" stroke-linecap="round" stroke-linejoin="round"/>
<path d="M437.998 22.3H232.898V7C232.898 2.6 236.498 -1 240.898 -1H429.998C434.398 -1 437.998 2.6 437.998 7V22.3Z" stroke="#444E59" stroke-width="4" stroke-miterlimit="10" stroke-linecap="round" stroke-linejoin="round"/>
<path d="M429.998 163.302H240.898C236.498 163.302 232.898 159.702 232.898 155.302V7.10156C232.898 2.70156 236.498 -0.898438 240.898 -0.898438H429.998C434.398 -0.898438 437.998 2.70156 437.998 7.10156V155.402C437.998 159.802 434.398 163.302 429.998 163.302Z" stroke="#2B2B2B" stroke-width="4" stroke-miterlimit="10" stroke-linecap="round" stroke-linejoin="round"/>
<path opacity="0.28" d="M528.699 198.701H412.699C408.299 198.701 404.699 195.101 404.699 190.701V67.8008C404.699 63.4008 408.299 59.8008 412.699 59.8008H528.699C533.099 59.8008 536.699 63.4008 536.699 67.8008V190.701C536.699 195.201 533.099 198.701 528.699 198.701Z" fill="#C9C9C9" stroke="#C9C9C9" stroke-width="4" stroke-miterlimit="10" stroke-linecap="round" stroke-linejoin="round"/>
<path d="M536.699 191.701H420.699C416.299 191.701 412.699 188.101 412.699 183.701V60.8008C412.699 56.4008 416.299 52.8008 420.699 52.8008H536.699C541.099 52.8008 544.699 56.4008 544.699 60.8008V183.701C544.699 188.201 541.099 191.701 536.699 191.701Z" fill="#2B2B2B"/>
<path d="M536.699 191.701H420.699C416.299 191.701 412.699 188.101 412.699 183.701V60.8008C412.699 56.4008 416.299 52.8008 420.699 52.8008H536.699C541.099 52.8008 544.699 56.4008 544.699 60.8008V183.701C544.699 188.201 541.099 191.701 536.699 191.701Z" stroke="#2B2B2B" stroke-width="4" stroke-miterlimit="10" stroke-linecap="round" stroke-linejoin="round"/>
<path opacity="0.34" d="M519.4 90.8992H437.8C434.9 90.8992 432.6 88.5992 432.6 85.6992V77.8992C432.6 74.9992 434.9 72.6992 437.8 72.6992H519.4C522.3 72.6992 524.6 74.9992 524.6 77.8992V85.6992C524.6 88.5992 522.3 90.8992 519.4 90.8992Z" stroke="#F9F9F9" stroke-width="2" stroke-miterlimit="10" stroke-linecap="round" stroke-linejoin="round"/>
<g opacity="0.34">
<path d="M483.599 120.2H437.999C435.099 120.2 432.799 117.9 432.799 115V107.2C432.799 104.3 435.099 102 437.999 102H483.599C486.499 102 488.799 104.3 488.799 107.2V115C488.699 117.9 486.399 120.2 483.599 120.2Z" stroke="#F9F9F9" stroke-width="2" stroke-miterlimit="10" stroke-linecap="round" stroke-linejoin="round"/>
<path d="M519.5 120.2H501.8C498.9 120.2 496.6 117.9 496.6 115V107.2C496.6 104.3 498.9 102 501.8 102H519.5C522.4 102 524.7 104.3 524.7 107.2V115C524.7 117.9 522.4 120.2 519.5 120.2Z" stroke="#F9F9F9" stroke-width="2" stroke-miterlimit="10" stroke-linecap="round" stroke-linejoin="round"/>
</g>
<path d="M432.699 150.602H524.599" stroke="white" stroke-width="2" stroke-miterlimit="10" stroke-linecap="round" stroke-linejoin="round"/>
<path d="M432.699 161.402H524.599" stroke="white" stroke-width="2" stroke-miterlimit="10" stroke-linecap="round" stroke-linejoin="round"/>
<path d="M432.699 172.203H488.699" stroke="white" stroke-width="2" stroke-miterlimit="10" stroke-linecap="round" stroke-linejoin="round"/>
<path d="M253 14.6992C255.209 14.6992 257 12.9084 257 10.6992C257 8.49008 255.209 6.69922 253 6.69922C250.791 6.69922 249 8.49008 249 10.6992C249 12.9084 250.791 14.6992 253 14.6992Z" fill="#1F3969"/>
<path d="M266.898 14.6992C269.108 14.6992 270.898 12.9084 270.898 10.6992C270.898 8.49008 269.108 6.69922 266.898 6.69922C264.689 6.69922 262.898 8.49008 262.898 10.6992C262.898 12.9084 264.689 14.6992 266.898 14.6992Z" fill="#1F3969"/>
<path d="M280.799 14.6992C283.008 14.6992 284.799 12.9084 284.799 10.6992C284.799 8.49008 283.008 6.69922 280.799 6.69922C278.59 6.69922 276.799 8.49008 276.799 10.6992C276.799 12.9084 278.59 14.6992 280.799 14.6992Z" fill="#1F3969"/>
<path d="M350.699 40.8008H363.699" stroke="#2B2B2B" stroke-width="4" stroke-miterlimit="10" stroke-linecap="round" stroke-linejoin="round"/>
<path d="M284.801 40.8008H341.101" stroke="#2B2B2B" stroke-width="4" stroke-miterlimit="10" stroke-linecap="round" stroke-linejoin="round"/>
<path d="M257 40.8008H276.8" stroke="#2B2B2B" stroke-width="4" stroke-miterlimit="10" stroke-linecap="round" stroke-linejoin="round"/>
<path d="M282.801 139.301H325.801" stroke="#2B2B2B" stroke-width="4" stroke-miterlimit="10" stroke-linecap="round" stroke-linejoin="round"/>
<path d="M257 139.301H270.9" stroke="#2B2B2B" stroke-width="4" stroke-miterlimit="10" stroke-linecap="round" stroke-linejoin="round"/>
<path d="M341.098 53.1016H349.198" stroke="#2B2B2B" stroke-width="4" stroke-miterlimit="10" stroke-linecap="round" stroke-linejoin="round"/>
<path d="M304.299 53.1016H331.499" stroke="#2B2B2B" stroke-width="4" stroke-miterlimit="10" stroke-linecap="round" stroke-linejoin="round"/>
<path d="M266.898 53.1016H294.598" stroke="#2B2B2B" stroke-width="4" stroke-miterlimit="10" stroke-linecap="round" stroke-linejoin="round"/>
<path d="M309.799 65.3984H333.699" stroke="#2B2B2B" stroke-width="4" stroke-miterlimit="10" stroke-linecap="round" stroke-linejoin="round"/>
<path d="M279.799 65.3984H302.299" stroke="#2B2B2B" stroke-width="4" stroke-miterlimit="10" stroke-linecap="round" stroke-linejoin="round"/>
<path d="M312.998 77.6992H317.898" stroke="#2B2B2B" stroke-width="4" stroke-miterlimit="10" stroke-linecap="round" stroke-linejoin="round"/>
<path d="M293.199 77.6992H304.299" stroke="#2B2B2B" stroke-width="4" stroke-miterlimit="10" stroke-linecap="round" stroke-linejoin="round"/>
<path d="M266.898 77.6992H284.798" stroke="#2B2B2B" stroke-width="4" stroke-miterlimit="10" stroke-linecap="round" stroke-linejoin="round"/>
<path d="M305.299 90.1016H337.199" stroke="#2B2B2B" stroke-width="4" stroke-miterlimit="10" stroke-linecap="round" stroke-linejoin="round"/>
<path d="M266.898 90.1016H295.498" stroke="#2B2B2B" stroke-width="4" stroke-miterlimit="10" stroke-linecap="round" stroke-linejoin="round"/>
<path d="M342.199 102.398H359.499" stroke="#2B2B2B" stroke-width="4" stroke-miterlimit="10" stroke-linecap="round" stroke-linejoin="round"/>
<path d="M305.299 102.398H332.999" stroke="#2B2B2B" stroke-width="4" stroke-miterlimit="10" stroke-linecap="round" stroke-linejoin="round"/>
<path d="M279.799 102.398H295.499" stroke="#2B2B2B" stroke-width="4" stroke-miterlimit="10" stroke-linecap="round" stroke-linejoin="round"/>
<path d="M317.898 114.699H332.998" stroke="#2B2B2B" stroke-width="4" stroke-miterlimit="10" stroke-linecap="round" stroke-linejoin="round"/>
<path d="M279.799 114.699H307.499" stroke="#2B2B2B" stroke-width="4" stroke-miterlimit="10" stroke-linecap="round" stroke-linejoin="round"/>
<path d="M357.199 127H374.499" stroke="#2B2B2B" stroke-width="4" stroke-miterlimit="10" stroke-linecap="round" stroke-linejoin="round"/>
<path d="M304.299 127H347.799" stroke="#2B2B2B" stroke-width="4" stroke-miterlimit="10" stroke-linecap="round" stroke-linejoin="round"/>
<path d="M266.898 127H294.598" stroke="#2B2B2B" stroke-width="4" stroke-miterlimit="10" stroke-linecap="round" stroke-linejoin="round"/>
<path d="M54.8984 285.898H270.398" stroke="#848484" stroke-width="4" stroke-miterlimit="10" stroke-linecap="round" stroke-linejoin="round"/>
<path d="M54.8984 293.898H270.398" stroke="#848484" stroke-width="4" stroke-miterlimit="10" stroke-linecap="round" stroke-linejoin="round"/>
<path d="M272.398 279H52.3984C53.6984 282.2 54.3984 286.2 54.3984 290.4C54.3984 294.6 53.6984 298.5 52.3984 301.8H272.298C270.998 298.6 270.298 294.6 270.298 290.4C270.398 286.1 271.098 282.2 272.398 279Z" stroke="#848484" stroke-width="4" stroke-miterlimit="10" stroke-linecap="round" stroke-linejoin="round"/>
<path d="M568.349 197.475L558.615 198.617L567.08 270.723L576.814 269.581L568.349 197.475Z" fill="#F9F9F9"/>
<path d="M568.362 197.549L558.629 198.691L559.492 206.041L569.225 204.898L568.362 197.549Z" fill="#848484"/>
<path d="M568.362 197.553L558.629 198.695L559.492 206.045L569.225 204.902L568.362 197.553Z" stroke="#BDBDBD" stroke-width="4" stroke-miterlimit="10" stroke-linecap="round" stroke-linejoin="round"/>
<path d="M568.349 197.475L558.615 198.617L567.08 270.723L576.814 269.581L568.349 197.475Z" stroke="#2B2B2B" stroke-width="4" stroke-miterlimit="10" stroke-linecap="round" stroke-linejoin="round"/>
<path d="M595.037 212.243L585.295 211.184L577.447 283.355L587.189 284.415L595.037 212.243Z" fill="#F9F9F9"/>
<path d="M595.037 212.243L585.295 211.184L577.447 283.355L587.189 284.415L595.037 212.243Z" stroke="#2B2B2B" stroke-width="4" stroke-miterlimit="10" stroke-linecap="round" stroke-linejoin="round"/>
<path d="M595.109 212.259L585.367 211.199L584.567 218.556L594.309 219.615L595.109 212.259Z" fill="#BDBDBD"/>
<path d="M595.109 212.259L585.367 211.199L584.567 218.556L594.309 219.615L595.109 212.259Z" stroke="#434343" stroke-width="4" stroke-miterlimit="10" stroke-linecap="round" stroke-linejoin="round"/>
<path d="M601.098 308.001H561.798L555.398 247.801H607.498L601.098 308.001Z" fill="#848484"/>
<path d="M555.398 247.801L555.498 248.901H595.198L588.898 308.001H601.098L607.498 247.801H555.398Z" fill="#2B2B2B"/>
<path d="M601.098 308.001H561.798L555.398 247.801H607.498L601.098 308.001Z" stroke="#2B2B2B" stroke-width="4" stroke-miterlimit="10" stroke-linecap="round" stroke-linejoin="round"/>
<path d="M122.16 522C121.749 522 121.432 521.888 121.208 521.664C120.984 521.403 120.872 521.085 120.872 520.712V484.144C120.872 483.733 120.984 483.416 121.208 483.192C121.432 482.931 121.749 482.8 122.16 482.8H136.384C139.147 482.8 141.536 483.248 143.552 484.144C145.605 485.04 147.192 486.384 148.312 488.176C149.432 489.931 149.992 492.133 149.992 494.784C149.992 497.435 149.432 499.637 148.312 501.392C147.192 503.147 145.605 504.472 143.552 505.368C141.536 506.264 139.147 506.712 136.384 506.712H126.472V520.712C126.472 521.085 126.341 521.403 126.08 521.664C125.856 521.888 125.539 522 125.128 522H122.16ZM126.416 502.008H136.104C138.867 502.008 140.939 501.392 142.32 500.16C143.701 498.928 144.392 497.136 144.392 494.784C144.392 492.469 143.72 490.677 142.376 489.408C141.032 488.139 138.941 487.504 136.104 487.504H126.416V502.008ZM158.09 522C157.679 522 157.362 521.888 157.138 521.664C156.914 521.403 156.802 521.085 156.802 520.712V484.144C156.802 483.733 156.914 483.416 157.138 483.192C157.362 482.931 157.679 482.8 158.09 482.8H171.754C175.972 482.8 179.314 483.789 181.778 485.768C184.242 487.747 185.474 490.677 185.474 494.56C185.474 497.435 184.746 499.787 183.29 501.616C181.871 503.408 179.93 504.659 177.466 505.368L186.09 520.264C186.202 520.488 186.258 520.693 186.258 520.88C186.258 521.179 186.127 521.44 185.866 521.664C185.642 521.888 185.38 522 185.082 522H182.394C181.759 522 181.292 521.832 180.994 521.496C180.695 521.16 180.434 520.824 180.21 520.488L172.09 506.264H162.29V520.712C162.29 521.085 162.159 521.403 161.898 521.664C161.674 521.888 161.356 522 160.946 522H158.09ZM162.29 501.504H171.53C174.33 501.504 176.42 500.925 177.802 499.768C179.183 498.573 179.874 496.819 179.874 494.504C179.874 492.227 179.183 490.491 177.802 489.296C176.458 488.101 174.367 487.504 171.53 487.504H162.29V501.504ZM207.498 522.56C204.325 522.56 201.6 522.019 199.322 520.936C197.045 519.816 195.29 518.117 194.058 515.84C192.826 513.525 192.136 510.632 191.986 507.16C191.949 505.517 191.93 503.949 191.93 502.456C191.93 500.925 191.949 499.339 191.986 497.696C192.136 494.261 192.845 491.405 194.114 489.128C195.421 486.813 197.213 485.096 199.49 483.976C201.805 482.819 204.474 482.24 207.498 482.24C210.56 482.24 213.229 482.819 215.506 483.976C217.821 485.096 219.632 486.813 220.938 489.128C222.245 491.405 222.954 494.261 223.066 497.696C223.141 499.339 223.178 500.925 223.178 502.456C223.178 503.949 223.141 505.517 223.066 507.16C222.954 510.632 222.264 513.525 220.994 515.84C219.762 518.117 218.008 519.816 215.73 520.936C213.453 522.019 210.709 522.56 207.498 522.56ZM207.498 517.8C210.373 517.8 212.706 516.941 214.498 515.224C216.328 513.507 217.317 510.725 217.466 506.88C217.541 505.2 217.578 503.707 217.578 502.4C217.578 501.056 217.541 499.563 217.466 497.92C217.392 495.344 216.906 493.253 216.01 491.648C215.152 490.043 213.994 488.867 212.538 488.12C211.082 487.373 209.402 487 207.498 487C205.669 487 204.026 487.373 202.57 488.12C201.114 488.867 199.938 490.043 199.042 491.648C198.184 493.253 197.698 495.344 197.586 497.92C197.549 499.563 197.53 501.056 197.53 502.4C197.53 503.707 197.549 505.2 197.586 506.88C197.736 510.725 198.725 513.507 200.554 515.224C202.384 516.941 204.698 517.8 207.498 517.8ZM245.565 522.56C242.279 522.56 239.479 521.944 237.165 520.712C234.887 519.48 233.133 517.744 231.901 515.504C230.706 513.264 230.034 510.632 229.885 507.608C229.847 505.965 229.829 504.229 229.829 502.4C229.829 500.533 229.847 498.76 229.885 497.08C230.034 494.056 230.706 491.443 231.901 489.24C233.133 487.037 234.906 485.32 237.221 484.088C239.535 482.856 242.317 482.24 245.565 482.24C248.215 482.24 250.511 482.613 252.453 483.36C254.394 484.107 255.981 485.059 257.213 486.216C258.482 487.336 259.415 488.512 260.013 489.744C260.647 490.976 260.983 492.059 261.021 492.992C261.058 493.328 260.965 493.608 260.741 493.832C260.517 494.019 260.218 494.112 259.845 494.112H256.541C256.167 494.112 255.887 494.037 255.701 493.888C255.551 493.739 255.402 493.477 255.253 493.104C254.917 492.133 254.357 491.181 253.573 490.248C252.826 489.315 251.799 488.549 250.493 487.952C249.223 487.317 247.581 487 245.565 487C242.615 487 240.226 487.803 238.397 489.408C236.605 491.013 235.634 493.664 235.485 497.36C235.373 500.683 235.373 504.005 235.485 507.328C235.634 511.061 236.623 513.749 238.453 515.392C240.282 516.997 242.671 517.8 245.621 517.8C247.599 517.8 249.354 517.445 250.885 516.736C252.453 515.989 253.685 514.851 254.581 513.32C255.477 511.789 255.925 509.848 255.925 507.496V505.144H247.525C247.151 505.144 246.834 505.032 246.573 504.808C246.349 504.547 246.237 504.211 246.237 503.8V502.008C246.237 501.597 246.349 501.28 246.573 501.056C246.834 500.795 247.151 500.664 247.525 500.664H260.181C260.591 500.664 260.909 500.795 261.133 501.056C261.357 501.28 261.469 501.597 261.469 502.008V507.384C261.469 510.445 260.834 513.115 259.565 515.392C258.333 517.669 256.522 519.443 254.133 520.712C251.743 521.944 248.887 522.56 245.565 522.56ZM270.746 522C270.335 522 270.018 521.888 269.794 521.664C269.57 521.403 269.458 521.085 269.458 520.712V484.144C269.458 483.733 269.57 483.416 269.794 483.192C270.018 482.931 270.335 482.8 270.746 482.8H284.41C288.629 482.8 291.97 483.789 294.434 485.768C296.898 487.747 298.13 490.677 298.13 494.56C298.13 497.435 297.402 499.787 295.946 501.616C294.527 503.408 292.586 504.659 290.122 505.368L298.746 520.264C298.858 520.488 298.914 520.693 298.914 520.88C298.914 521.179 298.783 521.44 298.522 521.664C298.298 521.888 298.037 522 297.738 522H295.05C294.415 522 293.949 521.832 293.65 521.496C293.351 521.16 293.09 520.824 292.866 520.488L284.746 506.264H274.946V520.712C274.946 521.085 274.815 521.403 274.554 521.664C274.33 521.888 274.013 522 273.602 522H270.746ZM274.946 501.504H284.186C286.986 501.504 289.077 500.925 290.458 499.768C291.839 498.573 292.53 496.819 292.53 494.504C292.53 492.227 291.839 490.491 290.458 489.296C289.114 488.101 287.023 487.504 284.186 487.504H274.946V501.504ZM303.521 522C303.223 522 302.961 521.888 302.737 521.664C302.513 521.44 302.401 521.179 302.401 520.88C302.401 520.693 302.42 520.488 302.457 520.264L316.345 484.032C316.495 483.659 316.7 483.36 316.961 483.136C317.223 482.912 317.615 482.8 318.137 482.8H321.945C322.431 482.8 322.804 482.912 323.065 483.136C323.364 483.36 323.588 483.659 323.737 484.032L337.569 520.264C337.644 520.488 337.681 520.693 337.681 520.88C337.681 521.179 337.569 521.44 337.345 521.664C337.121 521.888 336.86 522 336.561 522H333.705C333.257 522 332.921 521.888 332.697 521.664C332.511 521.44 332.38 521.235 332.305 521.048L329.225 513.096H310.857L307.777 521.048C307.74 521.235 307.609 521.44 307.385 521.664C307.161 521.888 306.825 522 306.377 522H303.521ZM312.481 508.28H327.601L320.041 488.4L312.481 508.28ZM344.957 522C344.584 522 344.266 521.888 344.005 521.664C343.781 521.403 343.669 521.085 343.669 520.712V484.144C343.669 483.733 343.781 483.416 344.005 483.192C344.266 482.931 344.584 482.8 344.957 482.8H347.757C348.205 482.8 348.541 482.912 348.765 483.136C348.989 483.36 349.12 483.547 349.157 483.696L361.029 506.32L372.957 483.696C373.032 483.547 373.162 483.36 373.349 483.136C373.573 482.912 373.909 482.8 374.357 482.8H377.101C377.512 482.8 377.829 482.931 378.053 483.192C378.314 483.416 378.445 483.733 378.445 484.144V520.712C378.445 521.085 378.314 521.403 378.053 521.664C377.829 521.888 377.512 522 377.101 522H374.357C373.984 522 373.666 521.888 373.405 521.664C373.181 521.403 373.069 521.085 373.069 520.712V493.16L363.717 511.416C363.568 511.789 363.344 512.088 363.045 512.312C362.746 512.499 362.373 512.592 361.925 512.592H360.189C359.704 512.592 359.312 512.499 359.013 512.312C358.752 512.088 358.528 511.789 358.341 511.416L348.989 493.16V520.712C348.989 521.085 348.858 521.403 348.597 521.664C348.373 521.888 348.074 522 347.701 522H344.957ZM389.418 522C389.044 522 388.727 521.888 388.466 521.664C388.242 521.403 388.13 521.085 388.13 520.712V484.144C388.13 483.733 388.242 483.416 388.466 483.192C388.727 482.931 389.044 482.8 389.418 482.8H392.218C392.666 482.8 393.002 482.912 393.226 483.136C393.45 483.36 393.58 483.547 393.618 483.696L405.49 506.32L417.418 483.696C417.492 483.547 417.623 483.36 417.81 483.136C418.034 482.912 418.37 482.8 418.818 482.8H421.562C421.972 482.8 422.29 482.931 422.514 483.192C422.775 483.416 422.906 483.733 422.906 484.144V520.712C422.906 521.085 422.775 521.403 422.514 521.664C422.29 521.888 421.972 522 421.562 522H418.818C418.444 522 418.127 521.888 417.866 521.664C417.642 521.403 417.53 521.085 417.53 520.712V493.16L408.178 511.416C408.028 511.789 407.804 512.088 407.506 512.312C407.207 512.499 406.834 512.592 406.386 512.592H404.65C404.164 512.592 403.772 512.499 403.474 512.312C403.212 512.088 402.988 511.789 402.802 511.416L393.45 493.16V520.712C393.45 521.085 393.319 521.403 393.058 521.664C392.834 521.888 392.535 522 392.162 522H389.418ZM433.879 522C433.468 522 433.151 521.888 432.927 521.664C432.703 521.403 432.591 521.085 432.591 520.712V484.088C432.591 483.715 432.703 483.416 432.927 483.192C433.151 482.931 433.468 482.8 433.879 482.8H436.847C437.22 482.8 437.519 482.931 437.743 483.192C438.004 483.416 438.135 483.715 438.135 484.088V520.712C438.135 521.085 438.004 521.403 437.743 521.664C437.519 521.888 437.22 522 436.847 522H433.879ZM449.191 522C448.781 522 448.463 521.888 448.239 521.664C448.015 521.403 447.903 521.085 447.903 520.712V484.144C447.903 483.733 448.015 483.416 448.239 483.192C448.463 482.931 448.781 482.8 449.191 482.8H451.767C452.215 482.8 452.551 482.912 452.775 483.136C452.999 483.323 453.13 483.472 453.167 483.584L471.759 512.144V484.144C471.759 483.733 471.871 483.416 472.095 483.192C472.319 482.931 472.637 482.8 473.047 482.8H475.735C476.146 482.8 476.463 482.931 476.687 483.192C476.949 483.416 477.079 483.733 477.079 484.144V520.656C477.079 521.029 476.949 521.347 476.687 521.608C476.463 521.869 476.165 522 475.791 522H473.103C472.693 522 472.375 521.888 472.151 521.664C471.965 521.44 471.834 521.291 471.759 521.216L453.223 492.936V520.712C453.223 521.085 453.093 521.403 452.831 521.664C452.607 521.888 452.29 522 451.879 522H449.191ZM501.01 522.56C497.725 522.56 494.925 521.944 492.61 520.712C490.333 519.48 488.578 517.744 487.346 515.504C486.151 513.264 485.479 510.632 485.33 507.608C485.293 505.965 485.274 504.229 485.274 502.4C485.274 500.533 485.293 498.76 485.33 497.08C485.479 494.056 486.151 491.443 487.346 489.24C488.578 487.037 490.351 485.32 492.666 484.088C494.981 482.856 497.762 482.24 501.01 482.24C503.661 482.24 505.957 482.613 507.898 483.36C509.839 484.107 511.426 485.059 512.658 486.216C513.927 487.336 514.861 488.512 515.458 489.744C516.093 490.976 516.429 492.059 516.466 492.992C516.503 493.328 516.41 493.608 516.186 493.832C515.962 494.019 515.663 494.112 515.29 494.112H511.986C511.613 494.112 511.333 494.037 511.146 493.888C510.997 493.739 510.847 493.477 510.698 493.104C510.362 492.133 509.802 491.181 509.018 490.248C508.271 489.315 507.245 488.549 505.938 487.952C504.669 487.317 503.026 487 501.01 487C498.061 487 495.671 487.803 493.842 489.408C492.05 491.013 491.079 493.664 490.93 497.36C490.818 500.683 490.818 504.005 490.93 507.328C491.079 511.061 492.069 513.749 493.898 515.392C495.727 516.997 498.117 517.8 501.066 517.8C503.045 517.8 504.799 517.445 506.33 516.736C507.898 515.989 509.13 514.851 510.026 513.32C510.922 511.789 511.37 509.848 511.37 507.496V505.144H502.97C502.597 505.144 502.279 505.032 502.018 504.808C501.794 504.547 501.682 504.211 501.682 503.8V502.008C501.682 501.597 501.794 501.28 502.018 501.056C502.279 500.795 502.597 500.664 502.97 500.664H515.626C516.037 500.664 516.354 500.795 516.578 501.056C516.802 501.28 516.914 501.597 516.914 502.008V507.384C516.914 510.445 516.279 513.115 515.01 515.392C513.778 517.669 511.967 519.443 509.578 520.712C507.189 521.944 504.333 522.56 501.01 522.56Z" fill="#2B2B2B"/>
</g>
<defs>
<clipPath id="clip0_704_2298">
<rect width="638" height="522" fill="white"/>
</clipPath>
</defs>
</svg>
