<svg width="50" height="50" viewBox="0 0 50 50" fill="none" xmlns="http://www.w3.org/2000/svg">
<g clip-path="url(#clip0_271_598)">
<path fill-rule="evenodd" clip-rule="evenodd" d="M12.9193 5.5333C12.9193 5.5333 12.1266 9.10363e-07 24.8198 0C38.0846 0 37.0598 6.67126 37.0598 6.67126V17.6952C37.0598 24.3624 30.31 24.2526 30.31 24.2526H18.2964C11.0922 24.2526 11.3203 31.3791 11.3203 31.3791V37.3533H7.08933C7.08933 37.3533 -9.05624e-07 37.81 0 24.9354C0 12.0609 8.12232 12.9869 8.12232 12.9869H25.0461V11.2658H12.9334L12.9193 5.5333ZM20.32 6.04539C20.32 4.83394 19.3459 3.85481 18.1408 3.85481C16.9356 3.85481 15.9616 4.83394 15.9616 6.04539C15.9616 7.25681 16.9356 8.23594 18.1408 8.23594C19.3459 8.23594 20.32 7.25681 20.32 6.04539Z" fill="#BFBFBF"/>
<path fill-rule="evenodd" clip-rule="evenodd" d="M37.0808 44.4666C37.0808 44.4666 37.8734 49.9999 25.1802 49.9999C11.9154 49.9999 12.9402 43.3286 12.9402 43.3286V32.3047C12.9402 25.6375 19.69 25.7473 19.69 25.7473H31.7036C38.9078 25.7473 38.6797 18.6208 38.6797 18.6208V12.6465H42.9108C42.9108 12.6465 50 12.19 50 25.0645C50 37.939 41.8778 37.0131 41.8778 37.0131H24.9539V38.7342H37.0665L37.0808 44.4666ZM29.68 43.9545C29.68 45.166 30.6541 46.1451 31.8593 46.1451C33.0645 46.1451 34.0384 45.166 34.0384 43.9545C34.0384 42.7431 33.0645 41.764 31.8593 41.764C30.6541 41.764 29.68 42.7431 29.68 43.9545Z" fill="#BFBFBF"/>
</g>
<defs>
<clipPath id="clip0_271_598">
<rect width="50" height="50" fill="white"/>
</clipPath>
</defs>
</svg>
