<svg width="57" height="50" viewBox="0 0 57 50" fill="none" xmlns="http://www.w3.org/2000/svg">
<g clip-path="url(#clip0_271_619)">
<path d="M33.3536 25.0055C33.3536 27.8938 31.0078 30.2355 28.1138 30.2355C25.2201 30.2355 22.874 27.8938 22.874 25.0055C22.874 22.117 25.2201 19.7754 28.1138 19.7754C31.0078 19.7754 33.3536 22.117 33.3536 25.0055Z" fill="#BFBFBF"/>
<path fill-rule="evenodd" clip-rule="evenodd" d="M44.429 15.5756C51.5835 17.7615 56.25 21.2862 56.25 25.0056C56.25 28.7137 51.6065 32.2385 44.4977 34.4244C46.1602 41.68 45.4379 47.4594 42.2162 49.3133C41.4594 49.7481 40.5881 49.9542 39.625 49.9542C36.4719 49.9542 32.3444 47.734 28.1708 43.8658C23.9975 47.7569 19.8698 50 16.7168 50C15.7537 50 14.8823 49.794 14.137 49.3592C10.9037 47.5052 10.1699 41.7144 11.821 34.4358C4.66648 32.25 0 28.7252 0 25.0056C0 21.2977 4.64354 17.7844 11.7751 15.5871C10.1126 8.33142 10.8349 2.55206 14.0568 0.6981C14.8135 0.263219 15.6849 0.0572212 16.648 0.0572212V0.0457773C19.801 0.0457773 23.9285 2.26596 28.1021 6.13412C32.2756 2.24308 36.4031 0 39.5562 0V0.0114541C40.5033 0.0131033 41.3706 0.219187 42.1129 0.652323C45.3462 2.50629 46.08 8.29708 44.429 15.5756ZM39.5448 2.55208C37.16 2.55817 33.6569 4.45738 29.925 7.91944C31.5417 9.60173 33.1469 11.5244 34.6948 13.6416C37.2746 13.9162 39.7281 14.3397 41.9754 14.889C42.2277 13.7331 42.434 12.6001 42.5602 11.5244C43.0875 7.15267 42.411 3.75373 40.8517 2.86106C40.4963 2.66652 40.0721 2.56352 39.5448 2.56352V2.55208ZM26.279 7.93087C22.5413 4.48615 19.0214 2.59785 16.648 2.59785V2.60929C16.1206 2.60929 15.6734 2.70085 15.3294 2.90685C13.7816 3.81094 13.1166 7.2099 13.6555 11.5816C13.7931 12.6459 13.988 13.756 14.2517 14.9004C16.4989 14.3397 18.9526 13.9162 21.5437 13.6416C23.0687 11.5244 24.674 9.61319 26.279 7.93087ZM39.774 21.8929C40.3702 20.3708 40.8977 18.8487 41.3219 17.3724C39.8198 17.0062 38.2492 16.7086 36.621 16.4683C37.1827 17.3381 37.7446 18.2307 38.2721 19.1462C38.8108 20.0618 39.304 20.9773 39.774 21.8929ZM33.3075 33.9323C34.2592 32.5704 35.1763 31.1054 36.0706 29.5606C36.9306 28.0612 37.7217 26.5277 38.444 24.9944C37.7217 23.4608 36.9306 21.9387 36.0592 20.4395C35.1648 18.9059 34.236 17.4525 33.2846 16.0906C31.5875 15.9533 29.8562 15.8732 28.125 15.8732C26.3823 15.8732 24.651 15.9533 22.9425 16.1021C21.9908 17.464 21.0737 18.9288 20.1794 20.4738C19.3195 21.9729 18.5169 23.5065 17.806 25.04C18.5283 26.5735 19.3195 28.0956 20.1908 29.5948C21.0852 31.1283 22.014 32.5819 22.9654 33.9437C24.6625 34.081 26.3937 34.161 28.125 34.161C29.8677 34.161 31.5992 34.081 33.3075 33.9323ZM41.3562 32.6275C40.9206 31.1398 40.3931 29.6062 39.774 28.0727C39.304 28.9883 38.8108 29.9152 38.2835 30.8308C37.756 31.7579 37.1942 32.6619 36.6325 33.5431C38.2721 33.3029 39.8542 32.9937 41.3562 32.6275ZM24.9604 36.6217C26.0154 37.9606 27.0817 39.1852 28.1479 40.2837C29.2027 39.1852 30.269 37.9606 31.301 36.6217C30.2575 36.679 29.1912 36.7017 28.1135 36.7017C27.0473 36.7017 25.9925 36.6675 24.9604 36.6217ZM14.9167 32.639C16.4187 33.0052 17.9895 33.3029 19.6176 33.5431C19.0557 32.6733 18.5054 31.7806 17.9665 30.8652C17.4276 29.9496 16.9346 29.0342 16.4645 28.1185C15.8683 29.6406 15.3409 31.1627 14.9167 32.639ZM31.2781 13.3898C30.2231 12.0508 29.1569 10.8263 28.0906 9.72762C27.0358 10.8263 25.9696 12.0508 24.9375 13.3898C25.981 13.3326 27.0473 13.3097 28.125 13.3097C29.1912 13.3097 30.246 13.344 31.2781 13.3898ZM17.9551 19.1806C18.4825 18.2536 19.0443 17.3495 19.6061 16.4683C17.9665 16.7086 16.3843 17.0176 14.8823 17.3724C15.318 18.8601 15.8454 20.3937 16.4645 21.9273C16.9346 21.0117 17.4276 20.0961 17.9551 19.1806ZM2.54535 25.0056C2.54535 26.8025 5.17096 29.0683 9.22977 30.7965C10.2273 31.22 11.305 31.609 12.4401 31.9637C13.0822 29.7323 13.9306 27.409 14.9855 25.0285C13.9192 22.6367 13.0593 20.3021 12.4057 18.0591C11.2936 18.4138 10.2158 18.7915 9.22977 19.2149C5.17096 20.9315 2.54535 23.209 2.54535 25.0056ZM13.6899 38.4871C13.1625 42.8587 13.8389 46.2577 15.3982 47.1504C15.7422 47.345 16.1779 47.4479 16.6939 47.4594C19.0787 47.4594 22.5871 45.5596 26.325 42.0921C24.7083 40.4098 23.1031 38.4871 21.5552 36.3698C18.9755 36.0952 16.5219 35.6719 14.2746 35.1225C14.0224 36.2783 13.816 37.4113 13.6899 38.4871ZM40.9206 47.1046C42.4683 46.2004 43.1333 42.8015 42.5946 38.4298C42.4683 37.3656 42.2621 36.2554 41.9983 35.0996C39.751 35.6604 37.2975 36.0837 34.7062 36.3583C33.1812 38.4756 31.576 40.3869 29.971 42.0692C33.7087 45.5137 37.2285 47.4021 39.6021 47.4021C40.1294 47.4021 40.5767 47.3106 40.9206 47.1046ZM43.8327 31.9523C44.945 31.5977 46.0227 31.22 47.0087 30.7965C51.0675 29.0798 53.6931 26.8025 53.7046 25.0056C53.7046 23.209 51.079 20.9429 47.0202 19.2149C46.0112 18.7915 44.9335 18.4024 43.7983 18.0476C43.1562 20.2792 42.3079 22.6025 41.2531 24.9829C42.3194 27.3746 43.1792 29.7094 43.8327 31.9523Z" fill="#BFBFBF"/>
</g>
<defs>
<clipPath id="clip0_271_619">
<rect width="56.25" height="50" fill="white"/>
</clipPath>
</defs>
</svg>
