<svg width="67" height="50" viewBox="0 0 67 50" fill="none" xmlns="http://www.w3.org/2000/svg">
<g clip-path="url(#clip0_271_624)">
<path d="M57.3844 28.7157C55.0584 28.7279 53.0369 29.2881 51.3442 30.1162C50.7231 28.8862 50.102 27.7902 49.9924 26.9864C49.8706 26.0487 49.7245 25.4764 49.8706 24.356C50.0168 23.2356 50.6744 21.6403 50.6622 21.5186C50.65 21.3968 50.5161 20.8244 49.1765 20.8123C47.8369 20.8001 46.68 21.068 46.5461 21.4211C46.4121 21.7743 46.1564 22.578 45.9859 23.4061C45.7545 24.6239 43.3068 28.9714 41.9063 31.2487C41.4557 30.3597 41.066 29.5803 40.9808 28.9593C40.859 28.0216 40.7129 27.4492 40.859 26.3288C41.0051 25.2085 41.6627 23.6132 41.6506 23.4914C41.6384 23.3696 41.5044 22.7972 40.1649 22.7851C38.8253 22.7729 37.6684 23.0408 37.5344 23.394C37.4005 23.7471 37.2543 24.5752 36.9742 25.379C36.6942 26.1827 33.4427 33.4407 32.5902 35.3161C32.1518 36.2782 31.7743 37.0454 31.5064 37.569C31.5064 37.569 31.4942 37.6056 31.4577 37.6665C31.2263 38.117 31.0923 38.3606 31.0923 38.3606C31.0923 38.3606 31.0923 38.3606 31.0923 38.3728C30.9097 38.7016 30.7148 39.006 30.6174 39.006C30.5443 39.006 30.4104 38.1292 30.6417 36.9358C31.1289 34.415 32.2858 30.4937 32.2736 30.3597C32.2736 30.2867 32.4928 29.6047 31.5186 29.2515C30.5687 28.8984 30.2277 29.4829 30.1424 29.4829C30.0572 29.4829 29.9963 29.6899 29.9963 29.6899C29.9963 29.6899 31.0558 25.2815 27.9748 25.2815C26.0507 25.2815 23.3959 27.3883 22.0807 29.2881C21.2526 29.7386 19.4868 30.7007 17.5992 31.7358C16.8807 32.1377 16.1379 32.5396 15.4437 32.9171C15.395 32.8684 15.3463 32.8075 15.2976 32.7588C11.5712 28.7766 4.67847 25.9635 4.97074 20.6174C5.08034 18.6689 5.75012 13.5542 18.2081 7.34349C28.4619 2.28967 36.6211 3.69013 38.0337 6.79549C40.0553 11.2282 33.6619 19.4605 23.0671 20.6539C19.024 21.1045 16.9051 19.5457 16.3692 18.9612C15.8091 18.3523 15.7238 18.3158 15.5168 18.4376C15.1758 18.6202 15.395 19.1682 15.5168 19.4849C15.8334 20.313 17.1365 21.7743 19.3407 22.4928C21.2891 23.126 26.0263 23.4792 31.7621 21.2628C38.1799 18.7785 43.1972 11.8737 41.7236 6.08917C40.2501 0.219426 30.5078 -1.71686 21.2891 1.55899C15.8091 3.50746 9.86625 6.57629 5.59181 10.5706C0.513629 15.32 -0.290111 19.4483 0.0386918 21.1776C1.21995 27.3152 9.68359 31.3096 13.069 34.2688C12.8986 34.3662 12.7402 34.4515 12.6063 34.5246C10.9136 35.3648 4.45927 38.7381 2.85179 42.3062C1.0251 46.3493 3.14406 49.2476 4.54451 49.6373C8.89202 50.8429 13.3613 48.6753 15.7604 45.095C18.1594 41.5147 17.8671 36.8627 16.7589 34.7316C16.7468 34.7072 16.7346 34.6829 16.7102 34.6585C17.1486 34.4028 17.5992 34.1349 18.0376 33.8791C18.9023 33.3677 19.7547 32.8927 20.4854 32.503C20.0713 33.6356 19.7669 34.9873 19.6207 36.9358C19.4381 39.2252 20.3758 42.1966 21.6057 43.3657C22.1538 43.8772 22.7992 43.8894 23.2132 43.8894C24.6502 43.8894 25.2956 42.6959 26.0141 41.2833C26.891 39.554 27.6825 37.5447 27.6825 37.5447C27.6825 37.5447 26.6961 42.976 29.3752 42.976C30.3495 42.976 31.3359 41.7095 31.7743 41.0641C31.7743 41.0763 31.7743 41.0763 31.7743 41.0763C31.7743 41.0763 31.7986 41.0397 31.8474 40.9545C31.9448 40.7962 32.0057 40.6987 32.0057 40.6987C32.0057 40.6987 32.0057 40.6866 32.0057 40.6744C32.3954 39.9924 33.2722 38.4458 34.5752 35.8763C36.2558 32.5639 37.8754 28.4234 37.8754 28.4234C37.8754 28.4234 38.0215 29.4342 38.5208 31.1147C38.8131 32.1012 39.422 33.185 39.9091 34.2323C39.5194 34.7803 39.2759 35.0847 39.2759 35.0847C39.2759 35.0847 39.2759 35.0847 39.288 35.0969C38.9714 35.511 38.6304 35.9616 38.2529 36.4C36.9255 37.9831 35.3424 39.7976 35.1232 40.3212C34.8675 40.9423 34.9284 41.3929 35.4155 41.7582C35.7686 42.0261 36.4019 42.0627 37.0473 42.0261C38.2407 41.9409 39.081 41.6486 39.4951 41.466C40.1405 41.2346 40.8955 40.8814 41.6018 40.3578C42.9049 39.3957 43.6964 38.0196 43.6234 36.2051C43.5868 35.2065 43.258 34.2079 42.8562 33.2702C42.978 33.0997 43.0876 32.9293 43.2093 32.7588C45.2674 29.7508 46.8627 26.4506 46.8627 26.4506C46.8627 26.4506 47.0088 27.4614 47.5081 29.1419C47.7517 29.9944 48.251 30.9199 48.6894 31.8211C46.7531 33.392 45.5597 35.2187 45.1334 36.4121C44.3662 38.6285 44.963 39.6271 46.0955 39.8585C46.607 39.9681 47.3376 39.7245 47.8735 39.4931C48.5554 39.2739 49.3592 38.8964 50.1264 38.3362C51.4294 37.3742 52.6837 36.0346 52.6107 34.2201C52.5741 33.392 52.3549 32.5761 52.0505 31.7845C53.6945 31.1026 55.8135 30.7251 58.5169 31.0417C64.3136 31.7236 65.4584 35.3405 65.2392 36.8627C65.02 38.3849 63.8022 39.213 63.4003 39.4688C62.9984 39.7245 62.8645 39.8098 62.901 39.9924C62.9497 40.2603 63.1446 40.2482 63.4855 40.1995C63.9605 40.1142 66.53 38.9695 66.6396 36.1686C66.8223 32.5883 63.4125 28.6792 57.3844 28.7157ZM12.6672 43.7919C10.7431 45.8865 8.06392 46.6781 6.90702 46.0083C5.66488 45.2898 6.152 42.1966 8.51451 39.9803C9.9515 38.6285 11.8025 37.3742 13.0325 36.607C13.3126 36.4365 13.7266 36.1929 14.2259 35.8885C14.3112 35.8398 14.3599 35.8154 14.3599 35.8154C14.4573 35.7545 14.5547 35.6936 14.6522 35.6327C15.5168 38.799 14.6887 41.5877 12.6672 43.7919ZM26.6717 34.2688C26.002 35.9007 24.6015 40.0777 23.7491 39.8463C23.0184 39.6515 22.5678 36.4852 23.6029 33.3555C24.1266 31.7845 25.2348 29.9091 25.8802 29.1785C26.9275 28.0094 28.0844 27.6197 28.3645 28.0946C28.7176 28.7157 27.0858 33.2459 26.6717 34.2688ZM38.2286 39.7976C37.9485 39.9437 37.6806 40.0411 37.5588 39.9681C37.4735 39.9194 37.6806 39.7245 37.6806 39.7245C37.6806 39.7245 39.1297 38.1657 39.7021 37.4594C40.0309 37.0454 40.4206 36.5583 40.8346 36.0103C40.8346 36.059 40.8346 36.1199 40.8346 36.1686C40.8346 38.0318 39.0323 39.2861 38.2286 39.7976ZM47.1428 37.7639C46.9358 37.6177 46.9723 37.1306 47.6664 35.6084C47.9344 35.0117 48.5676 34.0131 49.6514 33.051C49.7732 33.4407 49.8585 33.8182 49.8463 34.1714C49.8341 36.5217 48.1536 37.3985 47.1428 37.7639Z" fill="#BFBFBF"/>
</g>
<defs>
<clipPath id="clip0_271_624">
<rect width="67" height="50" fill="white"/>
</clipPath>
</defs>
</svg>
