<svg width="201" height="30" viewBox="0 0 201 30" fill="none" xmlns="http://www.w3.org/2000/svg">
<g clip-path="url(#clip0_277_160)">
<path d="M73.4997 9.09121C70.507 9.09121 68.0918 11.5064 68.0918 14.4991C68.0918 17.4918 70.507 19.907 73.4997 19.907C76.4924 19.907 78.9076 17.4918 78.9076 14.4991C78.9076 11.5064 76.4924 9.09121 73.4997 9.09121ZM73.4997 18.0139C71.5644 18.0139 69.985 16.4345 69.985 14.4991C69.985 12.5638 71.5644 10.9844 73.4997 10.9844C75.4351 10.9844 77.0145 12.5638 77.0145 14.4991C77.0145 16.4345 75.4351 18.0139 73.4997 18.0139ZM79.1291 7.60938C78.4304 7.60938 77.8661 8.17363 77.8661 8.87236C77.8661 9.5711 78.4304 10.1354 79.1291 10.1354C79.8278 10.1354 80.3921 9.57373 80.3921 8.87236C80.3923 8.70645 80.3598 8.54212 80.2964 8.38879C80.233 8.23547 80.14 8.09615 80.0226 7.97883C79.9053 7.86151 79.766 7.76849 79.6127 7.70509C79.4593 7.64169 79.295 7.60917 79.1291 7.60938Z" fill="white"/>
<path d="M84.0416 14.5007C84.0416 13.0452 84.0548 11.6029 83.9731 10.1501C83.8913 8.4626 83.5064 6.96494 82.2724 5.73096C81.0357 4.49434 79.5407 4.11201 77.8532 4.03028C76.3978 3.94854 74.9555 3.96172 73.5026 3.96172C72.0472 3.96172 70.6049 3.94854 69.1521 4.03028C67.4646 4.11201 65.9669 4.49698 64.7329 5.73096C63.4963 6.96758 63.114 8.4626 63.0322 10.1501C62.9505 11.6056 62.9637 13.0479 62.9637 14.5007C62.9637 15.9535 62.9505 17.3984 63.0322 18.8513C63.114 20.5388 63.4989 22.0364 64.7329 23.2704C65.9695 24.507 67.4646 24.8894 69.1521 24.9711C70.6075 25.0528 72.0498 25.0396 73.5026 25.0396C74.9581 25.0396 76.4004 25.0528 77.8532 24.9711C79.5407 24.8894 81.0384 24.5044 82.2724 23.2704C83.509 22.0338 83.8913 20.5388 83.9731 18.8513C84.0574 17.3984 84.0416 15.9562 84.0416 14.5007ZM81.7213 20.7181C81.5288 21.198 81.2968 21.5565 80.925 21.9257C80.5532 22.2975 80.1973 22.5295 79.7174 22.722C78.3305 23.273 75.0372 23.1491 73.5 23.1491C71.9628 23.1491 68.6669 23.273 67.28 22.7246C66.8001 22.5321 66.4415 22.3001 66.0724 21.9283C65.7006 21.5565 65.4686 21.2006 65.2761 20.7207C64.7276 19.3312 64.8516 16.0379 64.8516 14.5007C64.8516 12.9635 64.7276 9.66758 65.2761 8.28067C65.4686 7.80078 65.7006 7.44219 66.0724 7.07305C66.4441 6.70391 66.8001 6.46924 67.28 6.27676C68.6669 5.72832 71.9628 5.85225 73.5 5.85225C75.0372 5.85225 78.3331 5.72832 79.72 6.27676C80.1999 6.46924 80.5585 6.70127 80.9276 7.07305C81.2994 7.44483 81.5315 7.80078 81.7239 8.28067C82.2724 9.66758 82.1484 12.9635 82.1484 14.5007C82.1484 16.0379 82.2724 19.3312 81.7213 20.7181Z" fill="white"/>
</g>
<path d="M129.69 27H134.085V16.05H137.76L138.315 11.79H134.085V9.06C134.085 7.83 134.43 6.99 136.2 6.99H138.465V3.165C138.075 3.12 136.74 3 135.18 3C131.91 3 129.69 4.995 129.69 8.64V11.79H126V16.05H129.69V27Z" fill="white"/>
<path d="M28 6.60431C27.0638 7.05339 26.0709 7.34816 25.0541 7.47883C26.1132 6.79148 26.9264 5.70304 27.3093 4.40617C26.3025 5.05311 25.201 5.50892 24.0523 5.7539C23.1167 4.67455 21.7838 4 20.3085 4C17.4759 4 15.1793 6.48672 15.1793 9.55377C15.1793 9.98913 15.2247 10.413 15.3121 10.8195C11.0494 10.5879 7.27012 8.37682 4.74033 5.01664C4.29893 5.83691 4.046 6.79106 4.046 7.80875C4.046 9.73566 4.95156 11.4355 6.32773 12.4315C5.51323 12.4039 4.71665 12.1657 4.00449 11.7368C4.0042 11.7601 4.0042 11.7833 4.0042 11.8067C4.0042 14.4976 5.77217 16.7424 8.11846 17.2526C7.36317 17.475 6.57093 17.5076 5.80225 17.3478C6.45488 19.5543 8.34912 21.1599 10.5935 21.2048C8.83809 22.6944 6.62646 23.5823 4.22354 23.5823C3.80947 23.5823 3.40127 23.556 3 23.5047C5.26982 25.0805 7.96582 26 10.8623 26C20.2966 26 25.4555 17.5371 25.4555 10.1979C25.4555 9.95698 25.4506 9.71747 25.4406 9.47933C26.4448 8.6933 27.3114 7.71973 28 6.60431Z" fill="white"/>
<path fill-rule="evenodd" clip-rule="evenodd" d="M178 5.838C178 5.35053 178.194 4.88303 178.538 4.53834C178.883 4.19365 179.351 4 179.838 4H198.16C198.402 3.99961 198.641 4.04687 198.864 4.13907C199.087 4.23127 199.29 4.36661 199.461 4.53734C199.632 4.70807 199.768 4.91083 199.86 5.13401C199.953 5.3572 200 5.59643 200 5.838V24.16C200 24.4016 199.953 24.6409 199.861 24.8642C199.768 25.0875 199.633 25.2904 199.462 25.4613C199.291 25.6322 199.088 25.7678 198.865 25.8602C198.642 25.9526 198.403 26.0001 198.161 26H179.838C179.597 26 179.357 25.9524 179.134 25.86C178.911 25.7676 178.709 25.6321 178.538 25.4613C178.367 25.2905 178.232 25.0878 178.14 24.8647C178.047 24.6416 178 24.4025 178 24.161V5.838ZM186.708 12.388H189.687V13.884C190.117 13.024 191.217 12.25 192.87 12.25C196.039 12.25 196.79 13.963 196.79 17.106V22.928H193.583V17.822C193.583 16.032 193.153 15.022 192.061 15.022C190.546 15.022 189.916 16.111 189.916 17.822V22.928H186.708V12.388ZM181.208 22.791H184.416V12.25H181.208V22.79V22.791ZM184.875 8.812C184.881 9.08668 184.832 9.35979 184.731 9.61532C184.63 9.87084 184.479 10.1036 184.287 10.3C184.095 10.4964 183.866 10.6525 183.612 10.759C183.359 10.8655 183.087 10.9204 182.813 10.9204C182.538 10.9204 182.266 10.8655 182.013 10.759C181.759 10.6525 181.53 10.4964 181.338 10.3C181.146 10.1036 180.995 9.87084 180.894 9.61532C180.793 9.35979 180.744 9.08668 180.75 8.812C180.762 8.27286 180.984 7.75979 181.37 7.38269C181.755 7.00558 182.273 6.79442 182.813 6.79442C183.352 6.79442 183.87 7.00558 184.255 7.38269C184.641 7.75979 184.863 8.27286 184.875 8.812Z" fill="white"/>
<defs>
<clipPath id="clip0_277_160">
<rect width="27" height="27" fill="white" transform="translate(60 1)"/>
</clipPath>
</defs>
</svg>
