<svg width="25" height="25" viewBox="0 0 20 20" fill="none" xmlns="http://www.w3.org/2000/svg">
    <path d="M6.2825 19.2107C13.83 19.2107 17.9587 12.6278 17.9587 6.92909C17.9587 6.74488 17.9588 6.55804 17.9513 6.37382C18.7551 5.76131 19.4488 5.00297 20 4.13435C19.2491 4.48284 18.4535 4.71252 17.6388 4.81593C18.4969 4.27598 19.1397 3.42642 19.4475 2.42514C18.6412 2.92794 17.7588 3.2809 16.8387 3.46856C16.2202 2.77517 15.4018 2.31582 14.5101 2.16166C13.6185 2.00751 12.7034 2.16714 11.9067 2.61585C11.1099 3.06455 10.476 3.77728 10.1031 4.64364C9.73012 5.51 9.63897 6.48163 9.84375 7.40804C8.21218 7.32192 6.61602 6.87576 5.1588 6.09849C3.70159 5.32122 2.41586 4.2302 1.385 2.89619C0.861675 3.84762 0.701967 4.97304 0.938308 6.04391C1.17465 7.11479 1.78932 8.05084 2.6575 8.66198C2.00692 8.63872 1.37065 8.45482 0.8 8.12514V8.18435C0.801122 9.18104 1.12913 10.1467 1.72859 10.9182C2.32805 11.6897 3.16218 12.2197 4.09 12.4186C3.73783 12.5207 3.37404 12.5716 3.00875 12.5699C2.75123 12.5707 2.49423 12.5456 2.24125 12.4949C2.50348 13.3528 3.01409 14.103 3.70156 14.6402C4.38903 15.1775 5.21892 15.4749 6.075 15.4909C4.62069 16.6933 2.82425 17.3454 0.975 17.3422C0.649151 17.3437 0.323529 17.3239 0 17.283C1.87689 18.5426 4.05662 19.2114 6.2825 19.2107V19.2107Z" fill="black"/>
</svg>
