<svg width="485" height="491" viewBox="0 0 485 491" fill="none" xmlns="http://www.w3.org/2000/svg">
<path fill-rule="evenodd" clip-rule="evenodd" d="M81 15H457C464.18 15 470 20.8203 470 28V82.9043H225.107L196.803 54.601C195.504 53.3021 193.848 52.5792 192.15 52.4324C191.364 52.1524 190.517 52 189.635 52H116.555C112.687 52 109.503 54.9277 109.098 58.6878C109.034 59.0837 109 59.4901 109 59.9043V83H69.5C68.9863 83 68.4847 83.0516 68 83.15V28C68 20.8203 73.8203 15 81 15ZM68 97.85V353C68 360.18 73.8203 366 81 366H211.086C207.515 363.314 203.392 361.031 198.846 359.26C197.373 359.408 195.841 359.122 194.451 358.346C192.176 357.076 190.819 354.798 190.627 352.383C190.402 351.189 190.465 349.924 190.866 348.687C191.313 347.306 192.123 346.144 193.157 345.272L261.247 223.241C262.741 220.563 265.632 219.158 268.5 219.426C271.368 219.158 274.259 220.563 275.753 223.241L343.843 345.272C344.877 346.144 345.687 347.306 346.134 348.687C346.535 349.924 346.598 351.189 346.373 352.383C346.181 354.798 344.824 357.076 342.549 358.346C341.159 359.122 339.627 359.408 338.154 359.26C333.608 361.031 329.485 363.314 325.914 366H457C464.18 366 470 360.18 470 353V97.9043H222.4C220.897 97.9043 219.498 97.4622 218.324 96.701C217.554 96.3412 216.833 95.8434 216.197 95.2076L187.989 67H124V89.9043C124 90.004 123.998 90.1033 123.994 90.2021C123.998 90.3009 124 90.4003 124 90.5C124 94.6421 120.642 98 116.5 98H69.5C68.9863 98 68.4847 97.9484 68 97.85ZM313.77 381H457C472.464 381 485 368.464 485 353V28C485 12.536 472.464 0 457 0H81C65.536 0 53 12.536 53 28V353C53 368.464 65.536 381 81 381H223.23C224.748 384.596 225.5 388.305 225.5 392C225.5 393.921 226.222 395.673 227.41 397H210C205.029 397 201 401.029 201 406V482C201 486.971 205.029 491 210 491H328C332.971 491 337 486.971 337 482V406C337 401.029 332.971 397 328 397H309.59C310.778 395.673 311.5 393.921 311.5 392C311.5 388.305 312.252 384.596 313.77 381ZM305.095 366C308.082 361.815 311.757 358.022 315.983 354.714C319.596 351.886 323.582 349.435 327.848 347.39L277 256.26V278.5C277 279.869 276.633 281.152 275.993 282.257C283.59 285.092 289 292.414 289 301C289 312.046 280.046 321 269 321C257.954 321 249 312.046 249 301C249 292.101 254.812 284.56 262.846 281.965C262.306 280.928 262 279.75 262 278.5V252.675L209.152 347.39C213.418 349.435 217.404 351.886 221.017 354.714C225.243 358.022 228.918 361.815 231.905 366H305.095ZM239.051 381H297.949C296.992 384.589 296.5 388.276 296.5 392C296.5 393.921 297.222 395.673 298.41 397H238.59C239.778 395.673 240.5 393.921 240.5 392C240.5 388.276 240.008 384.589 239.051 381ZM225.894 187.275C231.127 185.541 236.512 184.132 242 183.057V185C242 193.284 248.716 200 257 200H282C290.284 200 297 193.284 297 185V183.464C301.797 184.479 306.51 185.752 311.106 187.275C324.581 191.74 336.734 198.256 346.9 206.388C357.064 214.52 365.014 224.083 370.396 234.476C375.772 244.86 378.5 255.905 378.5 267H378C369.716 267 363 273.716 363 282V307C363 315.284 369.716 322 378 322H403C411.284 322 418 315.284 418 307V282C418 273.716 411.284 267 403 267H393.5C393.5 253.407 390.15 240.005 383.716 227.579C377.287 215.163 367.928 204.001 356.27 194.675C350.32 189.915 343.823 185.674 336.888 182H380.5H387.685C391.553 192.506 401.651 200 413.5 200C428.688 200 441 187.688 441 172.5C441 157.312 428.688 145 413.5 145C400.196 145 389.098 154.448 386.55 167H380.5H304.5H297V160C297 151.716 290.284 145 282 145H257C248.716 145 242 151.716 242 160V167H234.5H158.5H152.45C149.902 154.448 138.804 145 125.5 145C110.312 145 98 157.312 98 172.5C98 187.688 110.312 200 125.5 200C137.349 200 147.447 192.506 151.315 182H158.5H200.112C193.177 185.674 186.68 189.915 180.73 194.675C169.072 204.001 159.713 215.163 153.284 227.579C146.85 240.005 143.5 253.407 143.5 267H135C126.716 267 120 273.716 120 282V307C120 315.284 126.716 322 135 322H160C168.284 322 175 315.284 175 307V282C175 273.716 168.284 267 160 267H158.5C158.5 255.905 161.228 244.86 166.604 234.476C171.986 224.083 179.936 214.52 190.1 206.388C200.266 198.256 212.419 191.74 225.894 187.275ZM282 160V166.092C277.523 165.698 273.017 165.5 268.5 165.5C264.655 165.5 260.818 165.644 257 165.929V160H282ZM268.5 180.5C264.65 180.5 260.811 180.66 257 180.976V185H282V181.156C277.533 180.72 273.024 180.5 268.5 180.5ZM125.5 185C132.404 185 138 179.404 138 172.5C138 165.596 132.404 160 125.5 160C118.596 160 113 165.596 113 172.5C113 179.404 118.596 185 125.5 185ZM426 172.5C426 179.404 420.404 185 413.5 185C406.596 185 401 179.404 401 172.5C401 165.596 406.596 160 413.5 160C420.404 160 426 165.596 426 172.5ZM348.5 55C351.538 55 354 52.5376 354 49.5C354 46.4624 351.538 44 348.5 44C345.462 44 343 46.4624 343 49.5C343 52.5376 345.462 55 348.5 55ZM348.5 67C358.165 67 366 59.165 366 49.5C366 39.835 358.165 32 348.5 32C338.835 32 331 39.835 331 49.5C331 59.165 338.835 67 348.5 67ZM277 301C277 305.418 273.418 309 269 309C264.582 309 261 305.418 261 301C261 296.582 264.582 293 269 293C273.418 293 277 296.582 277 301ZM393.5 55C396.538 55 399 52.5376 399 49.5C399 46.4624 396.538 44 393.5 44C390.462 44 388 46.4624 388 49.5C388 52.5376 390.462 55 393.5 55ZM393.5 67C403.165 67 411 59.165 411 49.5C411 39.835 403.165 32 393.5 32C383.835 32 376 39.835 376 49.5C376 59.165 383.835 67 393.5 67ZM444 49.5C444 52.5376 441.538 55 438.5 55C435.462 55 433 52.5376 433 49.5C433 46.4624 435.462 44 438.5 44C441.538 44 444 46.4624 444 49.5ZM456 49.5C456 59.165 448.165 67 438.5 67C428.835 67 421 59.165 421 49.5C421 39.835 428.835 32 438.5 32C448.165 32 456 39.835 456 49.5ZM135 282H160V307H135V282ZM403 282H378V307H403V282ZM216 476V412H322V476H216Z" fill="black"/>
<path d="M236 374H302.313" stroke="white" stroke-width="16" stroke-linecap="square"/>
<path d="M265 173L274 173" stroke="white" stroke-width="16" stroke-linecap="square"/>
<path fill-rule="evenodd" clip-rule="evenodd" d="M15.6604 92.9302C15.0122 98.4862 15 106.058 15 116.999V117H14.9836C14.9945 117.165 15 117.332 15 117.5V396.5V396.501C15 407.442 15.0122 415.014 15.6604 420.57C16.3103 426.141 17.4565 428.071 18.4009 428.984C19.4037 429.954 21.5704 431.128 27.5316 431.797C33.4182 432.458 41.4673 432.5 52.9982 432.5H193H200.5V447.5H193H52.9982H52H44.5V447.482C37.1271 447.435 30.9264 447.273 25.8575 446.703C19.0223 445.936 12.6582 444.297 7.97369 439.767C3.2308 435.181 1.53335 428.924 0.761446 422.308C0.597567 420.903 0.468949 419.409 0.368009 417.827C0.129139 417.094 -3.55076e-08 416.312 0 415.5L7.6318e-06 396.986L1.33538e-05 396.501V396.5V117.5C1.33538e-05 117.332 0.00553795 117.165 0.0164154 117H1.33538e-05V116.999L7.6318e-06 116.514C-0.000176427 106.175 -0.000326631 97.7217 0.761446 91.1921C1.53335 84.5755 3.2308 78.319 7.97369 73.7326C12.6582 69.2027 19.0223 67.5642 25.8575 66.7966C32.7672 66.0205 41.78 66 52.9982 66V81C41.4673 81 33.4182 81.0417 27.5316 81.7028C21.5704 82.3723 19.4037 83.5459 18.4009 84.5156C17.4565 85.4288 16.3103 87.3594 15.6604 92.9302ZM417.498 396.501C417.498 407.442 417.486 415.014 416.838 420.57C416.188 426.141 415.042 428.071 414.097 428.984C413.094 429.954 410.928 431.128 404.966 431.797C404.295 431.873 403.596 431.94 402.867 432H397.5H343.5H336V447H343.5H379.5V447.5C389.063 447.5 397.023 447.485 403.444 447H405V446.87C405.559 446.819 406.106 446.763 406.641 446.703C413.476 445.936 419.84 444.297 424.524 439.767C429.267 435.181 430.965 428.924 431.737 422.308C432.498 415.781 432.498 407.332 432.498 397H432.5V389.5V388.5V381H417.5V388.5V389.5V396.5H417.498V396.501Z" fill="black"/>
</svg>
