<svg width="832" height="522" viewBox="0 0 832 522" fill="none" xmlns="http://www.w3.org/2000/svg">
<g clip-path="url(#clip0_704_2529)">
<path d="M356.656 521.56C353.52 521.56 350.813 521 348.536 519.88C346.296 518.76 344.56 517.061 343.328 514.784C342.133 512.469 341.536 509.501 341.536 505.88V483.144C341.536 482.733 341.648 482.416 341.872 482.192C342.096 481.931 342.413 481.8 342.824 481.8H345.68C346.091 481.8 346.408 481.931 346.632 482.192C346.893 482.416 347.024 482.733 347.024 483.144V505.992C347.024 509.651 347.883 512.357 349.6 514.112C351.317 515.867 353.669 516.744 356.656 516.744C359.605 516.744 361.939 515.867 363.656 514.112C365.411 512.357 366.288 509.651 366.288 505.992V483.144C366.288 482.733 366.4 482.416 366.624 482.192C366.885 481.931 367.203 481.8 367.576 481.8H370.488C370.861 481.8 371.16 481.931 371.384 482.192C371.645 482.416 371.776 482.733 371.776 483.144V505.88C371.776 509.501 371.16 512.469 369.928 514.784C368.733 517.061 367.016 518.76 364.776 519.88C362.536 521 359.829 521.56 356.656 521.56ZM382.426 521C382.015 521 381.698 520.888 381.474 520.664C381.25 520.403 381.138 520.085 381.138 519.712V483.088C381.138 482.715 381.25 482.416 381.474 482.192C381.698 481.931 382.015 481.8 382.426 481.8H385.394C385.767 481.8 386.066 481.931 386.29 482.192C386.551 482.416 386.682 482.715 386.682 483.088V519.712C386.682 520.085 386.551 520.403 386.29 520.664C386.066 520.888 385.767 521 385.394 521H382.426ZM394.154 525.704C393.855 525.704 393.594 525.592 393.37 525.368C393.146 525.144 393.034 524.883 393.034 524.584C393.034 524.397 393.09 524.173 393.202 523.912L412.354 477.992C412.466 477.768 412.615 477.544 412.802 477.32C413.026 477.096 413.362 476.984 413.81 476.984H415.994C416.293 476.984 416.554 477.096 416.778 477.32C417.002 477.544 417.114 477.805 417.114 478.104C417.114 478.253 417.077 478.477 417.002 478.776L397.794 524.696C397.719 524.883 397.551 525.088 397.29 525.312C397.066 525.573 396.749 525.704 396.338 525.704H394.154ZM438.195 521.56C435.059 521.56 432.352 521 430.075 519.88C427.835 518.76 426.099 517.061 424.867 514.784C423.672 512.469 423.075 509.501 423.075 505.88V483.144C423.075 482.733 423.187 482.416 423.411 482.192C423.635 481.931 423.952 481.8 424.363 481.8H427.219C427.63 481.8 427.947 481.931 428.171 482.192C428.432 482.416 428.563 482.733 428.563 483.144V505.992C428.563 509.651 429.422 512.357 431.139 514.112C432.856 515.867 435.208 516.744 438.195 516.744C441.144 516.744 443.478 515.867 445.195 514.112C446.95 512.357 447.827 509.651 447.827 505.992V483.144C447.827 482.733 447.939 482.416 448.163 482.192C448.424 481.931 448.742 481.8 449.115 481.8H452.027C452.4 481.8 452.699 481.931 452.923 482.192C453.184 482.416 453.315 482.733 453.315 483.144V505.88C453.315 509.501 452.699 512.469 451.467 514.784C450.272 517.061 448.555 518.76 446.315 519.88C444.075 521 441.368 521.56 438.195 521.56ZM460.27 521C459.971 521 459.691 520.888 459.43 520.664C459.206 520.44 459.094 520.179 459.094 519.88C459.094 519.731 459.113 519.6 459.15 519.488C459.225 519.339 459.281 519.227 459.318 519.152L472.142 501.064L459.934 483.648C459.822 483.424 459.766 483.181 459.766 482.92C459.766 482.621 459.878 482.36 460.102 482.136C460.326 481.912 460.587 481.8 460.886 481.8H464.246C464.619 481.8 464.918 481.893 465.142 482.08C465.366 482.229 465.571 482.453 465.758 482.752L475.614 496.752L485.414 482.752C485.563 482.453 485.75 482.229 485.974 482.08C486.235 481.893 486.534 481.8 486.87 481.8H490.062C490.361 481.8 490.622 481.912 490.846 482.136C491.07 482.36 491.182 482.621 491.182 482.92C491.182 483.181 491.107 483.424 490.958 483.648L478.918 501.12L491.686 519.152C491.761 519.227 491.817 519.339 491.854 519.488C491.891 519.6 491.91 519.731 491.91 519.88C491.91 520.179 491.798 520.44 491.574 520.664C491.35 520.888 491.07 521 490.734 521H487.318C486.982 521 486.683 520.907 486.422 520.72C486.198 520.533 485.993 520.328 485.806 520.104L475.39 505.544L465.03 520.104C464.843 520.328 464.638 520.533 464.414 520.72C464.19 520.907 463.891 521 463.518 521H460.27Z" fill="#2B2B2B"/>
<path d="M822.799 320H8.69922C3.69922 320 -0.300781 316 -0.300781 311C-0.300781 306 3.69922 302 8.69922 302H822.899C827.899 302 831.899 306 831.899 311C831.799 316 827.799 320 822.799 320Z" fill="#3B3B3B"/>
<path d="M460.4 301.398H319.6V309.798H460.4V301.398Z" fill="#444E59"/>
<path d="M558.2 246.5H226C219.4 246.5 214 241.1 214 234.5V12C214 5.4 219.4 0 226 0H558.2C564.8 0 570.2 5.4 570.2 12V234.4C570.2 241.1 564.9 246.5 558.2 246.5Z" fill="#848484"/>
<path d="M549.088 204.278V22.5781L236.488 22.5781L236.488 204.278L549.088 204.278Z" fill="#F9F9F9"/>
<path opacity="0.4" d="M559 246.5H506.9V151.7C506.9 144.1 513 138 520.6 138H559V246.5Z" fill="#848484"/>
<path opacity="0.4" d="M239.3 154.898H214V229.598C214 238.898 222 246.498 231.4 246.498H260.5V176.498C260.4 164.798 250.9 154.898 239.3 154.898Z" fill="#848484"/>
<path d="M559.2 246.5H226.4C219.8 246.5 214.4 241.1 214.4 234.5V12C214.4 5.4 219.8 0 226.4 0H559.2C565.8 0 571.2 5.4 571.2 12V234.4C571.2 241.1 565.8 246.5 559.2 246.5Z" stroke="#2B2B2B" stroke-width="4" stroke-miterlimit="10" stroke-linecap="round" stroke-linejoin="round"/>
<path d="M548.686 204.278V22.5781L236.986 22.5781L236.986 204.278L548.686 204.278Z" stroke="#2B2B2B" stroke-width="4" stroke-miterlimit="10" stroke-linecap="round" stroke-linejoin="round"/>
<path opacity="0.32" d="M488.101 195.498H316.301C312.401 195.498 309.301 192.298 309.301 188.498V65.8984C309.301 61.9984 312.501 58.8984 316.301 58.8984H488.101C492.001 58.8984 495.101 62.0984 495.101 65.8984V188.398C495.101 192.298 492.001 195.498 488.101 195.498Z" fill="#848484"/>
<path d="M480.101 188.699H308.301C304.401 188.699 301.301 185.499 301.301 181.699V59.1992C301.301 55.2992 304.501 52.1992 308.301 52.1992H480.101C484.001 52.1992 487.101 55.3992 487.101 59.1992V181.699C487.201 185.599 484.001 188.699 480.101 188.699Z" fill="#AFB1B2"/>
<path d="M480.101 188.699H308.301C304.401 188.699 301.301 185.499 301.301 181.699V59.1992C301.301 55.2992 304.501 52.1992 308.301 52.1992H480.101C484.001 52.1992 487.101 55.3992 487.101 59.1992V181.699C487.201 185.599 484.001 188.699 480.101 188.699Z" stroke="#444E59" stroke-width="4" stroke-miterlimit="10" stroke-linecap="round" stroke-linejoin="round"/>
<path d="M434.7 301.4H350.9L361.3 246.5H424.3L434.7 301.4Z" fill="#848484"/>
<path opacity="0.32" d="M427.1 262L424.3 246.5H361.3L358.5 262H427.1Z" fill="#848484"/>
<path d="M434.7 301.4H350.9L361.3 246.5H424.3L434.7 301.4Z" stroke="#444E59" stroke-width="4" stroke-miterlimit="10" stroke-linecap="round" stroke-linejoin="round"/>
<path d="M460.4 301.398H319.6V309.798H460.4V301.398Z" stroke="#444E59" stroke-width="4" stroke-miterlimit="10" stroke-linecap="round" stroke-linejoin="round"/>
<path d="M392.3 227.502C395.724 227.502 398.5 224.726 398.5 221.302C398.5 217.877 395.724 215.102 392.3 215.102C388.875 215.102 386.1 217.877 386.1 221.302C386.1 224.726 388.875 227.502 392.3 227.502Z" fill="#444E59"/>
<path d="M465.999 176.1H294.199C290.299 176.1 287.199 172.9 287.199 169.1V46.5C287.199 42.6 290.399 39.5 294.199 39.5H465.999C469.899 39.5 472.999 42.7 472.999 46.5V169C473.099 172.9 469.899 176.1 465.999 176.1Z" fill="white"/>
<path d="M465.999 176.1H294.199C290.299 176.1 287.199 172.9 287.199 169.1V46.5C287.199 42.6 290.399 39.5 294.199 39.5H465.999C469.899 39.5 472.999 42.7 472.999 46.5V169C473.099 172.9 469.899 176.1 465.999 176.1Z" stroke="#444E59" stroke-width="4" stroke-miterlimit="10" stroke-linecap="round" stroke-linejoin="round"/>
<path d="M473.099 60.5984H287.199V46.7985C287.199 42.7985 290.499 39.3984 294.599 39.3984H466.199C469.999 39.3984 473.099 42.4985 473.099 46.2985V60.5984Z" fill="#BBBFC2"/>
<path d="M473.099 60.5984H287.199V46.7985C287.199 42.7985 290.499 39.3984 294.599 39.3984H466.199C469.999 39.3984 473.099 42.4985 473.099 46.2985V60.5984Z" stroke="#444E59" stroke-width="4" stroke-miterlimit="10" stroke-linecap="round" stroke-linejoin="round"/>
<path d="M305.101 53.4008C306.923 53.4008 308.401 51.9233 308.401 50.1008C308.401 48.2782 306.923 46.8008 305.101 46.8008C303.278 46.8008 301.801 48.2782 301.801 50.1008C301.801 51.9233 303.278 53.4008 305.101 53.4008Z" fill="#444E59"/>
<path d="M316.001 53.4008C317.824 53.4008 319.301 51.9233 319.301 50.1008C319.301 48.2782 317.824 46.8008 316.001 46.8008C314.179 46.8008 312.701 48.2782 312.701 50.1008C312.701 51.9233 314.179 53.4008 316.001 53.4008Z" fill="#444E59"/>
<path d="M326.8 53.4008C328.623 53.4008 330.1 51.9233 330.1 50.1008C330.1 48.2782 328.623 46.8008 326.8 46.8008C324.977 46.8008 323.5 48.2782 323.5 50.1008C323.5 51.9233 324.977 53.4008 326.8 53.4008Z" fill="#444E59"/>
<path d="M455.601 97.1985H303.301C302.201 97.1985 301.301 96.2985 301.301 95.1985V73.8984C301.301 72.7984 302.201 71.8984 303.301 71.8984H455.601C456.701 71.8984 457.601 72.7984 457.601 73.8984V95.1985C457.601 96.2985 456.701 97.1985 455.601 97.1985Z" fill="#848484"/>
<path opacity="0.2" d="M347.099 123.898H303.199C302.099 123.898 301.199 122.998 301.199 121.898V110.398C301.199 109.298 302.099 108.398 303.199 108.398H347.099C348.199 108.398 349.099 109.298 349.099 110.398V121.898C349.099 122.998 348.299 123.898 347.099 123.898Z" fill="#444E59"/>
<path opacity="0.2" d="M308.299 135.199H343.499" stroke="#444E59" stroke-width="4" stroke-miterlimit="10" stroke-linecap="round" stroke-linejoin="round"/>
<path opacity="0.2" d="M308.299 146.5H343.499" stroke="#444E59" stroke-width="4" stroke-miterlimit="10" stroke-linecap="round" stroke-linejoin="round"/>
<path opacity="0.2" d="M402.099 123.898H358.199C357.099 123.898 356.199 122.998 356.199 121.898V110.398C356.199 109.298 357.099 108.398 358.199 108.398H402.099C403.199 108.398 404.099 109.298 404.099 110.398V121.898C404.099 122.998 403.199 123.898 402.099 123.898Z" fill="#444E59"/>
<path opacity="0.2" d="M363.199 135.199H396.999" stroke="#444E59" stroke-width="4" stroke-miterlimit="10" stroke-linecap="round" stroke-linejoin="round"/>
<path opacity="0.2" d="M363.199 146.5H396.999" stroke="#444E59" stroke-width="4" stroke-miterlimit="10" stroke-linecap="round" stroke-linejoin="round"/>
<g opacity="0.2">
<path d="M457 147.9H413.1C412 147.9 411.1 147 411.1 145.9V110.5C411.1 109.4 412 108.5 413.1 108.5H457C458.1 108.5 459 109.4 459 110.5V145.9C459 147 458.1 147.9 457 147.9Z" fill="#444E59"/>
</g>
<g opacity="0.09">
<path d="M455.6 159.202H413.8C412.2 159.202 411 157.902 411 156.402C411 154.902 412.3 153.602 413.8 153.602H455.6C457.2 153.602 458.4 154.902 458.4 156.402C458.4 157.902 457.1 159.202 455.6 159.202Z" fill="#444E59"/>
</g>
<path d="M142.2 267.398H61.6004C60.6004 267.398 59.7004 267.698 59.0004 268.398L39.5004 285.398C37.7004 286.998 37.7004 289.798 39.5004 291.298L59.0004 308.598C59.7004 309.198 60.6004 309.798 61.6004 309.798H142.2C146.8 309.798 150.6 305.598 150.6 300.998V275.498C150.5 271.098 146.8 267.398 142.2 267.398ZM59.4004 293.298C56.7004 293.298 54.4004 291.098 54.4004 288.298C54.4004 285.498 56.6004 283.298 59.4004 283.298C62.2004 283.298 64.4004 285.498 64.4004 288.298C64.4004 291.098 62.2004 293.298 59.4004 293.298Z" fill="white"/>
<path d="M103.6 267.398H80.0996V309.898H103.6V267.398Z" fill="#2B2B2B" fill-opacity="0.3"/>
<path d="M127.1 267.398H103.6V309.898H127.1V267.398Z" fill="#2B2B2B" fill-opacity="0.7"/>
<path d="M140.1 309.898H127.1V267.398H140.5C146 267.398 150.6 271.898 150.6 277.498V299.498C150.5 305.198 145.8 309.898 140.1 309.898Z" fill="#2B2B2B"/>
<path opacity="0.4" d="M144.4 269.498C144 269.398 143.6 269.398 143.2 269.398H62.6004C61.6004 269.398 60.7004 269.698 60.0004 270.398L40.5004 287.398C38.7004 288.998 38.7004 291.798 40.5004 293.298L52.7004 303.998L65.9004 307.298C66.5004 307.498 67.2004 307.498 67.9004 307.498C69.2004 307.498 70.4004 307.198 71.6004 306.598L143.4 269.998C143.7 269.898 144.1 269.698 144.4 269.498ZM60.4004 295.298C57.7004 295.298 55.4004 293.098 55.4004 290.298C55.4004 287.498 57.6004 285.298 60.4004 285.298C63.2004 285.298 65.4004 287.498 65.4004 290.298C65.4004 293.098 63.2004 295.298 60.4004 295.298Z" fill="#848484"/>
<path d="M142.2 267.398H61.6004C60.6004 267.398 59.7004 267.698 59.0004 268.398L39.5004 285.398C37.7004 286.998 37.7004 289.798 39.5004 291.298L59.0004 308.598C59.7004 309.198 60.6004 309.798 61.6004 309.798H142.2C146.8 309.798 150.6 305.598 150.6 300.998V275.498C150.5 271.098 146.8 267.398 142.2 267.398ZM59.4004 293.298C56.7004 293.298 54.4004 291.098 54.4004 288.298C54.4004 285.498 56.6004 283.298 59.4004 283.298C62.2004 283.298 64.4004 285.498 64.4004 288.298C64.4004 291.098 62.2004 293.298 59.4004 293.298Z" stroke="#2B2B2B" stroke-width="4" stroke-miterlimit="10" stroke-linecap="round" stroke-linejoin="round"/>
<path d="M103.6 267.398H80.0996V309.898H103.6V267.398Z" stroke="#2B2B2B" stroke-width="4" stroke-miterlimit="10" stroke-linecap="round" stroke-linejoin="round"/>
<path d="M127.1 267.398H103.6V309.898H127.1V267.398Z" stroke="#2B2B2B" stroke-width="4" stroke-miterlimit="10" stroke-linecap="round" stroke-linejoin="round"/>
<path d="M140.1 309.898H127.1V267.398H140.5C146 267.398 150.6 271.898 150.6 277.498V299.498C150.5 305.198 145.8 309.898 140.1 309.898Z" stroke="#2B2B2B" stroke-width="4" stroke-miterlimit="10" stroke-linecap="round" stroke-linejoin="round"/>
<path d="M121.4 226.999L49.5999 263.599C48.6999 263.999 48.0999 264.799 47.6999 265.699L38.0999 289.699C37.1999 291.899 38.4999 294.399 40.7999 294.999L65.8999 301.399C66.7999 301.599 67.7999 301.499 68.6999 301.099L140.5 264.499C144.6 262.399 146.2 257.399 144.1 253.399L132.5 230.699C130.4 226.499 125.4 224.899 121.4 226.999Z" fill="white"/>
<path d="M107.875 233.851L86.9414 244.531L106.03 281.945L126.964 271.264L107.875 233.851Z" fill="#2B2B2B" fill-opacity="0.7"/>
<path d="M121.4 226.999L49.5999 263.599C48.6999 263.999 48.0999 264.799 47.6999 265.699L38.0999 289.699C37.1999 291.899 38.4999 294.399 40.7999 294.999L65.8999 301.399C66.7999 301.599 67.7999 301.499 68.6999 301.099L140.5 264.499C144.6 262.399 146.2 257.399 144.1 253.399L132.5 230.699C130.4 226.499 125.4 224.899 121.4 226.999Z" stroke="#848484" stroke-width="4" stroke-miterlimit="10" stroke-linecap="round" stroke-linejoin="round"/>
<path d="M57.2004 289.1C60.4036 289.1 63.0004 286.503 63.0004 283.3C63.0004 280.097 60.4036 277.5 57.2004 277.5C53.9971 277.5 51.4004 280.097 51.4004 283.3C51.4004 286.503 53.9971 289.1 57.2004 289.1Z" fill="#444E59"/>
<path d="M86.8967 244.585L65.9629 255.266L85.0519 292.679L105.986 281.998L86.8967 244.585Z" fill="#2B2B2B" fill-opacity="0.3" stroke="#2B2B2B" stroke-opacity="0.3" stroke-width="4" stroke-miterlimit="10" stroke-linecap="round" stroke-linejoin="round"/>
<path d="M86.8967 244.585L65.9629 255.266L85.0519 292.679L105.986 281.998L86.8967 244.585Z" stroke="#848484" stroke-width="4" stroke-miterlimit="10" stroke-linecap="round" stroke-linejoin="round"/>
<path d="M107.875 233.851L86.9414 244.531L106.03 281.945L126.964 271.264L107.875 233.851Z" stroke="#848484" stroke-width="4" stroke-miterlimit="10" stroke-linecap="round" stroke-linejoin="round"/>
<path d="M138.901 265.2L126.901 271.3L107.801 233.9L119.801 227.8C124.701 225.3 130.701 227.2 133.301 232.2L143.301 251.8C145.801 256.7 143.801 262.7 138.901 265.2Z" fill="#2B2B2B"/>
<path d="M138.901 265.2L126.901 271.3L107.801 233.9L119.801 227.8C124.701 225.3 130.701 227.2 133.301 232.2L143.301 251.8C145.801 256.7 143.801 262.7 138.901 265.2Z" stroke="#848484" stroke-width="4" stroke-miterlimit="10" stroke-linecap="round" stroke-linejoin="round"/>
<path d="M239.999 310.201H172.699C167.199 310.201 162.699 305.701 162.699 300.201V165.301C162.699 159.801 167.199 155.301 172.699 155.301H239.999C245.499 155.301 249.999 159.801 249.999 165.301V300.201C249.999 305.801 245.499 310.201 239.999 310.201Z" fill="white"/>
<path d="M251.399 201.801H162.699V165.101C162.699 159.701 167.099 155.301 172.499 155.301H240.999C246.699 155.301 251.299 160.001 251.299 165.601V201.801H251.399Z" fill="#848484"/>
<path d="M239.999 310.201H172.699C167.199 310.201 162.699 305.701 162.699 300.201V165.301C162.699 159.801 167.199 155.301 172.699 155.301H239.999C245.499 155.301 249.999 159.801 249.999 165.301V300.201C249.999 305.801 245.499 310.201 239.999 310.201Z" stroke="#2B2B2B" stroke-width="4" stroke-miterlimit="10" stroke-linecap="round" stroke-linejoin="round"/>
<path d="M240.1 310.202H173C167.3 310.202 162.6 305.502 162.6 299.802V280.602H250V300.302C250 305.802 245.5 310.202 240.1 310.202Z" fill="#848484"/>
<path d="M240.3 310.202H173C167.3 310.202 162.6 305.502 162.6 299.802V280.602H250V300.502C250 305.902 245.6 310.202 240.3 310.202Z" stroke="#2B2B2B" stroke-width="4" stroke-miterlimit="10" stroke-linecap="round" stroke-linejoin="round"/>
<path d="M207 299.801C209.761 299.801 212 297.562 212 294.801C212 292.039 209.761 289.801 207 289.801C204.239 289.801 202 292.039 202 294.801C202 297.562 204.239 299.801 207 299.801Z" fill="#444E59"/>
<path opacity="0.3" d="M182.4 217.301H231.7" stroke="#444E59" stroke-width="4" stroke-miterlimit="10" stroke-linecap="round" stroke-linejoin="round"/>
<path opacity="0.3" d="M192.199 232.801H223.199" stroke="#444E59" stroke-width="4" stroke-miterlimit="10" stroke-linecap="round" stroke-linejoin="round"/>
<path opacity="0.3" d="M182.4 246.902H231.7" stroke="#444E59" stroke-width="4" stroke-miterlimit="10" stroke-linecap="round" stroke-linejoin="round"/>
<path opacity="0.62" d="M206.999 193.302C213.184 193.302 218.199 188.288 218.199 182.102C218.199 175.917 213.184 170.902 206.999 170.902C200.813 170.902 195.799 175.917 195.799 182.102C195.799 188.288 200.813 193.302 206.999 193.302Z" fill="white"/>
<path d="M223.2 262.4C223.2 265.5 220.7 268 217.6 268H196.5C193.4 268 190.9 265.5 190.9 262.4C190.9 259.3 193.4 256.8 196.5 256.8H217.6C220.7 256.7 223.2 259.2 223.2 262.4Z" fill="#848484"/>
<path d="M761.2 291.9H518.9V146.3C518.9 142 522.4 138.5 526.7 138.5H753.5C757.7 138.5 761.1 141.9 761.1 146.1V291.9H761.2Z" fill="#848484"/>
<path d="M761.8 292.199H519.6V146.199C519.6 141.799 523.2 138.199 527.6 138.199H753.8C758.2 138.199 761.8 141.799 761.8 146.199V292.199Z" stroke="#2B2B2B" stroke-width="4" stroke-miterlimit="10" stroke-linecap="round" stroke-linejoin="round"/>
<path opacity="0.71" d="M748.527 279.325V151.125L533.027 151.125V279.325H748.527Z" fill="#F9F9F9"/>
<path opacity="0.32" d="M585.7 254.899H567.1C566 254.899 565.1 253.999 565.1 252.899V189.199C565.1 188.099 566 187.199 567.1 187.199H585.7C586.8 187.199 587.7 188.099 587.7 189.199V252.999C587.7 253.999 586.8 254.899 585.7 254.899Z" fill="#848484"/>
<path opacity="0.32" d="M720 267.799H612.6C610.4 267.799 608.6 265.999 608.6 263.799V181.699C608.6 179.499 610.4 177.699 612.6 177.699H720C722.2 177.699 724 179.499 724 181.699V263.799C724 265.999 722.3 267.799 720 267.799Z" fill="#848484"/>
<path d="M748.338 278.721V151.621L533.038 151.621V278.721L748.338 278.721Z" stroke="#2B2B2B" stroke-width="4" stroke-miterlimit="10" stroke-linecap="round" stroke-linejoin="round"/>
<path d="M788.2 292.199H493.1V301.599C493.1 305.999 496.7 309.599 501.1 309.599H780.2C784.6 309.599 788.2 305.999 788.2 301.599V292.199Z" fill="white"/>
<path opacity="0.8" d="M504.399 310.201H776.999C782.499 310.201 786.999 306.001 787.999 300.301H493.299C494.299 306.001 498.899 310.201 504.399 310.201Z" fill="#BBBFC2"/>
<path d="M788.2 292.199H493.1V301.599C493.1 305.999 496.7 309.599 501.1 309.599H780.2C784.6 309.599 788.2 305.999 788.2 301.599V292.199Z" stroke="#444E59" stroke-width="4" stroke-miterlimit="10" stroke-linecap="round" stroke-linejoin="round"/>
<path opacity="0.9" d="M582.299 182.098H559.799V204.598H582.299V182.098Z" fill="#D7D7D7"/>
<path d="M582.699 182.301H560.199V204.801H582.699V182.301Z" stroke="#444E59" stroke-width="4" stroke-miterlimit="10" stroke-linecap="round" stroke-linejoin="round"/>
<path d="M582.699 182.301H560.199V204.801H582.699V182.301Z" stroke="#848484" stroke-width="4" stroke-miterlimit="10" stroke-linecap="round" stroke-linejoin="round"/>
<path opacity="0.6" d="M582.299 204.598H559.799V227.098H582.299V204.598Z" fill="#2B2B2B"/>
<path d="M582.699 204.898H560.199V227.398H582.699V204.898Z" stroke="#848484" stroke-width="4" stroke-miterlimit="10" stroke-linecap="round" stroke-linejoin="round"/>
<path d="M582.299 227.098H559.799V249.598H582.299V227.098Z" fill="#2B2B2B"/>
<path d="M582.699 227.398H560.199V249.898H582.699V227.398Z" stroke="#848484" stroke-width="4" stroke-miterlimit="10" stroke-linecap="round" stroke-linejoin="round"/>
<path d="M713.5 260.901H606C603.8 260.901 602 259.101 602 256.901V174.801C602 172.601 603.8 170.801 606 170.801H713.5C715.7 170.801 717.5 172.601 717.5 174.801V256.901C717.5 259.201 715.7 260.901 713.5 260.901Z" fill="white"/>
<path d="M713.5 260.901H606C603.8 260.901 602 259.101 602 256.901V174.801C602 172.601 603.8 170.801 606 170.801H713.5C715.7 170.801 717.5 172.601 717.5 174.801V256.901C717.5 259.201 715.7 260.901 713.5 260.901Z" stroke="#2B2B2B" stroke-width="4" stroke-miterlimit="10" stroke-linecap="round" stroke-linejoin="round"/>
<g opacity="0.3">
<path d="M683.701 237.199V238.699H682.201" stroke="#444E59" stroke-width="2" stroke-linejoin="round"/>
<path d="M680.3 238.699H638.4" stroke="#444E59" stroke-width="2" stroke-linejoin="round" stroke-dasharray="2.86 2.86"/>
<path d="M637.4 238.699H635.9V237.199" stroke="#444E59" stroke-width="2" stroke-linejoin="round"/>
<path d="M635.9 235.098V196.098" stroke="#444E59" stroke-width="2" stroke-linejoin="round" stroke-dasharray="3 3"/>
<path d="M635.9 195.098V193.598H637.4" stroke="#444E59" stroke-width="2" stroke-linejoin="round"/>
<path d="M639.301 193.598H681.201" stroke="#444E59" stroke-width="2" stroke-linejoin="round" stroke-dasharray="2.86 2.86"/>
<path d="M682.201 193.598H683.701V195.098" stroke="#444E59" stroke-width="2" stroke-linejoin="round"/>
<path d="M683.701 197.098V236.198" stroke="#444E59" stroke-width="2" stroke-linejoin="round" stroke-dasharray="3 3"/>
</g>
<path d="M639.7 190.102H632.6V197.202H639.7V190.102Z" fill="white"/>
<path d="M639.299 189.801H632.299V196.801H639.299V189.801Z" stroke="#444E59" stroke-miterlimit="10" stroke-linejoin="round"/>
<path d="M639.7 235.098H632.6V242.198H639.7V235.098Z" fill="white"/>
<path d="M639.299 234.898H632.299V241.898H639.299V234.898Z" stroke="#444E59" stroke-miterlimit="10" stroke-linejoin="round"/>
<path d="M687.299 190.102H680.199V197.202H687.299V190.102Z" fill="white"/>
<path d="M687.199 189.801H680.199V196.801H687.199V189.801Z" stroke="#444E59" stroke-miterlimit="10" stroke-linejoin="round"/>
<path d="M687.299 235.098H680.199V242.198H687.299V235.098Z" fill="white"/>
<path d="M687.199 234.898H680.199V241.898H687.199V234.898Z" stroke="#444E59" stroke-miterlimit="10" stroke-linejoin="round"/>
<path d="M571.5 216.5L578.6 231.7L585.5 235.3L590.3 230.5L586.8 223.5L571.5 216.5Z" fill="white"/>
<path d="M571.5 216.5L578.6 231.7L585.5 235.3L590.3 230.5L586.8 223.5L571.5 216.5Z" stroke="#444E59" stroke-miterlimit="10" stroke-linejoin="round"/>
<path d="M580.5 226.999C581.549 226.999 582.4 226.149 582.4 225.099C582.4 224.05 581.549 223.199 580.5 223.199C579.45 223.199 578.6 224.05 578.6 225.099C578.6 226.149 579.45 226.999 580.5 226.999Z" fill="#444E59"/>
<path d="M571.5 216.5L579.4 224.4" stroke="#444E59" stroke-miterlimit="10" stroke-linecap="round" stroke-linejoin="round"/>
<path d="M590.33 230.422L585.521 235.23L588.986 238.695L593.795 233.887L590.33 230.422Z" fill="white"/>
<path d="M590.33 230.422L585.521 235.23L588.986 238.695L593.795 233.887L590.33 230.422Z" stroke="#444E59" stroke-miterlimit="10" stroke-linejoin="round"/>
</g>
<defs>
<clipPath id="clip0_704_2529">
<rect width="832" height="522" fill="white"/>
</clipPath>
</defs>
</svg>
