<svg width="512" height="470" viewBox="0 0 512 470" fill="none" xmlns="http://www.w3.org/2000/svg">
<line x1="78" y1="97.5" x2="435" y2="97.5" stroke="black" stroke-width="15"/>
<line x1="78" y1="369.5" x2="435" y2="369.5" stroke="black" stroke-width="15"/>
<path d="M122.02 266.04C119.853 266.04 117.99 265.52 116.43 264.48C114.87 263.353 113.613 261.62 112.66 259.28L93.81 211.18C93.03 209.1 92.77 207.28 93.03 205.72C93.3767 204.073 94.2 202.773 95.5 201.82C96.8 200.867 98.5333 200.39 100.7 200.39C102.607 200.39 104.167 200.867 105.38 201.82C106.593 202.687 107.633 204.377 108.5 206.89L124.23 250.18H121.24L137.49 205.85C138.183 203.943 139.093 202.557 140.22 201.69C141.433 200.823 142.993 200.39 144.9 200.39C146.807 200.39 148.367 200.867 149.58 201.82C150.793 202.687 151.703 204.03 152.31 205.85L168.3 250.18H165.57L181.43 206.5C182.297 204.16 183.38 202.557 184.68 201.69C186.067 200.823 187.583 200.39 189.23 200.39C191.31 200.39 192.913 200.91 194.04 201.95C195.167 202.99 195.817 204.333 195.99 205.98C196.163 207.54 195.86 209.273 195.08 211.18L176.36 259.28C175.493 261.533 174.237 263.223 172.59 264.35C171.03 265.477 169.167 266.04 167 266.04C164.833 266.04 162.927 265.477 161.28 264.35C159.72 263.223 158.507 261.533 157.64 259.28L140.61 214.17H148.02L131.38 259.15C130.513 261.49 129.3 263.223 127.74 264.35C126.18 265.477 124.273 266.04 122.02 266.04ZM238.055 266.04C235.888 266.04 234.025 265.52 232.465 264.48C230.905 263.353 229.648 261.62 228.695 259.28L209.845 211.18C209.065 209.1 208.805 207.28 209.065 205.72C209.412 204.073 210.235 202.773 211.535 201.82C212.835 200.867 214.568 200.39 216.735 200.39C218.642 200.39 220.202 200.867 221.415 201.82C222.628 202.687 223.668 204.377 224.535 206.89L240.265 250.18H237.275L253.525 205.85C254.218 203.943 255.128 202.557 256.255 201.69C257.468 200.823 259.028 200.39 260.935 200.39C262.842 200.39 264.402 200.867 265.615 201.82C266.828 202.687 267.738 204.03 268.345 205.85L284.335 250.18H281.605L297.465 206.5C298.332 204.16 299.415 202.557 300.715 201.69C302.102 200.823 303.618 200.39 305.265 200.39C307.345 200.39 308.948 200.91 310.075 201.95C311.202 202.99 311.852 204.333 312.025 205.98C312.198 207.54 311.895 209.273 311.115 211.18L292.395 259.28C291.528 261.533 290.272 263.223 288.625 264.35C287.065 265.477 285.202 266.04 283.035 266.04C280.868 266.04 278.962 265.477 277.315 264.35C275.755 263.223 274.542 261.533 273.675 259.28L256.645 214.17H264.055L247.415 259.15C246.548 261.49 245.335 263.223 243.775 264.35C242.215 265.477 240.308 266.04 238.055 266.04ZM354.09 266.04C351.924 266.04 350.06 265.52 348.5 264.48C346.94 263.353 345.684 261.62 344.73 259.28L325.88 211.18C325.1 209.1 324.84 207.28 325.1 205.72C325.447 204.073 326.27 202.773 327.57 201.82C328.87 200.867 330.604 200.39 332.77 200.39C334.677 200.39 336.237 200.867 337.45 201.82C338.664 202.687 339.704 204.377 340.57 206.89L356.3 250.18H353.31L369.56 205.85C370.254 203.943 371.164 202.557 372.29 201.69C373.504 200.823 375.064 200.39 376.97 200.39C378.877 200.39 380.437 200.867 381.65 201.82C382.864 202.687 383.774 204.03 384.38 205.85L400.37 250.18H397.64L413.5 206.5C414.367 204.16 415.45 202.557 416.75 201.69C418.137 200.823 419.654 200.39 421.3 200.39C423.38 200.39 424.984 200.91 426.11 201.95C427.237 202.99 427.887 204.333 428.06 205.98C428.234 207.54 427.93 209.273 427.15 211.18L408.43 259.28C407.564 261.533 406.307 263.223 404.66 264.35C403.1 265.477 401.237 266.04 399.07 266.04C396.904 266.04 394.997 265.477 393.35 264.35C391.79 263.223 390.577 261.533 389.71 259.28L372.68 214.17H380.09L363.45 259.15C362.584 261.49 361.37 263.223 359.81 264.35C358.25 265.477 356.344 266.04 354.09 266.04Z" fill="black"/>
<mask id="mask0_505_54" style="mask-type:alpha" maskUnits="userSpaceOnUse" x="136" y="0" width="242" height="470">
<path d="M370.5 235C370.5 297.646 341.24 354.856 311.388 396.823C296.517 417.73 281.636 434.66 270.479 446.356C264.905 452.2 260.27 456.726 257.045 459.778C257.03 459.792 257.015 459.806 257 459.82C256.985 459.806 256.97 459.792 256.955 459.778C253.73 456.726 249.095 452.2 243.521 446.356C232.364 434.66 217.483 417.73 202.612 396.823C172.76 354.856 143.5 297.646 143.5 235C143.5 172.354 172.76 115.144 202.612 73.1772C217.483 52.27 232.364 35.3395 243.521 23.6443C249.095 17.8005 253.73 13.274 256.955 10.2223C256.97 10.2082 256.985 10.1941 257 10.1801C257.015 10.1941 257.03 10.2082 257.045 10.2223C260.27 13.274 264.905 17.8005 270.479 23.6443C281.636 35.3395 296.517 52.27 311.388 73.1772C341.24 115.144 370.5 172.354 370.5 235Z" stroke="black" stroke-width="15"/>
</mask>
<g mask="url(#mask0_505_54)">
<rect x="99" width="276" height="166" fill="black"/>
<rect x="99" y="304" width="276" height="166" fill="black"/>
</g>
<mask id="mask1_505_54" style="mask-type:alpha" maskUnits="userSpaceOnUse" x="21" y="0" width="470" height="470">
<circle cx="256" cy="235" r="227.5" stroke="black" stroke-width="15"/>
</mask>
<g mask="url(#mask1_505_54)">
<rect x="10" y="289" width="512" height="181" fill="black"/>
<rect x="10" y="289" width="512" height="181" fill="black"/>
<rect x="10" width="512" height="181" fill="black"/>
<rect x="10" width="512" height="181" fill="black"/>
</g>
<path d="M35 173.5H477C492.188 173.5 504.5 185.812 504.5 201V269C504.5 284.188 492.188 296.5 477 296.5H35C19.8122 296.5 7.5 284.188 7.5 269V201C7.5 185.812 19.8122 173.5 35 173.5Z" stroke="black" stroke-width="15"/>
</svg>
